<?xml version="1.0" encoding="UTF-8"?>
<svg width="50px" height="50px" viewBox="0 0 50 50" version="1.1" xmlns="http://www.w3.org/2000/svg" xmlns:xlink="http://www.w3.org/1999/xlink">
    <!-- Generator: Sketch 61.2 (89653) - https://sketch.com -->
    <title>Artboard</title>
    <desc>Created with Sketch.</desc>
    <g id="Artboard" stroke="none" stroke-width="1" fill="none" fill-rule="evenodd" stroke-linejoin="round">
        <path d="M24.1829085,14.3740264 C31.0404551,7.44295425 38.1931886,5.51126824 43.0798977,9.17901328 C47.8816323,12.7829802 48.5752956,20.5707358 44.8370915,28.5990179 C42.6807443,33.2300556 35.4457359,38.2196136 22.9574516,44.0231995 L21.6716875,44.6207229 L20.5847356,43.7103609 C10.0213858,34.8631693 4.36339544,28.5991288 3.42614857,24.3065896 C-0.514777473,6.25736475 14.1392466,0.819227637 24.1829085,14.3740264 Z" id="Path-11" stroke="#FFFFFF" stroke-width="4.46200021" fill="#FFFFFF"></path>
        <path d="M24.1797033,18.4357867 C15.433616,3.34915009 1.98231204,7.23531341 5.60579754,23.830678 C6.39390875,27.4401841 11.8643847,33.4966248 22.0172254,42 C34.0291102,36.4178076 40.9615663,31.6369021 42.8145937,27.6572835 C49.8401947,12.5688865 38.8651263,1.8643789 24.9947532,16.749622 L24.1797033,18.4357867 Z" id="Path-11" stroke="#000000" stroke-width="2.67720013" fill="#FF097D"></path>
    </g>
</svg>