<?xml version="1.0" encoding="UTF-8"?>
<svg width="50px" height="50px" viewBox="0 0 50 50" version="1.1" xmlns="http://www.w3.org/2000/svg" xmlns:xlink="http://www.w3.org/1999/xlink">
    <!-- Generator: Sketch 61.2 (89653) - https://sketch.com -->
    <title>Artboard</title>
    <desc>Created with Sketch.</desc>
    <g id="Artboard" stroke="none" stroke-width="1" fill="none" fill-rule="evenodd">
        <path d="M24.0744676,11.4286771 C20.0124549,4.74796065 11.5933412,-0.673849641 7.41579271,10.0719597 C-0.355367636,30.061532 4.79318393,15.5568061 7.37042478,24.6960986 C11.91499,40.8118261 11.5915672,50.0212495 31.9571469,45.466513 C57.7560003,39.6966317 43.1573586,-2.43509777 25.396619,9.47299491 L24.0744676,11.4286771 Z" id="Path-10" fill="#FFFFFF"></path>
        <path d="M31.3059047,13.2055726 C47.8186795,11.9607028 20.1328636,18.6227083 14.3776902,26.3218483 C14.0533126,26.7557933 8.95015154,39.7141488 13.1656431,39.2629616 C36.4858749,36.7669796 37.8046881,25.7367677 21.3794506,24.2689172 C16.0189908,23.7898767 10.5619937,24.934114 5.23230371,24.1931006 C1.18733669,23.6307086 7.9262398,3.65554168 13.515068,3.07294236 C30.2320851,1.33030109 23.6175528,31.3370399 26.1739326,36.9185286 C27.0146249,38.7540597 33.9387715,37.5808946 35.3206452,36.2106889 C44.7791302,26.8320679 33.4786616,12.0133317 21.2673959,15.1807263 C4.73041506,19.4701379 30.6740062,39.6957916 18.6477032,42.1551043 C16.2907231,42.6370937 11.2225458,39.9687373 11.4284639,42.3328812 C11.9430037,48.2403091 35.8673029,50.4035759 40.3359213,36.0374871 C45.8422938,18.3351397 30.2810205,22.2404761 28.4747005,16.7382351 C28.3747008,16.4336254 36.519706,8.52613315 39.1669721,11.0866287 C41.6499394,13.4882107 42.3893704,17.2627342 43.0782775,20.623837 C44.0443628,25.3372623 38.7148515,29.9626245 33.4932918,27.7597498 C29.4571516,26.0569806 28.5219712,20.3325193 24.8451894,17.9676408 C13.4386932,10.6310678 5.81096061,29.6014082 6.42313342,36.4662432 C6.51607731,37.5085052 7.71695556,38.1520376 8.544879,38.8067547 L19.6827172,42.0949739 C20.8643068,43.0293681 16.5719348,45.5640567 17.9289619,46.2276334 C21.0195016,47.7388856 24.8443037,46.6230405 28.278439,46.2982213 C44.5327623,44.760799 39.8933541,43.4011694 43.3932241,29.763008 C44.0146146,27.3415969 46.0214137,25.4078198 46.6302122,22.9833026 C49.2525848,12.5398027 37.3884161,4.13120992 28.0689166,7.14743225 C21.1381298,9.39055635 24.9497164,15.8024441 19.518945,19.1160012" id="Path-9" stroke="#FFFFFF" stroke-width="6.72"></path>
        <path d="M31.3059047,13.2055726 C47.8186795,11.9607028 20.1328636,18.6227083 14.3776902,26.3218483 C14.0533126,26.7557933 8.95015154,39.7141488 13.1656431,39.2629616 C36.4858749,36.7669796 37.8046881,25.7367677 21.3794506,24.2689172 C16.0189908,23.7898767 10.5619937,24.934114 5.23230371,24.1931006 C1.18733669,23.6307086 7.9262398,3.65554168 13.515068,3.07294236 C30.2320851,1.33030109 23.6175528,31.3370399 26.1739326,36.9185286 C27.0146249,38.7540597 33.9387715,37.5808946 35.3206452,36.2106889 C44.7791302,26.8320679 33.4786616,12.0133317 21.2673959,15.1807263 C4.73041506,19.4701379 30.6740062,39.6957916 18.6477032,42.1551043 C16.2907231,42.6370937 11.2225458,39.9687373 11.4284639,42.3328812 C11.9430037,48.2403091 35.8673029,50.4035759 40.3359213,36.0374871 C45.8422938,18.3351397 30.2810205,22.2404761 28.4747005,16.7382351 C28.3747008,16.4336254 36.519706,8.52613315 39.1669721,11.0866287 C41.6499394,13.4882107 42.3893704,17.2627342 43.0782775,20.623837 C44.0443628,25.3372623 38.7148515,29.9626245 33.4932918,27.7597498 C29.4571516,26.0569806 28.5219712,20.3325193 24.8451894,17.9676408 C13.4386932,10.6310678 5.81096061,29.6014082 6.42313342,36.4662432 C6.51607731,37.5085052 7.71695556,38.1520376 8.544879,38.8067547 L19.6827172,42.0949739 C20.8643068,43.0293681 16.5719348,45.5640567 17.9289619,46.2276334 C21.0195016,47.7388856 24.8443037,46.6230405 28.278439,46.2982213 C44.5327623,44.760799 39.8933541,43.4011694 43.3932241,29.763008 C44.0146146,27.3415969 46.0214137,25.4078198 46.6302122,22.9833026 C49.2525848,12.5398027 37.3884161,4.13120992 28.0689166,7.14743225 C21.1381298,9.39055635 24.9497164,15.8024441 19.518945,19.1160012" id="Path-9" stroke="#000000" stroke-width="1.96"></path>
    </g>
</svg>