<?xml version="1.0" encoding="UTF-8"?>
<svg width="127px" height="70px" viewBox="0 0 127 70" version="1.1" xmlns="http://www.w3.org/2000/svg" xmlns:xlink="http://www.w3.org/1999/xlink">
    <!-- Generator: Sketch 61.2 (89653) - https://sketch.com -->
    <title>backToBedroom-default</title>
    <desc>Created with Sketch.</desc>
    <defs>
        <linearGradient x1="50%" y1="55.2205371%" x2="44.5199805%" y2="38.5196591%" id="linearGradient-1">
            <stop stop-color="#FA80FF" offset="0%"></stop>
            <stop stop-color="#FB8AFF" offset="3.63703547%"></stop>
            <stop stop-color="#FDC7FF" offset="91.2135769%"></stop>
            <stop stop-color="#FDCBFF" offset="100%"></stop>
        </linearGradient>
        <path d="M23.897907,64 C12.8987562,63.9457359 4,55.2360957 4,44.5 C4,33.7304474 12.954305,25 24,25 C24.8052934,25 25.5994706,25.0464044 26.3798722,25.1366201 C28.4895937,13.1321669 39.1574198,4 52,4 C62.2125207,4 71.0498236,9.77477636 75.3023774,18.1765195 C77.6822387,15.6132676 81.1451839,14 85,14 C91.8728047,14 97.4999377,19.1282253 97.9684448,25.6222199 C99.5758995,25.2161318 101.262062,25 103,25 C114.045695,25 123,33.7304474 123,44.5 C123,55.2695526 114.045695,64 103,64 L103,64 L23.897907,64 Z" id="path-2"></path>
        <filter x="-4.2%" y="-8.3%" width="108.4%" height="116.7%" filterUnits="objectBoundingBox" id="filter-3">
            <feMorphology radius="1" operator="erode" in="SourceAlpha" result="shadowSpreadInner1"></feMorphology>
            <feGaussianBlur stdDeviation="2.5" in="shadowSpreadInner1" result="shadowBlurInner1"></feGaussianBlur>
            <feOffset dx="0" dy="4" in="shadowBlurInner1" result="shadowOffsetInner1"></feOffset>
            <feComposite in="shadowOffsetInner1" in2="SourceAlpha" operator="arithmetic" k2="-1" k3="1" result="shadowInnerInner1"></feComposite>
            <feColorMatrix values="0 0 0 0 1   0 0 0 0 1   0 0 0 0 1  0 0 0 0.5 0" type="matrix" in="shadowInnerInner1"></feColorMatrix>
        </filter>
        <path d="M95.376,33.672 C95.584,33.672 95.792,33.728 96,33.84 C96.272,33.984 96.456,34.16 96.552,34.368 C96.648,34.576 96.712,34.94 96.744,35.46 C96.7714286,35.9057143 96.787102,36.6776327 96.7910204,37.7757551 L96.792,38.352 L96.7926144,38.8975872 C96.7973248,40.9018624 96.82912,41.904 96.888,41.904 C97.016,41.904 97.48,41.5 98.28,40.692 C99.08,39.884 99.584,39.312 99.792,38.976 C100.24,38.256 100.72,37.896 101.232,37.896 C101.552,37.896 101.872,38.04 102.192,38.328 C102.416,38.552 102.528,38.816 102.528,39.12 C102.528,40.032 101.664,41.272 99.936,42.84 C99.232,43.48 98.88,43.824 98.88,43.872 C98.88,43.952 99.152,44.152 99.696,44.472 C100.256,44.808 101.116,45.412 102.276,46.284 C103.436,47.156 104.056,47.664 104.136,47.808 C104.232,48 104.28,48.192 104.28,48.384 C104.28,48.736 104.152,49.052 103.896,49.332 C103.64,49.612 103.328,49.752 102.96,49.752 C102.688,49.752 102.364,49.636 101.988,49.404 C101.612,49.172 100.864,48.624 99.744,47.76 C99.216,47.344 98.68,46.984 98.136,46.68 C97.592,46.376 97.224,46.224 97.032,46.224 C96.92,46.224 96.852,46.296 96.828,46.44 C96.804,46.584 96.792,47.032 96.792,47.784 C96.792,48.536 96.776,49.004 96.744,49.188 C96.712,49.372 96.608,49.544 96.432,49.704 C96.176,49.944 95.872,50.064 95.52,50.064 C95.136,50.064 94.808,49.92 94.536,49.632 L94.536,49.632 L94.2,49.272 L94.128,45.696 L94.1078519,44.8296296 C94.057284,42.5414321 94.032,40.4302222 94.032,38.496 L94.032,38.496 L94.0325625,37.923 C94.0351875,36.649 94.047,35.816 94.068,35.424 C94.092,34.976 94.16,34.648 94.272,34.44 C94.528,33.928 94.896,33.672 95.376,33.672 Z M71.136,37.992 C72,37.992 72.848,38.144 73.68,38.448 C74.512,38.752 75.088,39.136 75.408,39.6 C75.632,39.92 75.92,40.256 76.272,40.608 C76.656,41.008 77.008,41.696 77.328,42.672 C77.632,43.6 77.916,44.632 78.18,45.768 C78.444,46.904 78.576,47.672 78.576,48.072 C78.576,48.472 78.456,48.784 78.216,49.008 C77.912,49.296 77.624,49.44 77.352,49.44 C77.24,49.44 77.096,49.416 76.92,49.368 C76.616,49.256 76.38,49.064 76.212,48.792 C76.044,48.52 75.896,48.08 75.768,47.472 C75.608,46.752 75.52,46.392 75.504,46.392 C75.44,46.392 75.104,46.696 74.496,47.304 C73.296,48.472 72.048,49.104 70.752,49.2 L70.752,49.2 L70.416,49.2 L70.0812245,49.1916735 C69.4141224,49.1583673 68.7617143,49.0251429 68.124,48.792 C67.38,48.52 66.792,48.16 66.36,47.712 C66.136,47.488 65.912,47.148 65.688,46.692 C65.464,46.236 65.312,45.816 65.232,45.432 C65.152,45.032 65.112,44.672 65.112,44.352 C65.112,43.024 65.564,41.752 66.468,40.536 C67.372,39.32 68.48,38.528 69.792,38.16 C70.176,38.048 70.624,37.992 71.136,37.992 Z M85.512,38.4 C85.8,38.4 86.032,38.408 86.208,38.424 C86.848,38.44 87.288,38.476 87.528,38.532 C87.768,38.588 88.088,38.712 88.488,38.904 C89.624,39.48 90.192,40.176 90.192,40.992 C90.192,41.168 90.136,41.384 90.024,41.64 C89.784,42.104 89.416,42.336 88.92,42.336 C88.472,42.336 88.064,42.128 87.696,41.712 C87.52,41.52 87.36,41.388 87.216,41.316 C87.072,41.244 86.84,41.184 86.52,41.136 C86.2,41.104 85.984,41.088 85.872,41.088 C85.312,41.088 84.904,41.264 84.648,41.616 C84.2,42.272 83.976,42.984 83.976,43.752 C83.976,44.584 84.232,45.292 84.744,45.876 C85.256,46.46 85.928,46.752 86.76,46.752 C87.08,46.752 87.528,46.668 88.104,46.5 C88.68,46.332 89.064,46.176 89.256,46.032 C89.416,45.904 89.696,45.84 90.096,45.84 C90.48,45.84 90.796,45.96 91.044,46.2 C91.292,46.44 91.416,46.744 91.416,47.112 C91.416,47.448 91.336,47.72 91.176,47.928 C91.016,48.136 90.712,48.352 90.264,48.576 C89.112,49.152 87.96,49.44 86.808,49.44 C84.904,49.44 83.456,48.76 82.464,47.4 C81.664,46.312 81.264,45.12 81.264,43.824 C81.264,43.024 81.424,42.184 81.744,41.304 C81.984,40.68 82.34,40.112 82.812,39.6 C83.284,39.088 83.784,38.736 84.312,38.544 C84.568,38.448 84.968,38.4 85.512,38.4 Z M55.104,33.984 C56.048,33.984 56.94,34.148 57.78,34.476 C58.62,34.804 59.312,35.264 59.856,35.856 C60.464,36.544 60.768,37.224 60.768,37.896 C60.768,38.344 60.616,38.848 60.312,39.408 C60.104,39.792 60,40.016 60,40.08 C60,40.144 60.224,40.328 60.672,40.632 C61.872,41.464 62.472,42.576 62.472,43.968 C62.472,44.592 62.336,45.168 62.064,45.696 C61.744,46.368 61.208,47.016 60.456,47.64 C59.704,48.264 58.96,48.68 58.224,48.888 C57.744,49.048 56.88,49.128 55.632,49.128 C54.624,49.128 53.944,49.072 53.592,48.96 C52.808,48.72 52.32,48.304 52.128,47.712 C52.032,47.376 51.896,46.224 51.72,44.256 C51.384,40.464 51.096,38.04 50.856,36.984 C50.776,36.616 50.736,36.344 50.736,36.168 C50.736,35.864 50.836,35.612 51.036,35.412 C51.236,35.212 51.6,34.984 52.128,34.728 C52.848,34.36 53.432,34.144 53.88,34.08 C54.248,34.016 54.656,33.984 55.104,33.984 Z M25.736,35.784 C26.12,35.784 26.432,35.9 26.672,36.132 C26.912,36.364 27.032,36.656 27.032,37.008 C27.032,37.36 26.912,37.704 26.672,38.04 C26.3776,38.43744 25.2571136,39.4239744 23.3105408,40.9996032 L36.5,41 C37.3284271,41 38,41.6715729 38,42.5 C38,43.2796961 37.4051119,43.9204487 36.64446,43.9931334 L36.5,44 L24.0192992,44.0000726 C24.3506399,44.236846 24.6428735,44.4501551 24.896,44.64 C24.976,44.688 25.256,44.88 25.736,45.216 C26.216,45.552 26.56,45.792 26.768,45.936 C27.168,46.224 27.44,46.444 27.584,46.596 C27.728,46.748 27.824,46.92 27.872,47.112 C27.888,47.176 27.896,47.28 27.896,47.424 C27.896,47.792 27.776,48.108 27.536,48.372 C27.296,48.636 27.016,48.768 26.696,48.768 C26.584,48.768 26.504,48.76 26.456,48.744 C25.992,48.632 24.584,47.74 22.232,46.068 C19.88,44.396 18.632,43.4 18.488,43.08 C18.392,42.856 18.344,42.608 18.344,42.336 C18.344,41.936 18.424,41.624 18.584,41.4 C18.744,41.144 19.168,40.744 19.856,40.2 C22.032,38.552 23.456,37.4 24.128,36.744 C24.592,36.312 24.908,36.044 25.076,35.94 C25.244,35.836 25.464,35.784 25.736,35.784 Z M54.216,42.192 L54.288,42.96 L54.3135833,43.23625 C54.5065278,45.3100833 54.626,46.37 54.672,46.416 C54.72,46.464 54.952,46.488 55.368,46.488 C56.2,46.488 56.872,46.424 57.384,46.296 C57.848,46.184 58.36,45.864 58.92,45.336 C59.288,44.968 59.516,44.708 59.604,44.556 C59.692,44.404 59.736,44.208 59.736,43.968 C59.736,43.296 59.32,42.808 58.488,42.504 C58.088,42.376 57.288,42.296 56.088,42.264 L56.088,42.264 L54.216,42.192 Z M71.28,40.728 C70.8,40.728 70.376,40.808 70.008,40.968 C69.656,41.128 69.272,41.44 68.856,41.904 C68.44,42.368 68.168,42.792 68.04,43.176 C67.896,43.592 67.824,43.984 67.824,44.352 C67.824,45.2 68.16,45.8 68.832,46.152 C69.232,46.36 69.752,46.464 70.392,46.464 C70.824,46.464 71.152,46.408 71.376,46.296 C72.672,45.64 73.464,44.464 73.752,42.768 L73.752,42.768 L73.896,41.856 L73.44,41.424 L73.3186667,41.3128333 C72.8542222,40.9229444 72.1746667,40.728 71.28,40.728 Z M54.912,36.696 C54.416,36.696 54.088,36.744 53.928,36.84 C53.768,36.936 53.688,37.088 53.688,37.296 C53.688,37.472 53.736,37.864 53.832,38.472 L53.832,38.472 L54,39.48 L54.672,39.384 L54.9536,39.34432 C56.2378667,39.1531733 57.104,38.8784 57.552,38.52 C57.872,38.264 58.032,38.08 58.032,37.968 C58.032,37.824 57.904,37.652 57.648,37.452 C57.392,37.252 57.088,37.088 56.736,36.96 C56.288,36.784 55.68,36.696 54.912,36.696 Z" id="path-4"></path>
        <filter x="-8.1%" y="-30.5%" width="116.3%" height="185.4%" filterUnits="objectBoundingBox" id="filter-5">
            <feOffset dx="0" dy="2" in="SourceAlpha" result="shadowOffsetOuter1"></feOffset>
            <feGaussianBlur stdDeviation="2" in="shadowOffsetOuter1" result="shadowBlurOuter1"></feGaussianBlur>
            <feColorMatrix values="0 0 0 0 0.729997423   0 0 0 0 0.355666927   0 0 0 0 0.744650136  0 0 0 1 0" type="matrix" in="shadowBlurOuter1"></feColorMatrix>
        </filter>
    </defs>
    <g id="backToBedroom-default" stroke="none" stroke-width="1" fill="none" fill-rule="evenodd">
        <path d="M51.4883092,0.00305402283 C38.6085543,0.186120677 27.5221137,8.58160416 23.7417326,20.4049743 L23.5778695,20.932434 L23.7625786,20.931942 C10.6467016,20.931942 0,31.4605785 0,44.465971 C0,57.4713635 10.6467016,68 23.7625786,68 L103.237421,68 L103.614844,67.9969757 C116.589673,67.7803983 127,57.3205593 127,44.465971 C127,31.4605785 116.353298,20.931942 103.237421,20.931942 L102.646296,20.9391027 C102.056111,20.953414 101.468847,20.989146 100.885415,21.0460225 L100.709403,21.065044 L100.698633,21.0291218 C98.5982323,14.3159197 92.2793009,9.47861523 84.8663522,9.47861523 L84.4600891,9.48348923 C81.4868616,9.55487639 78.6501706,10.4082834 76.1981559,11.9011956 L75.8655267,12.1083871 L75.606378,11.758224 C70.1186464,4.47992204 61.4184462,0 51.918239,0 L51.4883092,0.00305402283 Z" id="Combined-Shape" fill="#FA86FF" fill-rule="nonzero"></path>
        <g id="Combined-Shape">
            <use fill="url(#linearGradient-1)" fill-rule="evenodd" xlink:href="#path-2"></use>
            <use fill="black" fill-opacity="1" filter="url(#filter-3)" xlink:href="#path-2"></use>
        </g>
        <g id="Combined-Shape" fill-rule="nonzero">
            <use fill="black" fill-opacity="1" filter="url(#filter-5)" xlink:href="#path-4"></use>
            <use fill="#FFFFFF" xlink:href="#path-4"></use>
        </g>
    </g>
</svg>