<?xml version="1.0" encoding="UTF-8"?>
<svg width="458px" height="322px" viewBox="0 0 458 322" version="1.1" xmlns="http://www.w3.org/2000/svg" xmlns:xlink="http://www.w3.org/1999/xlink">
    <!-- Generator: Sketch 61.2 (89653) - https://sketch.com -->
    <title>bed</title>
    <desc>Created with Sketch.</desc>
    <defs>
        <filter x="-7.5%" y="-13.8%" width="115.0%" height="127.5%" filterUnits="objectBoundingBox" id="filter-1">
            <feOffset dx="0" dy="8" in="SourceAlpha" result="shadowOffsetOuter1"></feOffset>
            <feGaussianBlur stdDeviation="3.5" in="shadowOffsetOuter1" result="shadowBlurOuter1"></feGaussianBlur>
            <feColorMatrix values="0 0 0 0 0.922061714   0 0 0 0 0.884684781   0 0 0 0 0.923743207  0 0 0 1 0" type="matrix" in="shadowBlurOuter1" result="shadowMatrixOuter1"></feColorMatrix>
            <feMerge>
                <feMergeNode in="shadowMatrixOuter1"></feMergeNode>
                <feMergeNode in="SourceGraphic"></feMergeNode>
            </feMerge>
        </filter>
        <path d="M133.936264,15.441236 L20.2425423,110.960057 C16.5778473,114.038919 13.9649853,118.184387 12.7681131,122.818703 L6.55780059,146.86517 C3.38142422,159.16417 10.7767715,171.709441 23.0757711,174.885817 C23.9298886,175.106404 24.7959893,175.27767 25.6697804,175.398766 L288.337341,211.801123 C296.623799,212.94952 304.880362,209.508068 309.898094,202.814298 L354.996937,142.651408 L354.996937,142.651408 L379.939374,149.63026 C385.789814,151.267203 391.859537,147.851489 393.49648,142.001049 C393.796311,140.929454 393.931808,139.818569 393.898347,138.706322 L393.281295,118.195647 C392.82727,103.103944 387.36839,88.5915246 377.763604,76.9419014 C368.11826,65.2430853 355.114988,56.7861499 340.50997,52.7132622 L174.970649,6.54946745 C160.663296,2.55958922 145.308689,5.88678937 133.936264,15.441236 Z" id="path-2"></path>
        <linearGradient x1="57.807765%" y1="62.0386918%" x2="70.2563111%" y2="40.4557328%" id="linearGradient-4">
            <stop stop-color="#FF82F7" offset="0%"></stop>
            <stop stop-color="#FFA2A2" offset="15.7175%"></stop>
            <stop stop-color="#FFF6A6" offset="36.0924332%"></stop>
            <stop stop-color="#91FFE2" offset="52.5941069%"></stop>
            <stop stop-color="#6CB7FF" offset="68.5723413%"></stop>
            <stop stop-color="#C551FF" offset="100%"></stop>
        </linearGradient>
        <path d="M271.291104,1.08601843 C250.334502,1.3887059 228.981681,-2.07132892 208.421296,1.99408083 C203.764948,2.91478156 203.699302,10.2850927 202.127077,14.7618374 C199.580061,22.0141958 193.719765,59.3986136 202.194462,63.2558622 C215.038359,69.1017473 229.831217,69.2445476 243.863087,70.7523664 C247.295853,71.1212403 298.693265,71.1091362 301.269753,68.4198435 C308.849714,60.5080152 305.235373,46.7724235 305.425135,35.8194053 C306.000229,2.62521687 304.588517,7.18626611 276.514657,2.63271813 L271.291104,1.08601843 Z" id="path-5"></path>
        <filter x="-11.5%" y="-12.0%" width="123.1%" height="135.2%" filterUnits="objectBoundingBox" id="filter-6">
            <feOffset dx="0" dy="4" in="SourceAlpha" result="shadowOffsetOuter1"></feOffset>
            <feGaussianBlur stdDeviation="3.5" in="shadowOffsetOuter1" result="shadowBlurOuter1"></feGaussianBlur>
            <feColorMatrix values="0 0 0 0 0.922061714   0 0 0 0 0.884684781   0 0 0 0 0.923743207  0 0 0 1 0" type="matrix" in="shadowBlurOuter1"></feColorMatrix>
        </filter>
        <path d="M352.853478,27.5618047 C329.48922,28.3910169 317.776637,23.1647834 303.133262,40.2625648 C285.028152,61.4023114 296.483676,95.9610319 324.859175,97.6247835 C371.434835,100.355672 390.102387,44.6884114 345.072561,26.9577465" id="path-7"></path>
        <filter x="-16.4%" y="-12.0%" width="132.7%" height="135.3%" filterUnits="objectBoundingBox" id="filter-8">
            <feOffset dx="0" dy="4" in="SourceAlpha" result="shadowOffsetOuter1"></feOffset>
            <feGaussianBlur stdDeviation="3.5" in="shadowOffsetOuter1" result="shadowBlurOuter1"></feGaussianBlur>
            <feColorMatrix values="0 0 0 0 0.922061714   0 0 0 0 0.884684781   0 0 0 0 0.923743207  0 0 0 1 0" type="matrix" in="shadowBlurOuter1"></feColorMatrix>
        </filter>
    </defs>
    <g id="bed" stroke="none" stroke-width="1" fill="none" fill-rule="evenodd">
        <g transform="translate(22.000000, 3.000000)">
            <path d="M162.124626,57.3808088 L36.2103913,163.573193 C22.5125889,175.125519 14.6082474,192.131928 14.6082474,210.050801 L14.6082474,236.007855 C14.6082474,266.770421 37.9497462,292.513041 68.5654323,295.515573 L264.45857,314.727144 C291.605004,317.389441 318.237164,306.036868 335.114385,284.608473 L419.019065,178.077746 C430.018846,164.111723 436,146.851034 436,129.07338 L436,107.091016 C436,79.1234835 414.622413,55.7954819 386.761146,53.3597835 L220.667969,38.8395223 C199.464003,36.985821 178.395488,43.6584389 162.124626,57.3808088 Z" fill="#FAF5FB" fill-rule="evenodd"></path>
            <g id="Rectangle" filter="url(#filter-1)" stroke-width="1" fill-rule="evenodd" transform="translate(0.000000, 48.299296)">
                <mask id="mask-3" fill="white">
                    <use xlink:href="#path-2"></use>
                </mask>
                <g id="Mask"></g>
                <rect stroke="#979797" fill="url(#linearGradient-4)" mask="url(#mask-3)" x="-21.3505155" y="-12.3556338" width="441.618557" height="245.989437"></rect>
                <path d="M172.809798,6.95343095 C205.822272,35.167953 233.752723,57.7842826 256.601153,74.8024197 C279.449583,91.8205568 312.248178,114.436886 354.996937,142.651408 L411.278351,171.855634 L414.077655,59.9824551 L177.637234,0.173937259 L172.809798,6.95343095 Z" id="Path-2" fill="#ECE6ED" mask="url(#mask-3)"></path>
            </g>
            <g id="pillow">
                <use fill="black" fill-opacity="1" filter="url(#filter-6)" xlink:href="#path-5"></use>
                <use fill="#F1EBF5" fill-rule="evenodd" xlink:href="#path-5"></use>
            </g>
            <g id="pillow">
                <use fill="black" fill-opacity="1" filter="url(#filter-8)" xlink:href="#path-7"></use>
                <use fill="#F1EBF5" fill-rule="evenodd" xlink:href="#path-7"></use>
            </g>
        </g>
    </g>
</svg>