<?xml version="1.0" encoding="UTF-8"?>
<svg width="1104px" height="517px" viewBox="0 0 1104 517" version="1.1" xmlns="http://www.w3.org/2000/svg" xmlns:xlink="http://www.w3.org/1999/xlink">
    <!-- Generator: Sketch 61.2 (89653) - https://sketch.com -->
    <title>bedroom-cloud</title>
    <desc>Created with Sketch.</desc>
    <defs>
        <linearGradient x1="50%" y1="54.5034935%" x2="44.5199805%" y2="40.09649%" id="linearGradient-1">
            <stop stop-color="#FFE2FF" offset="0%"></stop>
            <stop stop-color="#EFB1FF" offset="100%"></stop>
        </linearGradient>
    </defs>
    <g id="bedroom-cloud" stroke="none" stroke-width="1" fill="none" fill-rule="evenodd">
        <path d="M649.5,0 C694.41818,0 731.607771,28.28365 738.022015,65.151765 C750.633839,51.1313242 771.231558,42 794.5,42 C832.88379,42 864,66.8481964 864,97.5 C864,103.417645 862.840229,109.118976 860.692296,114.466952 C878.302773,104.053818 899.367417,98 922,98 C983.855892,98 1034,143.21924 1034,199 C1034,224.176193 1023.78517,247.200904 1006.88908,264.887612 C1061.70651,271.451094 1104,313.771549 1104,365 C1104,420.78076 1053.85589,466 992,466 C980.314886,466 969.047725,464.386284 958.457607,461.392498 C929.521293,494.708661 876.773366,517 816.5,517 C766.293412,517 721.308409,501.532979 690.956854,477.110466 C669.898037,501.723152 640.510903,517 608,517 C573.982484,517 543.384968,500.274432 522.166561,473.630036 C518.627592,473.525395 515.102789,473.392434 511.591575,473.23572 C482.864928,500.107644 441.26994,517 395,517 C341.294504,517 293.887212,494.242224 265.579197,459.530124 C237.788792,473.00303 203.109418,481 165.5,481 C74.0968739,481 0,433.766041 0,375.5 C0,351.077819 13.0178049,328.593823 34.8714205,310.713877 C26.0769133,299.030712 21,285.253054 21,270.5 C21,228.250217 62.6375183,194 114,194 C125.053985,194 135.657534,195.586387 145.492534,198.497488 C143.210787,191.466626 142,184.095042 142,176.5 C142,127.6228 192.144108,88 254,88 C270.348796,88 285.879444,90.7679267 299.882346,95.743073 C319.565331,45.8553935 373.96899,10 438,10 C489.363931,10 534.532843,33.0722685 560.557074,67.9523714 C565.523637,29.7264365 603.450401,0 649.5,0 Z M825.967772,146.995941 L825.478643,147.195279 C824.951921,147.405069 824.421396,147.609676 823.887171,147.809016 C824.278285,148.00626 824.661154,148.20886 825.043156,148.411877 C825.344458,147.938644 825.654053,147.466046 825.967772,146.995941 Z" id="bedroom-clo;ud" fill="url(#linearGradient-1)"></path>
    </g>
</svg>