<?xml version="1.0" encoding="UTF-8"?>
<svg width="1104px" height="768px" viewBox="0 0 1104 768" version="1.1" xmlns="http://www.w3.org/2000/svg" xmlns:xlink="http://www.w3.org/1999/xlink">
    <!-- Generator: Sketch 61.2 (89653) - https://sketch.com -->
    <title>Artboard</title>
    <desc>Created with Sketch.</desc>
    <defs>
        <linearGradient x1="50%" y1="54.5034935%" x2="44.5199805%" y2="40.09649%" id="linearGradient-1">
            <stop stop-color="#FFE2FF" offset="0%"></stop>
            <stop stop-color="#EFB1FF" offset="100%"></stop>
        </linearGradient>
        <path d="M65.5419408,2.01414107 L133.490867,10.9996792 C142.939232,12.249127 150,20.3050779 150,29.8356973 L150,96.4449746 C150,104.550504 146.07031,112.152986 139.45766,116.840466 L115.928686,133.519344 C110.976266,137.029944 104.836795,138.440306 98.848804,137.442943 L15.7659502,123.604616 C8.76993024,122.439355 3.54615559,116.533404 3.24402392,109.447443 L0.480956216,44.6446038 C0.182457602,37.6438496 3.56951279,30.9974426 9.40919616,27.1247486 L37.5070216,8.49115624 C45.7626771,3.01626573 55.7213639,0.715472018 65.5419408,2.01414107 Z" id="path-2"></path>
        <path d="M202.802739,1.99408083 C223.363125,-2.07132892 244.715945,1.3887059 265.672548,1.08601843 L265.672548,1.08601843 L270.8961,2.63271813 C298.969961,7.18626611 300.381672,2.62521687 299.806579,35.8194053 C299.795635,36.4510729 299.797343,37.091995 299.808827,37.740521 C311.988392,25.1813876 322.615807,27.574183 340.560612,27.6572844 L341.14799,27.659 L342.079643,28.0663396 C354.561701,33.708609 361.610194,42.4575342 364.132022,51.8719916 L381.142589,53.3597835 C409.003857,55.7954819 430.381443,79.1234835 430.381443,107.091016 L430.381443,107.091016 L430.381443,129.07338 C430.381443,146.851034 424.40029,164.111723 413.400509,178.077746 L413.400509,178.077746 L329.495829,284.608473 C312.618607,306.036868 285.986448,317.389441 258.840013,314.727144 L258.840013,314.727144 L62.9468756,295.515573 C32.3311895,292.513041 8.98969072,266.770421 8.98969072,236.007855 L8.98969072,236.007855 L8.98898821,219.000897 C2.03751166,213.529285 -1.41476639,204.279246 0.939243885,195.164466 L0.939243885,195.164466 L7.14955645,171.117998 C8.34642864,166.483683 10.9592906,162.338215 14.6239856,159.259352 L14.6239856,159.259352 L128.317707,63.7405318 C137.661635,55.8903101 149.693838,52.243954 161.624677,53.4059528 C170.88107,46.8036531 181.389452,42.2855611 192.423071,40.0829165 C193.159092,29.4097809 195.242871,18.3656411 196.50852,14.7618374 C198.080745,10.2850927 198.146391,2.91478156 202.802739,1.99408083 Z M339.454004,26.9577465 L347.234921,27.5618047 C345.365781,27.6281416 343.571211,27.6557238 341.843745,27.6590813 L341.14799,27.659 L340.785825,27.5009511 C340.348231,27.3161534 339.904302,27.1350531 339.454004,26.9577465 Z" id="path-4"></path>
        <filter x="-7.5%" y="-13.8%" width="115.0%" height="127.5%" filterUnits="objectBoundingBox" id="filter-6">
            <feOffset dx="0" dy="8" in="SourceAlpha" result="shadowOffsetOuter1"></feOffset>
            <feGaussianBlur stdDeviation="3.5" in="shadowOffsetOuter1" result="shadowBlurOuter1"></feGaussianBlur>
            <feColorMatrix values="0 0 0 0 0.922061714   0 0 0 0 0.884684781   0 0 0 0 0.923743207  0 0 0 1 0" type="matrix" in="shadowBlurOuter1" result="shadowMatrixOuter1"></feColorMatrix>
            <feMerge>
                <feMergeNode in="shadowMatrixOuter1"></feMergeNode>
                <feMergeNode in="SourceGraphic"></feMergeNode>
            </feMerge>
        </filter>
        <path d="M133.936264,15.441236 L20.2425423,110.960057 C16.5778473,114.038919 13.9649853,118.184387 12.7681131,122.818703 L6.55780059,146.86517 C3.38142422,159.16417 10.7767715,171.709441 23.0757711,174.885817 C23.9298886,175.106404 24.7959893,175.27767 25.6697804,175.398766 L288.337341,211.801123 C296.623799,212.94952 304.880362,209.508068 309.898094,202.814298 L354.996937,142.651408 L354.996937,142.651408 L379.939374,149.63026 C385.789814,151.267203 391.859537,147.851489 393.49648,142.001049 C393.796311,140.929454 393.931808,139.818569 393.898347,138.706322 L393.281295,118.195647 C392.82727,103.103944 387.36839,88.5915246 377.763604,76.9419014 C368.11826,65.2430853 355.114988,56.7861499 340.50997,52.7132622 L174.970649,6.54946745 C160.663296,2.55958922 145.308689,5.88678937 133.936264,15.441236 Z" id="path-7"></path>
        <linearGradient x1="57.807765%" y1="62.0386918%" x2="70.2563111%" y2="40.4557328%" id="linearGradient-9">
            <stop stop-color="#FF82F7" offset="0%"></stop>
            <stop stop-color="#FFA2A2" offset="15.7175%"></stop>
            <stop stop-color="#FFF6A6" offset="36.0924332%"></stop>
            <stop stop-color="#91FFE2" offset="52.5941069%"></stop>
            <stop stop-color="#6CB7FF" offset="68.5723413%"></stop>
            <stop stop-color="#C551FF" offset="100%"></stop>
        </linearGradient>
        <path d="M265.672548,1.08601843 C244.715945,1.3887059 223.363125,-2.07132892 202.802739,1.99408083 C198.146391,2.91478156 198.080745,10.2850927 196.50852,14.7618374 C193.961505,22.0141958 188.101208,59.3986136 196.575905,63.2558622 C209.419802,69.1017473 224.21266,69.2445476 238.24453,70.7523664 C241.677296,71.1212403 293.074708,71.1091362 295.651197,68.4198435 C303.231157,60.5080152 299.616816,46.7724235 299.806579,35.8194053 C300.381672,2.62521687 298.969961,7.18626611 270.8961,2.63271813 L265.672548,1.08601843 Z" id="path-10"></path>
        <filter x="-11.5%" y="-12.0%" width="123.1%" height="135.2%" filterUnits="objectBoundingBox" id="filter-11">
            <feOffset dx="0" dy="4" in="SourceAlpha" result="shadowOffsetOuter1"></feOffset>
            <feGaussianBlur stdDeviation="3.5" in="shadowOffsetOuter1" result="shadowBlurOuter1"></feGaussianBlur>
            <feColorMatrix values="0 0 0 0 0.922061714   0 0 0 0 0.884684781   0 0 0 0 0.923743207  0 0 0 1 0" type="matrix" in="shadowBlurOuter1"></feColorMatrix>
        </filter>
        <path d="M347.234921,27.5618047 C323.870663,28.3910169 312.15808,23.1647834 297.514706,40.2625648 C279.409595,61.4023114 290.865119,95.9610319 319.240618,97.6247835 C365.816279,100.355672 384.48383,44.6884114 339.454004,26.9577465" id="path-12"></path>
        <filter x="-16.4%" y="-12.0%" width="132.7%" height="135.3%" filterUnits="objectBoundingBox" id="filter-13">
            <feOffset dx="0" dy="4" in="SourceAlpha" result="shadowOffsetOuter1"></feOffset>
            <feGaussianBlur stdDeviation="3.5" in="shadowOffsetOuter1" result="shadowBlurOuter1"></feGaussianBlur>
            <feColorMatrix values="0 0 0 0 0.922061714   0 0 0 0 0.884684781   0 0 0 0 0.923743207  0 0 0 1 0" type="matrix" in="shadowBlurOuter1"></feColorMatrix>
        </filter>
        <path d="M114.596616,16.6310447 C114.671201,16.8620036 114.742278,17.0940806 114.809823,17.3271956 C125.266687,53.416436 119.118858,79.9966359 96.3663374,97.0677953 C89.572993,102.164825 82.3191008,105.888451 74.6046608,108.238676 C75.0017712,121.189482 76.7053184,130.446046 79.7149063,136.009224 C82.8358481,141.778237 88.8980273,146.416182 97.9014441,149.923057 L98.4801232,150.145368 C100.545947,150.928092 101.586105,153.237296 100.803381,155.30312 C100.433614,156.279037 99.6970753,157.071795 98.7509425,157.51222 C85.6854099,163.594232 74.3390635,166.635238 64.7119034,166.635238 C54.7877072,166.635238 44.9338864,163.403683 35.1504409,156.940573 L34.5390642,156.532425 C32.7076648,155.296996 32.2245354,152.810841 33.4599644,150.979441 C33.7516165,150.547097 34.1249998,150.175957 34.559095,149.886917 C45.8443287,142.372692 53.2285982,135.580127 56.7119034,129.509224 C59.1151542,125.320701 61.0421259,119.069481 62.4928184,110.755563 C46.7466065,112.594942 29.2941249,109.346338 10.1359204,101.011087 L9.0988242,100.55564 C2.03003654,97.4226159 -1.16053007,89.1524133 1.9724942,82.0836256 C2.15335193,81.6755711 2.35362017,81.2763989 2.5726127,80.8874769 C10.6937093,66.4647337 16.780318,56.8352487 20.832439,51.9990222 C37.6938717,31.8748183 45.4870912,26.7057764 56.7119034,17.1879348 C65.4647532,9.76614148 74.4330361,4.51026977 83.6167521,1.42031967 L84.382561,1.16783903 C96.9959882,-2.90549554 110.523281,4.01761744 114.596616,16.6310447 Z" id="path-14"></path>
        <filter x="-9.7%" y="-27.6%" width="119.4%" height="155.1%" filterUnits="objectBoundingBox" id="filter-16">
            <feOffset dx="0" dy="3" in="SourceAlpha" result="shadowOffsetOuter1"></feOffset>
            <feGaussianBlur stdDeviation="4" in="shadowOffsetOuter1" result="shadowBlurOuter1"></feGaussianBlur>
            <feColorMatrix values="0 0 0 0 0   0 0 0 0 0   0 0 0 0 0  0 0 0 0.230004371 0" type="matrix" in="shadowBlurOuter1" result="shadowMatrixOuter1"></feColorMatrix>
            <feMerge>
                <feMergeNode in="shadowMatrixOuter1"></feMergeNode>
                <feMergeNode in="SourceGraphic"></feMergeNode>
            </feMerge>
        </filter>
    </defs>
    <g id="Artboard" stroke="none" stroke-width="1" fill="none" fill-rule="evenodd">
        <path d="M649.5,251 C694.41818,251 731.607771,279.28365 738.022015,316.151765 C750.633839,302.131324 771.231558,293 794.5,293 C832.88379,293 864,317.848196 864,348.5 C864,354.417645 862.840229,360.118976 860.692296,365.466952 C878.302773,355.053818 899.367417,349 922,349 C983.855892,349 1034,394.21924 1034,450 C1034,475.176193 1023.78517,498.200904 1006.88908,515.887612 C1061.70651,522.451094 1104,564.771549 1104,616 C1104,671.78076 1053.85589,717 992,717 C980.314886,717 969.047725,715.386284 958.457607,712.392498 C929.521293,745.708661 876.773366,768 816.5,768 C766.293412,768 721.308409,752.532979 690.956854,728.110466 C669.898037,752.723152 640.510903,768 608,768 C573.982484,768 543.384968,751.274432 522.166561,724.630036 C518.627592,724.525395 515.102789,724.392434 511.591575,724.23572 C482.864928,751.107644 441.26994,768 395,768 C341.294504,768 293.887212,745.242224 265.579197,710.530124 C237.788792,724.00303 203.109418,732 165.5,732 C74.0968739,732 0,684.766041 0,626.5 C0,602.077819 13.0178049,579.593823 34.8714205,561.713877 C26.0769133,550.030712 21,536.253054 21,521.5 C21,479.250217 62.6375183,445 114,445 C125.053985,445 135.657534,446.586387 145.492534,449.497488 C143.210787,442.466626 142,435.095042 142,427.5 C142,378.6228 192.144108,339 254,339 C270.348796,339 285.879444,341.767927 299.882346,346.743073 C319.565331,296.855393 373.96899,261 438,261 C489.363931,261 534.532843,284.072268 560.557074,318.952371 C565.523637,280.726436 603.450401,251 649.5,251 Z M825.967772,397.995941 L825.478643,398.195279 C824.951921,398.405069 824.421396,398.609676 823.887171,398.809016 C824.278285,399.00626 824.661154,399.20886 825.043156,399.411877 C825.344458,398.938644 825.654053,398.466046 825.967772,397.995941 Z" id="bedroom-clo;ud" fill="url(#linearGradient-1)"></path>
        <ellipse id="rug" cx="606.5" cy="546" rx="232.5" ry="107"></ellipse>
        <g id="Nightstand" transform="translate(334.000000, 245.000000)">
            <g id="Path-22">
                <mask id="mask-3" fill="white">
                    <use xlink:href="#path-2"></use>
                </mask>
                <use id="Mask" fill="#FAF5FB" xlink:href="#path-2"></use>
                <polygon fill="#D0C0DD" mask="url(#mask-3)" points="94 125.442175 91 52.5 159 1.42108547e-14 159 65.5"></polygon>
                <path d="M11.0290806,57.286828 L11.0290806,75.9354014 C11.0290806,78.0506215 12.6758948,79.8002006 14.7872456,79.9280841 L77.7725121,83.7430739 C79.9776099,83.8766357 81.8734681,82.197324 82.0070299,79.9922262 C82.0119069,79.9117067 82.0143471,79.8310582 82.0143471,79.7503911 L82.0143471,61.6522148 C82.0143471,59.5504105 80.3876902,57.8071109 78.2909159,57.6617876 L15.3056494,53.2964007 C13.1017973,53.143656 11.1913981,54.8064071 11.0386534,57.0102592 C11.0322734,57.1023108 11.0290806,57.1945555 11.0290806,57.286828 Z" id="Path-21" stroke="#979797" mask="url(#mask-3)"></path>
                <path d="M11.0290806,57.286828 L11.0290806,75.9354014 C11.0290806,78.0506215 12.6758948,79.8002006 14.7872456,79.9280841 L77.7725121,83.7430739 C79.9776099,83.8766357 81.8734681,82.197324 82.0070299,79.9922262 C82.0119069,79.9117067 82.0143471,79.8310582 82.0143471,79.7503911 L82.0143471,61.6522148 C82.0143471,59.5504105 80.3876902,57.8071109 78.2909159,57.6617876 L15.3056494,53.2964007 C13.1017973,53.143656 11.1913981,54.8064071 11.0386534,57.0102592 C11.0322734,57.1023108 11.0290806,57.1945555 11.0290806,57.286828 Z" id="Path-21" stroke="#D0C0DD" mask="url(#mask-3)"></path>
                <path d="M11.0290806,88.286828 L11.0290806,106.935401 C11.0290806,109.050621 12.6758948,110.800201 14.7872456,110.928084 L77.7725121,114.743074 C79.9776099,114.876636 81.8734681,113.197324 82.0070299,110.992226 C82.0119069,110.911707 82.0143471,110.831058 82.0143471,110.750391 L82.0143471,92.6522148 C82.0143471,90.5504105 80.3876902,88.8071109 78.2909159,88.6617876 L15.3056494,84.2964007 C13.1017973,84.143656 11.1913981,85.8064071 11.0386534,88.0102592 C11.0322734,88.1023108 11.0290806,88.1945555 11.0290806,88.286828 Z" id="Path-21" stroke="#D0C0DD" mask="url(#mask-3)"></path>
            </g>
        </g>
        <g id="bed" transform="translate(387.000000, 224.000000)">
            <g id="bed-2-+-Rectangle-+-pillow-+-pillow-Mask" transform="translate(5.618557, 0.000000)">
                <mask id="mask-5" fill="white">
                    <use xlink:href="#path-4"></use>
                </mask>
                <use id="Mask" fill="#FAF5FB" xlink:href="#path-4"></use>
                <path d="M156.506069,57.3808088 L30.5918346,163.573193 C16.8940322,175.125519 8.98969072,192.131928 8.98969072,210.050801 L8.98969072,236.007855 C8.98969072,266.770421 32.3311895,292.513041 62.9468756,295.515573 L258.840013,314.727144 C285.986448,317.389441 312.618607,306.036868 329.495829,284.608473 L413.400509,178.077746 C424.40029,164.111723 430.381443,146.851034 430.381443,129.07338 L430.381443,107.091016 C430.381443,79.1234835 409.003857,55.7954819 381.142589,53.3597835 L215.049413,38.8395223 C193.845446,36.985821 172.776932,43.6584389 156.506069,57.3808088 Z" id="bed-2" fill="#FAF5FB" mask="url(#mask-5)"></path>
                <g id="Rectangle" filter="url(#filter-6)" mask="url(#mask-5)">
                    <g transform="translate(-5.618557, 48.299296)">
                        <mask id="mask-8" fill="white">
                            <use xlink:href="#path-7"></use>
                        </mask>
                        <g id="Mask" stroke="none" fill="none"></g>
                        <rect id="Rectangle" stroke="#979797" stroke-width="1" fill="url(#linearGradient-9)" fill-rule="evenodd" mask="url(#mask-8)" x="-21.3505155" y="-12.3556338" width="441.618557" height="245.989437"></rect>
                        <path d="M172.809798,6.95343095 C205.822272,35.167953 233.752723,57.7842826 256.601153,74.8024197 C279.449583,91.8205568 312.248178,114.436886 354.996937,142.651408 L411.278351,171.855634 L414.077655,59.9824551 L177.637234,0.173937259 L172.809798,6.95343095 Z" id="Path-2" stroke="none" fill="#ECE6ED" fill-rule="evenodd" mask="url(#mask-8)"></path>
                    </g>
                </g>
                <g id="pillow" mask="url(#mask-5)">
                    <use fill="black" fill-opacity="1" filter="url(#filter-11)" xlink:href="#path-10"></use>
                    <use fill="#F1EBF5" fill-rule="evenodd" xlink:href="#path-10"></use>
                </g>
                <g id="pillow" mask="url(#mask-5)">
                    <use fill="black" fill-opacity="1" filter="url(#filter-13)" xlink:href="#path-12"></use>
                    <use fill="#F1EBF5" fill-rule="evenodd" xlink:href="#path-12"></use>
                </g>
            </g>
        </g>
        <g id="desk" transform="translate(34.000000, 413.000000)">
            <path d="M268.196122,157.409793 L142,140.525703 L142,140.525703 L142,23 L253.889269,34.6076121 C268.158048,36.0878832 279,48.1127874 279,62.458144 L279,147.355025 C279,150.199856 277.846764,152.923171 275.803741,154.902846 C273.785205,156.858793 270.98203,157.782527 268.196122,157.409793 Z" id="Path-8" fill="#D0C0DD"></path>
            <path d="M90.0651599,13.1408211 L34.6488884,39.6842711 C13.4744365,49.8264729 2.55464701e-14,71.2208761 0,94.6989866 L0,186.606321 C7.72425798e-15,191.659457 3.76971363,195.918556 8.7854398,196.532289 L145.878069,213.307202 C149.571232,213.759105 153.315801,213.116716 156.647181,211.459738 L158.667768,210.454729 C163.034639,208.282714 165.795591,203.825843 165.795591,198.948628 L165.795591,109.683696 C165.795591,84.9931878 180.920847,62.8234937 203.910263,53.8174955 L235.447748,41.4628296 C249.332071,36.0237096 264.996817,42.8698992 270.435937,56.754222 C271.665208,59.8921567 272.296146,63.2324949 272.296146,66.6026199 L272.296146,158.991401 L272.296146,158.991401 L274.677625,157.398046 C280.503099,153.500446 284,146.953401 284,139.944305 L284,61.3458192 C284,39.9797275 268.312041,21.8545255 247.166817,18.7903216 L147.605137,4.36260587 C127.979028,1.5185405 107.950452,4.57407101 90.0651599,13.1408211 Z" id="Path-7" fill="#FAF5FB"></path>
        </g>
        <g id="Path-29" transform="translate(254.000000, 463.000000)">
            <mask id="mask-15" fill="white">
                <use xlink:href="#path-14"></use>
            </mask>
            <use id="Mask" fill="#FFCC9C" xlink:href="#path-14"></use>
            <path d="M79.0999008,68.1943186 C86.9660614,69.7073246 93.7817658,84.9557017 86.5730872,90.0243595 C72.0256885,100.253111 61.9224794,104.057636 42.6807709,101.006867 C33.4803817,99.5481468 24.5781137,96.1145987 16.237799,91.9656015 C13.9263472,90.81574 12.4661136,88.1219278 11.7777061,85.6337384 C7.32299894,69.5325838 18.3064457,66.0230894 31.0849263,64.4845217 C53.0530289,64.4845217 47.017746,62.0235199 79.0999008,68.1943186 Z" id="Path-30" fill="#FFAC5B" mask="url(#mask-15)"></path>
            <path d="M124.768166,10 L129.12281,183.695776 L29.7119034,194.324702 L1.76816632,121 L-6,94.2196505 C33.3000558,84.9610744 58.2227779,75.0579489 68.7681663,64.510274 C75.0412566,58.2358236 89.8512158,46.6599778 96.3379019,22.7080681 C98.0946243,16.2214192 97.2344721,8.6520632 93.7574453,-1.42108547e-14 L124.768166,10 Z" fill="#FAF5FB" mask="url(#mask-15)"></path>
        </g>
        <g id="Flute" filter="url(#filter-16)" transform="translate(572.000000, 552.000000)">
            <path d="M206.980894,1.96154621 L6.70037145,62.6918569 C3.55266368,63.6463245 1.77469123,66.9717947 2.72915884,70.1195025 C2.82201174,70.4257191 2.93939199,70.7239545 3.0801597,71.0113127 C4.85338449,74.63111 8.99835018,76.4206833 12.8489371,75.2289454 L215.492242,12.5118328 C217.908767,11.7639302 219.261452,9.19865473 218.51355,6.78212978 C218.34161,6.22657927 218.065445,5.70885476 217.699814,5.25662294 C215.130597,2.07888104 210.891495,0.775749233 206.980894,1.96154621 Z" id="Path-28" fill="#EEE9EF"></path>
            <path d="M196.396098,1.87815046 C184.373182,3.56474134 174.117114,17.0880854 196.396098,13.3727972 C209.868964,11.1260349 208.193387,3.2177855 200.118506,1.87815046 L196.396098,1.87815046 Z" id="Path-40" stroke="#A592A8" fill="#E6E6E6"></path>
            <path d="M194.706333,6.15951697 C187.500422,7.48448535 189.291081,10.3484294 194.706333,9.58826891 C200.121584,8.82810845 201.912243,4.83454858 194.706333,6.15951697 Z" id="Path-41" fill="#9B879E"></path>
            <path d="M52.4498137,52.8922911 C54.9350951,52.8922911 56.9498137,53.7877216 56.9498137,54.8922911 C56.9498137,55.9968606 54.9350951,56.8922911 52.4498137,56.8922911 C49.9645324,56.8922911 47.9498137,55.9968606 47.9498137,54.8922911 C47.9498137,53.7877216 49.9645324,52.8922911 52.4498137,52.8922911 Z M64.4498137,48.8922911 C66.9350951,48.8922911 68.9498137,49.7877216 68.9498137,50.8922911 C68.9498137,51.9968606 66.9350951,52.8922911 64.4498137,52.8922911 C61.9645324,52.8922911 59.9498137,51.9968606 59.9498137,50.8922911 C59.9498137,49.7877216 61.9645324,48.8922911 64.4498137,48.8922911 Z M76.4498137,44.8922911 C78.9350951,44.8922911 80.9498137,45.7877216 80.9498137,46.8922911 C80.9498137,47.9968606 78.9350951,48.8922911 76.4498137,48.8922911 C73.9645324,48.8922911 71.9498137,47.9968606 71.9498137,46.8922911 C71.9498137,45.7877216 73.9645324,44.8922911 76.4498137,44.8922911 Z M88.4498137,40.8922911 C90.9350951,40.8922911 92.9498137,41.7877216 92.9498137,42.8922911 C92.9498137,43.9968606 90.9350951,44.8922911 88.4498137,44.8922911 C85.9645324,44.8922911 83.9498137,43.9968606 83.9498137,42.8922911 C83.9498137,41.7877216 85.9645324,40.8922911 88.4498137,40.8922911 Z M100.449814,37.8922911 C102.935095,37.8922911 104.949814,38.7877216 104.949814,39.8922911 C104.949814,40.9968606 102.935095,41.8922911 100.449814,41.8922911 C97.9645324,41.8922911 95.9498137,40.9968606 95.9498137,39.8922911 C95.9498137,38.7877216 97.9645324,37.8922911 100.449814,37.8922911 Z M112.449814,33.8922911 C114.935095,33.8922911 116.949814,34.7877216 116.949814,35.8922911 C116.949814,36.9968606 114.935095,37.8922911 112.449814,37.8922911 C109.964532,37.8922911 107.949814,36.9968606 107.949814,35.8922911 C107.949814,34.7877216 109.964532,33.8922911 112.449814,33.8922911 Z M124.449814,29.8922911 C126.935095,29.8922911 128.949814,30.7877216 128.949814,31.8922911 C128.949814,32.9968606 126.935095,33.8922911 124.449814,33.8922911 C121.964532,33.8922911 119.949814,32.9968606 119.949814,31.8922911 C119.949814,30.7877216 121.964532,29.8922911 124.449814,29.8922911 Z M136.449814,26.8922911 C138.935095,26.8922911 140.949814,27.7877216 140.949814,28.8922911 C140.949814,29.9968606 138.935095,30.8922911 136.449814,30.8922911 C133.964532,30.8922911 131.949814,29.9968606 131.949814,28.8922911 C131.949814,27.7877216 133.964532,26.8922911 136.449814,26.8922911 Z M148.449814,22.8922911 C150.935095,22.8922911 152.949814,23.7877216 152.949814,24.8922911 C152.949814,25.9968606 150.935095,26.8922911 148.449814,26.8922911 C145.964532,26.8922911 143.949814,25.9968606 143.949814,24.8922911 C143.949814,23.7877216 145.964532,22.8922911 148.449814,22.8922911 Z" id="Combined-Shape" fill="#9B879E"></path>
        </g>
    </g>
</svg>