<?xml version="1.0" encoding="UTF-8"?>
<svg width="1053px" height="768px" viewBox="0 0 1053 768" version="1.1" xmlns="http://www.w3.org/2000/svg" xmlns:xlink="http://www.w3.org/1999/xlink">
    <!-- Generator: Sketch 61.2 (89653) - https://sketch.com -->
    <title>Artboard</title>
    <desc>Created with Sketch.</desc>
    <defs>
        <linearGradient x1="50%" y1="54.9502935%" x2="44.5199805%" y2="39.1139443%" id="linearGradient-1">
            <stop stop-color="#FFE2FF" offset="0%"></stop>
            <stop stop-color="#EFB1FF" offset="100%"></stop>
        </linearGradient>
        <path d="M65.5419408,2.01414107 L133.490867,10.9996792 C142.939232,12.249127 150,20.3050779 150,29.8356973 L150,96.4449746 C150,104.550504 146.07031,112.152986 139.45766,116.840466 L115.928686,133.519344 C110.976266,137.029944 104.836795,138.440306 98.848804,137.442943 L15.7659502,123.604616 C8.76993024,122.439355 3.54615559,116.533404 3.24402392,109.447443 L0.480956216,44.6446038 C0.182457602,37.6438496 3.56951279,30.9974426 9.40919616,27.1247486 L37.5070216,8.49115624 C45.7626771,3.01626573 55.7213639,0.715472018 65.5419408,2.01414107 Z" id="path-2"></path>
        <path d="M144.548985,18.5843841 L22.604091,121.405261 C8.90310654,132.957588 0.996627503,149.966049 0.996627503,167.887356 L0.996627503,192.584391 C0.996627503,222.634237 23.7977011,247.780269 53.704137,250.712562 L244.124066,269.38303 C271.266731,272.044339 297.895238,260.694745 314.772497,239.271277 L395.736965,136.497502 C406.740219,122.530314 412.723432,105.266831 412.723432,87.4861122 L412.723432,66.653608 C412.723432,39.3340236 391.840825,16.5466235 364.624996,14.1679034 L203.083724,0.0488597477 C181.883438,-1.8040894 160.818565,4.86628226 144.548985,18.5843841 Z" id="path-4"></path>
        <path d="M150.087408,14.6632211 C153.269911,14.8509123 156.454476,15.3479718 159.59722,16.1639054 L160.453262,16.3943458 L319.418722,60.7146003 C333.691787,64.6939923 346.398686,72.9556324 355.822733,84.3833832 C365.048324,95.5704826 370.358894,109.458149 370.957634,123.928739 L370.984398,124.677727 L371.533186,142.915093 C371.56992,144.135865 371.42103,145.355138 371.091601,146.531255 C369.322638,152.846759 362.84277,156.575795 356.516792,154.9832 L356.205824,154.900573 L333.578237,148.570883 L290.496924,206.028997 C285.081217,213.251997 276.226684,217.025215 267.282749,215.953191 L266.820069,215.893413 L14.8900203,180.987245 C13.9319844,180.854505 12.9823709,180.666869 12.0458735,180.425266 C7.75079737,179.317195 4.00026997,177.169134 0.994564844,174.320519 L0.994564844,170.62213 C0.994564844,151.189338 9.47483963,132.73436 24.1938597,120.069198 L24.7038823,119.63477 L142.052468,20.6893849 C144.285836,18.8062647 146.601583,17.0440689 148.989701,15.4059655 L150.087408,14.6632211 Z" id="path-6"></path>
        <filter x="-4.6%" y="-6.9%" width="110.3%" height="118.9%" filterUnits="objectBoundingBox" id="filter-7">
            <feOffset dx="2" dy="5" in="SourceAlpha" result="shadowOffsetOuter1"></feOffset>
            <feGaussianBlur stdDeviation="5.5" in="shadowOffsetOuter1" result="shadowBlurOuter1"></feGaussianBlur>
            <feColorMatrix values="0 0 0 0 0.817099865   0 0 0 0 0.753334956   0 0 0 0 0.868348053  0 0 0 1 0" type="matrix" in="shadowBlurOuter1"></feColorMatrix>
        </filter>
        <path d="M130.449631,15.4319018 L19.9085965,108.280454 C16.2431998,111.359191 13.6297236,115.504849 12.4324766,120.13954 L6.55739832,142.88269 C3.38033035,155.181511 10.7749722,167.727198 23.0737931,170.904266 C23.9285505,171.12507 24.7953117,171.296477 25.669774,171.417638 L281.418231,206.852865 C289.703558,208.000839 297.958955,204.560261 302.976727,197.867992 L346.854805,139.347222 L346.854805,139.347222 L370.89525,146.072136 C376.745788,147.708726 382.815306,144.292646 384.451897,138.442108 C384.751609,137.370685 384.887046,136.259993 384.853582,135.147943 L384.261146,115.460054 C383.817497,100.716672 378.483706,86.539402 369.099301,75.1597222 C359.67514,63.7318323 346.97114,55.4711079 332.702772,51.4930253 L171.477471,6.54271755 C157.172553,2.55444483 141.821022,5.88054216 130.449631,15.4319018 Z" id="path-8"></path>
        <linearGradient x1="19.3676451%" y1="67.521799%" x2="58.7570483%" y2="30.7593991%" id="linearGradient-10">
            <stop stop-color="#FF82F7" offset="0%"></stop>
            <stop stop-color="#FFA2A2" offset="15.7175%"></stop>
            <stop stop-color="#FFF6A6" offset="36.0924332%"></stop>
            <stop stop-color="#91FFE2" offset="52.5941069%"></stop>
            <stop stop-color="#6CB7FF" offset="68.5723413%"></stop>
            <stop stop-color="#C551FF" offset="100%"></stop>
        </linearGradient>
        <path d="M130.449631,15.4319018 C140.22395,7.22199688 152.938926,3.61151668 165.402238,5.29211637 L165.140069,5.45875299 C199.866177,33.9088303 228.391422,56.4458448 250.715806,73.0697966 C272.816945,89.5275089 304.446568,111.344921 345.604673,138.522033 L346.854805,139.347222 L302.976727,197.867992 C297.958955,204.560261 289.703558,208.000839 281.418231,206.852865 L281.418231,206.852865 L25.669774,171.417638 C24.7953117,171.296477 23.9285505,171.12507 23.0737931,170.904266 C10.7749722,167.727198 3.38033035,155.181511 6.55739832,142.88269 L6.55739832,142.88269 L12.4324766,120.13954 C13.6297236,115.504849 16.2431998,111.359191 19.9085965,108.280454 L19.9085965,108.280454 Z" id="path-11"></path>
        <path d="M118.550246,17.8157155 C118.570323,17.8816526 118.590117,17.9476758 118.609625,18.0137835 C129.813082,55.9782178 123.552431,83.8987483 99.827673,101.775375 C92.8050597,107.06692 85.3063707,110.932696 77.3316061,113.372702 C77.7412175,126.817587 79.5023316,136.428287 82.6137225,142.204202 C85.9626104,148.421 92.5874012,153.372653 102.488095,157.059161 L103.074271,157.274544 C105.151081,158.027662 106.224145,160.321771 105.471028,162.398581 C105.136837,163.320149 104.475868,164.086912 103.613621,164.553282 C91.9699191,170.851094 81.1783839,174 71.2390156,174 C61.1465173,174 50.1753921,170.75332 38.3256401,164.259959 L37.599044,163.858356 C35.6694764,162.782679 34.9772612,160.346447 36.0529379,158.41688 C36.451334,157.70223 37.0593029,157.126941 37.7948526,156.768597 C48.4013008,151.601368 55.4070197,146.03788 58.8120095,140.078133 C61.5415001,135.30071 63.6799065,127.253425 65.2272287,115.936278 C48.6838683,117.972124 30.3120241,114.53241 10.1121637,105.618083 L9.03239568,105.137144 C1.98011603,101.967132 -1.16708364,93.6803273 2.00292847,86.6280477 C2.17078032,86.2546301 2.35493139,85.8887551 2.55485071,85.5314777 C11.1058373,70.2499388 17.501582,60.0678346 21.7420849,54.9851652 C39.1731313,34.0923017 47.2296217,28.7258242 58.8336311,18.8444413 C68.2657269,10.8125493 77.9398147,5.22398371 87.8558946,2.07874448 L88.6000542,1.84743239 C101.280091,-2.01356503 114.689248,5.13567882 118.550246,17.8157155 Z" id="path-13"></path>
        <filter x="-9.7%" y="-27.6%" width="119.4%" height="155.1%" filterUnits="objectBoundingBox" id="filter-15">
            <feOffset dx="0" dy="3" in="SourceAlpha" result="shadowOffsetOuter1"></feOffset>
            <feGaussianBlur stdDeviation="4" in="shadowOffsetOuter1" result="shadowBlurOuter1"></feGaussianBlur>
            <feColorMatrix values="0 0 0 0 0   0 0 0 0 0   0 0 0 0 0  0 0 0 0.230004371 0" type="matrix" in="shadowBlurOuter1" result="shadowMatrixOuter1"></feColorMatrix>
            <feMerge>
                <feMergeNode in="shadowMatrixOuter1"></feMergeNode>
                <feMergeNode in="SourceGraphic"></feMergeNode>
            </feMerge>
        </filter>
    </defs>
    <g id="Artboard" stroke="none" stroke-width="1" fill="none" fill-rule="evenodd">
        <path d="M619.5,251 C662.18525,251 697.564688,278.987277 703.966727,315.571463 C716.073679,301.880175 735.544262,293 757.5,293 C794.226936,293 824,317.848196 824,348.5 C824,354.296711 822.935184,359.885859 820.95989,365.138635 C837.677224,354.927085 857.605321,349 879,349 C938.094468,349 986,394.21924 986,450 C986,475.169042 976.246732,498.187824 960.113139,515.872539 C1012.53688,522.390654 1053,564.734966 1053,616 C1053,671.78076 1005.09447,717 946,717 C935.004614,717 924.396589,715.434509 914.412438,712.526777 C886.765867,745.767762 836.465613,768 779,768 C730.865011,768 687.757424,752.401284 658.777585,727.798723 C638.699959,752.593654 610.600422,768 579.5,768 C547.095384,768 517.948612,751.274432 497.73625,724.630036 C494.319441,724.523518 490.917172,724.388684 487.528177,724.229559 C460.172927,751.105354 420.562578,768 376.5,768 C325.410886,768 280.30719,745.287444 253.342155,710.6336 C226.844364,724.043674 193.813705,732 158,732 C70.7390095,732 0,684.766041 0,626.5 C0,602.099818 12.4054951,579.634331 33.2347865,561.762205 C24.844717,550.06907 20,536.273592 20,521.5 C20,479.250217 59.6227996,445 108.5,445 C118.964369,445 129.004546,446.569917 138.322515,449.452143 C136.151805,442.435185 135,435.078845 135,427.5 C135,378.6228 182.905532,339 242,339 C257.515317,339 272.259346,341.731321 285.567574,346.644343 C304.407528,296.807528 356.360536,261 417.5,261 C466.538635,261 509.667352,284.036041 534.542143,318.870208 C539.328503,280.684011 575.539888,251 619.5,251 Z M787.123764,398.202225 L786.214149,398.573771 C786.036377,398.644905 785.858167,398.715399 785.679525,398.785249 C785.955043,398.928216 786.223154,399.076643 786.490821,399.225294 L787.123764,398.202225 L787.123764,398.202225 Z" id="bedroom-clo;ud" fill="url(#linearGradient-1)"></path>
        <ellipse id="rug" cx="606.5" cy="546" rx="232.5" ry="107"></ellipse>
        <g id="Nightstand" transform="translate(288.000000, 229.000000)">
            <g id="Path-22">
                <mask id="mask-3" fill="white">
                    <use xlink:href="#path-2"></use>
                </mask>
                <use id="Mask" fill="#FAF5FB" xlink:href="#path-2"></use>
                <path d="M93.9701629,124.716715 L91.4737983,64.0199605 C91.1770726,56.8053544 94.4395436,49.9044324 100.203286,45.5549653 L135.910134,18.6096646 C139.877758,15.6155943 145.521326,16.4048153 148.515396,20.3724389 C149.659233,21.8882068 150.294326,23.7269304 150.329807,25.6255238 L152,115 L152,115 C160.855956,112.195258 163.18929,114.195258 159,121 C140.938601,150.337471 108.048591,147.048021 102.621785,152.052552 C95.3775897,158.733057 92.4889286,150.098165 93.9558015,126.147875 C93.9849882,125.671378 93.9897806,125.193701 93.9701629,124.716715 Z" fill="#D0C0DD" mask="url(#mask-3)"></path>
                <path d="M11.0290806,57.286828 L11.0290806,75.9354014 C11.0290806,78.0506215 12.6758948,79.8002006 14.7872456,79.9280841 L77.7725121,83.7430739 C79.9776099,83.8766357 81.8734681,82.197324 82.0070299,79.9922262 C82.0119069,79.9117067 82.0143471,79.8310582 82.0143471,79.7503911 L82.0143471,61.6522148 C82.0143471,59.5504105 80.3876902,57.8071109 78.2909159,57.6617876 L15.3056494,53.2964007 C13.1017973,53.143656 11.1913981,54.8064071 11.0386534,57.0102592 C11.0322734,57.1023108 11.0290806,57.1945555 11.0290806,57.286828 Z" id="Path-21" stroke="#979797" mask="url(#mask-3)"></path>
                <path d="M11.0290806,57.286828 L11.0290806,75.9354014 C11.0290806,78.0506215 12.6758948,79.8002006 14.7872456,79.9280841 L77.7725121,83.7430739 C79.9776099,83.8766357 81.8734681,82.197324 82.0070299,79.9922262 C82.0119069,79.9117067 82.0143471,79.8310582 82.0143471,79.7503911 L82.0143471,61.6522148 C82.0143471,59.5504105 80.3876902,57.8071109 78.2909159,57.6617876 L15.3056494,53.2964007 C13.1017973,53.143656 11.1913981,54.8064071 11.0386534,57.0102592 C11.0322734,57.1023108 11.0290806,57.1945555 11.0290806,57.286828 Z" id="Path-21" stroke="#D0C0DD" mask="url(#mask-3)"></path>
                <path d="M11.0290806,88.286828 L11.0290806,106.935401 C11.0290806,109.050621 12.6758948,110.800201 14.7872456,110.928084 L77.7725121,114.743074 C79.9776099,114.876636 81.8734681,113.197324 82.0070299,110.992226 C82.0119069,110.911707 82.0143471,110.831058 82.0143471,110.750391 L82.0143471,92.6522148 C82.0143471,90.5504105 80.3876902,88.8071109 78.2909159,88.6617876 L15.3056494,84.2964007 C13.1017973,84.143656 11.1913981,85.8064071 11.0386534,88.0102592 C11.0322734,88.1023108 11.0290806,88.1945555 11.0290806,88.286828 Z" id="Path-21" stroke="#D0C0DD" mask="url(#mask-3)"></path>
            </g>
        </g>
        <g id="bed" transform="translate(344.000000, 193.000000)">
            <g id="bed-2-+-Rectangle-+-pillow-+-pillow-Mask" transform="translate(14.273196, 41.694444)">
                <g id="Mask" transform="translate(-0.996628, 0.651339)">
                    <mask id="mask-5" fill="white">
                        <use xlink:href="#path-4"></use>
                    </mask>
                    <use fill="#FAF5FB" xlink:href="#path-4"></use>
                    <g id="Path" mask="url(#mask-5)" fill="black" fill-opacity="1">
                        <use filter="url(#filter-7)" xlink:href="#path-6"></use>
                    </g>
                </g>
            </g>
            <g id="Rectangle" transform="translate(0.000000, 51.569444)">
                <mask id="mask-9" fill="white">
                    <use xlink:href="#path-8"></use>
                </mask>
                <use id="Mask" fill="#F1EBF5" xlink:href="#path-8"></use>
                <mask id="mask-12" fill="white">
                    <use xlink:href="#path-11"></use>
                </mask>
                <use id="Combined-Shape" fill="url(#linearGradient-10)" xlink:href="#path-11"></use>
            </g>
        </g>
        <g id="desk" transform="translate(16.000000, 429.000000)">
            <path d="M268.196122,157.409793 L142,140.525703 L142,140.525703 L142,23 L253.889269,34.6076121 C268.158048,36.0878832 279,48.1127874 279,62.458144 L279,147.355025 C279,150.199856 277.846764,152.923171 275.803741,154.902846 C273.785205,156.858793 270.98203,157.782527 268.196122,157.409793 Z" id="Path-8" fill="#D0C0DD"></path>
            <path d="M90.0651599,13.1408211 L34.6488884,39.6842711 C13.4744365,49.8264729 2.55464701e-14,71.2208761 0,94.6989866 L0,186.606321 C7.72425798e-15,191.659457 3.76971363,195.918556 8.7854398,196.532289 L145.878069,213.307202 C149.571232,213.759105 153.315801,213.116716 156.647181,211.459738 L158.667768,210.454729 C163.034639,208.282714 165.795591,203.825843 165.795591,198.948628 L165.795591,109.683696 C165.795591,84.9931878 180.920847,62.8234937 203.910263,53.8174955 L235.447748,41.4628296 C249.332071,36.0237096 264.996817,42.8698992 270.435937,56.754222 C271.665208,59.8921567 272.296146,63.2324949 272.296146,66.6026199 L272.296146,158.991401 L272.296146,158.991401 L274.677625,157.398046 C280.503099,153.500446 284,146.953401 284,139.944305 L284,61.3458192 C284,39.9797275 268.312041,21.8545255 247.166817,18.7903216 L147.605137,4.36260587 C127.979028,1.5185405 107.950452,4.57407101 90.0651599,13.1408211 Z" id="Path-7" fill="#FAF5FB"></path>
        </g>
        <g id="Path-29" transform="translate(250.000000, 494.000000)">
            <mask id="mask-14" fill="white">
                <use xlink:href="#path-13"></use>
            </mask>
            <use id="Mask" fill="#FFCC9C" xlink:href="#path-13"></use>
            <path d="M81.1891003,71.3013092 C89.2690758,72.8529097 96.270042,88.4902495 88.8654199,93.6882009 C73.9225996,104.177872 63.5447691,108.079445 43.7800402,104.950855 C34.3295697,103.454925 25.1853239,99.9337928 16.6183061,95.678961 C14.2440253,94.4997683 12.7441002,91.7372411 12.0369807,89.1855818 C7.46118745,72.6737116 18.7431819,69.0746953 31.869002,67.4968811 C54.4342328,67.4968811 48.2349013,64.973103 81.1891003,71.3013092 Z" id="Path-30" fill="#FFAC5B" mask="url(#mask-14)"></path>
            <path d="M129.488178,11.3435126 L134,191.005957 L31.0009068,202 L2.04855442,126.156502 L-6,98.4562141 C34.7185717,88.8795943 60.540867,78.636284 71.466886,67.7262832 C77.9664004,61.2362975 93.3109177,49.2628068 100.031737,24.4881188 C101.851868,17.7786454 100.960669,9.94927247 97.3581406,1 L129.488178,11.3435126 Z" fill="#FAF5FB" mask="url(#mask-14)"></path>
        </g>
        <g id="Flute" filter="url(#filter-15)" transform="translate(529.000000, 552.000000)">
            <path d="M206.980894,1.96154621 L6.70037145,62.6918569 C3.55266368,63.6463245 1.77469123,66.9717947 2.72915884,70.1195025 C2.82201174,70.4257191 2.93939199,70.7239545 3.0801597,71.0113127 C4.85338449,74.63111 8.99835018,76.4206833 12.8489371,75.2289454 L215.492242,12.5118328 C217.908767,11.7639302 219.261452,9.19865473 218.51355,6.78212978 C218.34161,6.22657927 218.065445,5.70885476 217.699814,5.25662294 C215.130597,2.07888104 210.891495,0.775749233 206.980894,1.96154621 Z" id="Path-28" fill="#EEE9EF"></path>
            <path d="M196.396098,1.87815046 C184.373182,3.56474134 174.117114,17.0880854 196.396098,13.3727972 C209.868964,11.1260349 208.193387,3.2177855 200.118506,1.87815046 L196.396098,1.87815046 Z" id="Path-40" stroke="#A592A8" fill="#E6E6E6"></path>
            <path d="M194.706333,6.15951697 C187.500422,7.48448535 189.291081,10.3484294 194.706333,9.58826891 C200.121584,8.82810845 201.912243,4.83454858 194.706333,6.15951697 Z" id="Path-41" fill="#9B879E"></path>
            <path d="M52.4498137,52.8922911 C54.9350951,52.8922911 56.9498137,53.7877216 56.9498137,54.8922911 C56.9498137,55.9968606 54.9350951,56.8922911 52.4498137,56.8922911 C49.9645324,56.8922911 47.9498137,55.9968606 47.9498137,54.8922911 C47.9498137,53.7877216 49.9645324,52.8922911 52.4498137,52.8922911 Z M64.4498137,48.8922911 C66.9350951,48.8922911 68.9498137,49.7877216 68.9498137,50.8922911 C68.9498137,51.9968606 66.9350951,52.8922911 64.4498137,52.8922911 C61.9645324,52.8922911 59.9498137,51.9968606 59.9498137,50.8922911 C59.9498137,49.7877216 61.9645324,48.8922911 64.4498137,48.8922911 Z M76.4498137,44.8922911 C78.9350951,44.8922911 80.9498137,45.7877216 80.9498137,46.8922911 C80.9498137,47.9968606 78.9350951,48.8922911 76.4498137,48.8922911 C73.9645324,48.8922911 71.9498137,47.9968606 71.9498137,46.8922911 C71.9498137,45.7877216 73.9645324,44.8922911 76.4498137,44.8922911 Z M88.4498137,40.8922911 C90.9350951,40.8922911 92.9498137,41.7877216 92.9498137,42.8922911 C92.9498137,43.9968606 90.9350951,44.8922911 88.4498137,44.8922911 C85.9645324,44.8922911 83.9498137,43.9968606 83.9498137,42.8922911 C83.9498137,41.7877216 85.9645324,40.8922911 88.4498137,40.8922911 Z M100.449814,37.8922911 C102.935095,37.8922911 104.949814,38.7877216 104.949814,39.8922911 C104.949814,40.9968606 102.935095,41.8922911 100.449814,41.8922911 C97.9645324,41.8922911 95.9498137,40.9968606 95.9498137,39.8922911 C95.9498137,38.7877216 97.9645324,37.8922911 100.449814,37.8922911 Z M112.449814,33.8922911 C114.935095,33.8922911 116.949814,34.7877216 116.949814,35.8922911 C116.949814,36.9968606 114.935095,37.8922911 112.449814,37.8922911 C109.964532,37.8922911 107.949814,36.9968606 107.949814,35.8922911 C107.949814,34.7877216 109.964532,33.8922911 112.449814,33.8922911 Z M124.449814,29.8922911 C126.935095,29.8922911 128.949814,30.7877216 128.949814,31.8922911 C128.949814,32.9968606 126.935095,33.8922911 124.449814,33.8922911 C121.964532,33.8922911 119.949814,32.9968606 119.949814,31.8922911 C119.949814,30.7877216 121.964532,29.8922911 124.449814,29.8922911 Z M136.449814,26.8922911 C138.935095,26.8922911 140.949814,27.7877216 140.949814,28.8922911 C140.949814,29.9968606 138.935095,30.8922911 136.449814,30.8922911 C133.964532,30.8922911 131.949814,29.9968606 131.949814,28.8922911 C131.949814,27.7877216 133.964532,26.8922911 136.449814,26.8922911 Z M148.449814,22.8922911 C150.935095,22.8922911 152.949814,23.7877216 152.949814,24.8922911 C152.949814,25.9968606 150.935095,26.8922911 148.449814,26.8922911 C145.964532,26.8922911 143.949814,25.9968606 143.949814,24.8922911 C143.949814,23.7877216 145.964532,22.8922911 148.449814,22.8922911 Z" id="Combined-Shape" fill="#9B879E"></path>
        </g>
    </g>
</svg>