<?xml version="1.0" encoding="UTF-8"?>
<svg width="1104px" height="768px" viewBox="0 0 1104 768" version="1.1" xmlns="http://www.w3.org/2000/svg" xmlns:xlink="http://www.w3.org/1999/xlink">
    <!-- Generator: Sketch 61.2 (89653) - https://sketch.com -->
    <title>Artboard</title>
    <desc>Created with Sketch.</desc>
    <defs>
        <linearGradient x1="50%" y1="54.5034935%" x2="44.5199805%" y2="40.09649%" id="linearGradient-1">
            <stop stop-color="#FFE2FF" offset="0%"></stop>
            <stop stop-color="#EFB1FF" offset="100%"></stop>
        </linearGradient>
        <path d="M65.5419408,2.01414107 L133.490867,10.9996792 C142.939232,12.249127 150,20.3050779 150,29.8356973 L150,96.4449746 C150,104.550504 146.07031,112.152986 139.45766,116.840466 L115.928686,133.519344 C110.976266,137.029944 104.836795,138.440306 98.848804,137.442943 L15.7659502,123.604616 C8.76993024,122.439355 3.54615559,116.533404 3.24402392,109.447443 L0.480956216,44.6446038 C0.182457602,37.6438496 3.56951279,30.9974426 9.40919616,27.1247486 L37.5070216,8.49115624 C45.7626771,3.01626573 55.7213639,0.715472018 65.5419408,2.01414107 Z" id="path-2"></path>
        <path d="M144.545884,18.5926389 L22.5971412,121.447964 C8.90031389,133.000289 0.996627503,150.006069 0.996627503,167.924197 L0.996627503,192.64283 C0.996627503,222.702026 23.8043246,247.856107 53.7199787,250.790195 L244.115038,269.463889 C271.262628,272.126489 297.895907,260.773004 314.773116,239.343098 L395.744192,136.529745 C406.742909,122.56408 412.723432,105.304246 412.723432,87.5275311 L412.723432,66.6738341 C412.723432,39.3457698 391.834726,16.5511113 364.610511,14.1709362 L203.091865,0.0495863572 C181.88677,-1.80434548 160.81714,4.86896086 144.545884,18.5926389 Z" id="path-4"></path>
        <path d="M150.087408,14.6676707 C153.269911,14.8554188 156.454476,15.3526292 159.59722,16.1688103 L160.453262,16.3993207 L319.418722,60.7330242 C333.691787,64.7136238 346.398686,72.9777709 355.822733,84.4089894 C365.048324,95.5994836 370.358894,109.491364 370.957634,123.966345 L370.984398,124.71556 L371.533186,142.958461 C371.56992,144.179603 371.42103,145.399246 371.091601,146.57572 C369.322638,152.893141 362.84277,156.623308 356.516792,155.03023 L356.205824,154.947578 L333.578237,148.615967 L290.496924,206.091516 C285.081217,213.316708 276.226684,217.091071 267.282749,216.018722 L266.820069,215.958926 L14.8900203,181.042166 C13.9319844,180.909385 12.9823709,180.721693 12.0458735,180.480016 C7.75079737,179.371609 4.00026997,177.222896 0.994564844,174.373417 L0.994564844,170.673906 C0.994564844,151.235216 9.47483963,132.774638 24.1938597,120.105633 L24.7038823,119.671073 L142.052468,20.6956631 C144.285836,18.8119715 146.601583,17.0492409 148.989701,15.4106404 L150.087408,14.6676707 Z" id="path-6"></path>
        <filter x="-4.6%" y="-6.9%" width="110.3%" height="118.9%" filterUnits="objectBoundingBox" id="filter-7">
            <feOffset dx="2" dy="5" in="SourceAlpha" result="shadowOffsetOuter1"></feOffset>
            <feGaussianBlur stdDeviation="5.5" in="shadowOffsetOuter1" result="shadowBlurOuter1"></feGaussianBlur>
            <feColorMatrix values="0 0 0 0 0.817099865   0 0 0 0 0.753334956   0 0 0 0 0.868348053  0 0 0 1 0" type="matrix" in="shadowBlurOuter1"></feColorMatrix>
        </filter>
        <path d="M130.446893,15.4388849 L19.9071519,108.314526 C16.2426719,111.393427 13.6299982,115.538836 12.4332409,120.173037 L6.55481698,142.936044 C3.37865254,155.235098 10.774216,167.780242 23.0732703,170.956406 C23.9271917,171.176927 24.79309,171.348149 25.6666754,171.469226 L281.41544,206.915248 C289.702244,208.063775 297.959164,204.622056 302.976884,197.927826 L346.854805,139.389507 L346.854805,139.389507 L370.894516,146.116256 C376.744926,147.753307 382.814713,144.337705 384.451764,138.487296 C384.75163,137.415649 384.887147,136.304704 384.853686,135.192397 L384.261062,115.492304 C383.817462,100.746072 378.483821,86.5658024 369.099301,75.1825295 C359.675193,63.7512365 346.969845,55.4875794 332.699292,51.5076805 L171.483285,6.54632427 C157.175185,2.5559539 141.819635,5.88349207 130.446893,15.4388849 Z" id="path-8"></path>
        <linearGradient x1="19.3676451%" y1="67.5324346%" x2="58.7570483%" y2="30.7477202%" id="linearGradient-10">
            <stop stop-color="#FF82F7" offset="0%"></stop>
            <stop stop-color="#FFA2A2" offset="15.7175%"></stop>
            <stop stop-color="#FFF6A6" offset="36.0924332%"></stop>
            <stop stop-color="#91FFE2" offset="52.5941069%"></stop>
            <stop stop-color="#6CB7FF" offset="68.5723413%"></stop>
            <stop stop-color="#C551FF" offset="100%"></stop>
        </linearGradient>
        <path d="M130.446893,15.4388849 C140.221066,7.22661163 152.93708,3.61444778 165.401669,5.29437168 L165.140069,5.46040946 C199.866177,33.91912 228.391422,56.4629734 250.715806,73.0919697 C272.816945,89.554676 304.446568,111.378709 345.604673,138.564067 L346.854805,139.389507 L302.976884,197.927826 C297.959164,204.622056 289.702244,208.063775 281.41544,206.915248 L281.41544,206.915248 L25.6666754,171.469226 C24.79309,171.348149 23.9271917,171.176927 23.0732703,170.956406 C10.774216,167.780242 3.37865254,155.235098 6.55481698,142.936044 L6.55481698,142.936044 L12.4332409,120.173037 C13.6299982,115.538836 16.2426719,111.393427 19.9071519,108.314526 L19.9071519,108.314526 Z" id="path-11"></path>
        <path d="M118.550246,17.8157155 C118.570323,17.8816526 118.590117,17.9476758 118.609625,18.0137835 C129.813082,55.9782178 123.552431,83.8987483 99.827673,101.775375 C92.8050597,107.06692 85.3063707,110.932696 77.3316061,113.372702 C77.7412175,126.817587 79.5023316,136.428287 82.6137225,142.204202 C85.9626104,148.421 92.5874012,153.372653 102.488095,157.059161 L103.074271,157.274544 C105.151081,158.027662 106.224145,160.321771 105.471028,162.398581 C105.136837,163.320149 104.475868,164.086912 103.613621,164.553282 C91.9699191,170.851094 81.1783839,174 71.2390156,174 C61.1465173,174 50.1753921,170.75332 38.3256401,164.259959 L37.599044,163.858356 C35.6694764,162.782679 34.9772612,160.346447 36.0529379,158.41688 C36.451334,157.70223 37.0593029,157.126941 37.7948526,156.768597 C48.4013008,151.601368 55.4070197,146.03788 58.8120095,140.078133 C61.5415001,135.30071 63.6799065,127.253425 65.2272287,115.936278 C48.6838683,117.972124 30.3120241,114.53241 10.1121637,105.618083 L9.03239568,105.137144 C1.98011603,101.967132 -1.16708364,93.6803273 2.00292847,86.6280477 C2.17078032,86.2546301 2.35493139,85.8887551 2.55485071,85.5314777 C11.1058373,70.2499388 17.501582,60.0678346 21.7420849,54.9851652 C39.1731313,34.0923017 47.2296217,28.7258242 58.8336311,18.8444413 C68.2657269,10.8125493 77.9398147,5.22398371 87.8558946,2.07874448 L88.6000542,1.84743239 C101.280091,-2.01356503 114.689248,5.13567882 118.550246,17.8157155 Z" id="path-13"></path>
        <filter x="-9.7%" y="-27.6%" width="119.4%" height="155.1%" filterUnits="objectBoundingBox" id="filter-15">
            <feOffset dx="0" dy="3" in="SourceAlpha" result="shadowOffsetOuter1"></feOffset>
            <feGaussianBlur stdDeviation="4" in="shadowOffsetOuter1" result="shadowBlurOuter1"></feGaussianBlur>
            <feColorMatrix values="0 0 0 0 0   0 0 0 0 0   0 0 0 0 0  0 0 0 0.230004371 0" type="matrix" in="shadowBlurOuter1" result="shadowMatrixOuter1"></feColorMatrix>
            <feMerge>
                <feMergeNode in="shadowMatrixOuter1"></feMergeNode>
                <feMergeNode in="SourceGraphic"></feMergeNode>
            </feMerge>
        </filter>
    </defs>
    <g id="Artboard" stroke="none" stroke-width="1" fill="none" fill-rule="evenodd">
        <path d="M649.5,251 C694.41818,251 731.607771,279.28365 738.022015,316.151765 C750.633839,302.131324 771.231558,293 794.5,293 C832.88379,293 864,317.848196 864,348.5 C864,354.417645 862.840229,360.118976 860.692296,365.466952 C878.302773,355.053818 899.367417,349 922,349 C983.855892,349 1034,394.21924 1034,450 C1034,475.176193 1023.78517,498.200904 1006.88908,515.887612 C1061.70651,522.451094 1104,564.771549 1104,616 C1104,671.78076 1053.85589,717 992,717 C980.314886,717 969.047725,715.386284 958.457607,712.392498 C929.521293,745.708661 876.773366,768 816.5,768 C766.293412,768 721.308409,752.532979 690.956854,728.110466 C669.898037,752.723152 640.510903,768 608,768 C573.982484,768 543.384968,751.274432 522.166561,724.630036 C518.627592,724.525395 515.102789,724.392434 511.591575,724.23572 C482.864928,751.107644 441.26994,768 395,768 C341.294504,768 293.887212,745.242224 265.579197,710.530124 C237.788792,724.00303 203.109418,732 165.5,732 C74.0968739,732 0,684.766041 0,626.5 C0,602.077819 13.0178049,579.593823 34.8714205,561.713877 C26.0769133,550.030712 21,536.253054 21,521.5 C21,479.250217 62.6375183,445 114,445 C125.053985,445 135.657534,446.586387 145.492534,449.497488 C143.210787,442.466626 142,435.095042 142,427.5 C142,378.6228 192.144108,339 254,339 C270.348796,339 285.879444,341.767927 299.882346,346.743073 C319.565331,296.855393 373.96899,261 438,261 C489.363931,261 534.532843,284.072268 560.557074,318.952371 C565.523637,280.726436 603.450401,251 649.5,251 Z M825.967772,397.995941 L825.478643,398.195279 C824.951921,398.405069 824.421396,398.609676 823.887171,398.809016 C824.278285,399.00626 824.661154,399.20886 825.043156,399.411877 C825.344458,398.938644 825.654053,398.466046 825.967772,397.995941 Z" id="bedroom-clo;ud" fill="url(#linearGradient-1)"></path>
        <ellipse id="rug" cx="606.5" cy="546" rx="232.5" ry="107"></ellipse>
        <g id="Nightstand" transform="translate(310.000000, 229.000000)">
            <g id="Path-22">
                <mask id="mask-3" fill="white">
                    <use xlink:href="#path-2"></use>
                </mask>
                <use id="Mask" fill="#FAF5FB" xlink:href="#path-2"></use>
                <path d="M93.9701629,124.716715 L91.4737983,64.0199605 C91.1770726,56.8053544 94.4395436,49.9044324 100.203286,45.5549653 L135.910134,18.6096646 C139.877758,15.6155943 145.521326,16.4048153 148.515396,20.3724389 C149.659233,21.8882068 150.294326,23.7269304 150.329807,25.6255238 L152,115 L152,115 C160.855956,112.195258 163.18929,114.195258 159,121 C140.938601,150.337471 108.048591,147.048021 102.621785,152.052552 C95.3775897,158.733057 92.4889286,150.098165 93.9558015,126.147875 C93.9849882,125.671378 93.9897806,125.193701 93.9701629,124.716715 Z" fill="#D0C0DD" mask="url(#mask-3)"></path>
                <path d="M11.0290806,57.286828 L11.0290806,75.9354014 C11.0290806,78.0506215 12.6758948,79.8002006 14.7872456,79.9280841 L77.7725121,83.7430739 C79.9776099,83.8766357 81.8734681,82.197324 82.0070299,79.9922262 C82.0119069,79.9117067 82.0143471,79.8310582 82.0143471,79.7503911 L82.0143471,61.6522148 C82.0143471,59.5504105 80.3876902,57.8071109 78.2909159,57.6617876 L15.3056494,53.2964007 C13.1017973,53.143656 11.1913981,54.8064071 11.0386534,57.0102592 C11.0322734,57.1023108 11.0290806,57.1945555 11.0290806,57.286828 Z" id="Path-21" stroke="#979797" mask="url(#mask-3)"></path>
                <path d="M11.0290806,57.286828 L11.0290806,75.9354014 C11.0290806,78.0506215 12.6758948,79.8002006 14.7872456,79.9280841 L77.7725121,83.7430739 C79.9776099,83.8766357 81.8734681,82.197324 82.0070299,79.9922262 C82.0119069,79.9117067 82.0143471,79.8310582 82.0143471,79.7503911 L82.0143471,61.6522148 C82.0143471,59.5504105 80.3876902,57.8071109 78.2909159,57.6617876 L15.3056494,53.2964007 C13.1017973,53.143656 11.1913981,54.8064071 11.0386534,57.0102592 C11.0322734,57.1023108 11.0290806,57.1945555 11.0290806,57.286828 Z" id="Path-21" stroke="#D0C0DD" mask="url(#mask-3)"></path>
                <path d="M11.0290806,88.286828 L11.0290806,106.935401 C11.0290806,109.050621 12.6758948,110.800201 14.7872456,110.928084 L77.7725121,114.743074 C79.9776099,114.876636 81.8734681,113.197324 82.0070299,110.992226 C82.0119069,110.911707 82.0143471,110.831058 82.0143471,110.750391 L82.0143471,92.6522148 C82.0143471,90.5504105 80.3876902,88.8071109 78.2909159,88.6617876 L15.3056494,84.2964007 C13.1017973,84.143656 11.1913981,85.8064071 11.0386534,88.0102592 C11.0322734,88.1023108 11.0290806,88.1945555 11.0290806,88.286828 Z" id="Path-21" stroke="#D0C0DD" mask="url(#mask-3)"></path>
            </g>
        </g>
        <g id="bed" transform="translate(366.000000, 193.000000)">
            <g id="bed-2-+-Rectangle-+-pillow-+-pillow-Mask" transform="translate(14.273196, 41.707097)">
                <g id="Mask" transform="translate(-0.996628, 0.651537)">
                    <mask id="mask-5" fill="white">
                        <use xlink:href="#path-4"></use>
                    </mask>
                    <use fill="#FAF5FB" xlink:href="#path-4"></use>
                    <g id="Path" mask="url(#mask-5)" fill="black" fill-opacity="1">
                        <use filter="url(#filter-7)" xlink:href="#path-6"></use>
                    </g>
                </g>
            </g>
            <g id="Rectangle" transform="translate(0.000000, 51.585093)">
                <mask id="mask-9" fill="white">
                    <use xlink:href="#path-8"></use>
                </mask>
                <use id="Mask" fill="#F1EBF5" xlink:href="#path-8"></use>
                <mask id="mask-12" fill="white">
                    <use xlink:href="#path-11"></use>
                </mask>
                <use id="Combined-Shape" fill="url(#linearGradient-10)" xlink:href="#path-11"></use>
            </g>
        </g>
        <g id="desk" transform="translate(16.000000, 413.000000)">
            <path d="M268.196122,157.409793 L142,140.525703 L142,140.525703 L142,23 L253.889269,34.6076121 C268.158048,36.0878832 279,48.1127874 279,62.458144 L279,147.355025 C279,150.199856 277.846764,152.923171 275.803741,154.902846 C273.785205,156.858793 270.98203,157.782527 268.196122,157.409793 Z" id="Path-8" fill="#D0C0DD"></path>
            <path d="M90.0651599,13.1408211 L34.6488884,39.6842711 C13.4744365,49.8264729 2.55464701e-14,71.2208761 0,94.6989866 L0,186.606321 C7.72425798e-15,191.659457 3.76971363,195.918556 8.7854398,196.532289 L145.878069,213.307202 C149.571232,213.759105 153.315801,213.116716 156.647181,211.459738 L158.667768,210.454729 C163.034639,208.282714 165.795591,203.825843 165.795591,198.948628 L165.795591,109.683696 C165.795591,84.9931878 180.920847,62.8234937 203.910263,53.8174955 L235.447748,41.4628296 C249.332071,36.0237096 264.996817,42.8698992 270.435937,56.754222 C271.665208,59.8921567 272.296146,63.2324949 272.296146,66.6026199 L272.296146,158.991401 L272.296146,158.991401 L274.677625,157.398046 C280.503099,153.500446 284,146.953401 284,139.944305 L284,61.3458192 C284,39.9797275 268.312041,21.8545255 247.166817,18.7903216 L147.605137,4.36260587 C127.979028,1.5185405 107.950452,4.57407101 90.0651599,13.1408211 Z" id="Path-7" fill="#FAF5FB"></path>
        </g>
        <g id="Path-29" transform="translate(250.000000, 459.000000)">
            <mask id="mask-14" fill="white">
                <use xlink:href="#path-13"></use>
            </mask>
            <use id="Mask" fill="#FFCC9C" xlink:href="#path-13"></use>
            <path d="M81.1891003,71.3013092 C89.2690758,72.8529097 96.270042,88.4902495 88.8654199,93.6882009 C73.9225996,104.177872 63.5447691,108.079445 43.7800402,104.950855 C34.3295697,103.454925 25.1853239,99.9337928 16.6183061,95.678961 C14.2440253,94.4997683 12.7441002,91.7372411 12.0369807,89.1855818 C7.46118745,72.6737116 18.7431819,69.0746953 31.869002,67.4968811 C54.4342328,67.4968811 48.2349013,64.973103 81.1891003,71.3013092 Z" id="Path-30" fill="#FFAC5B" mask="url(#mask-14)"></path>
            <path d="M129.488178,11.3435126 L134,191.005957 L31.0009068,202 L2.04855442,126.156502 L-6,98.4562141 C34.7185717,88.8795943 60.540867,78.636284 71.466886,67.7262832 C77.9664004,61.2362975 93.3109177,49.2628068 100.031737,24.4881188 C101.851868,17.7786454 100.960669,9.94927247 97.3581406,1 L129.488178,11.3435126 Z" fill="#FAF5FB" mask="url(#mask-14)"></path>
        </g>
        <g id="Flute" filter="url(#filter-15)" transform="translate(529.000000, 552.000000)">
            <path d="M206.980894,1.96154621 L6.70037145,62.6918569 C3.55266368,63.6463245 1.77469123,66.9717947 2.72915884,70.1195025 C2.82201174,70.4257191 2.93939199,70.7239545 3.0801597,71.0113127 C4.85338449,74.63111 8.99835018,76.4206833 12.8489371,75.2289454 L215.492242,12.5118328 C217.908767,11.7639302 219.261452,9.19865473 218.51355,6.78212978 C218.34161,6.22657927 218.065445,5.70885476 217.699814,5.25662294 C215.130597,2.07888104 210.891495,0.775749233 206.980894,1.96154621 Z" id="Path-28" fill="#EEE9EF"></path>
            <path d="M196.396098,1.87815046 C184.373182,3.56474134 174.117114,17.0880854 196.396098,13.3727972 C209.868964,11.1260349 208.193387,3.2177855 200.118506,1.87815046 L196.396098,1.87815046 Z" id="Path-40" stroke="#A592A8" fill="#E6E6E6"></path>
            <path d="M194.706333,6.15951697 C187.500422,7.48448535 189.291081,10.3484294 194.706333,9.58826891 C200.121584,8.82810845 201.912243,4.83454858 194.706333,6.15951697 Z" id="Path-41" fill="#9B879E"></path>
            <path d="M52.4498137,52.8922911 C54.9350951,52.8922911 56.9498137,53.7877216 56.9498137,54.8922911 C56.9498137,55.9968606 54.9350951,56.8922911 52.4498137,56.8922911 C49.9645324,56.8922911 47.9498137,55.9968606 47.9498137,54.8922911 C47.9498137,53.7877216 49.9645324,52.8922911 52.4498137,52.8922911 Z M64.4498137,48.8922911 C66.9350951,48.8922911 68.9498137,49.7877216 68.9498137,50.8922911 C68.9498137,51.9968606 66.9350951,52.8922911 64.4498137,52.8922911 C61.9645324,52.8922911 59.9498137,51.9968606 59.9498137,50.8922911 C59.9498137,49.7877216 61.9645324,48.8922911 64.4498137,48.8922911 Z M76.4498137,44.8922911 C78.9350951,44.8922911 80.9498137,45.7877216 80.9498137,46.8922911 C80.9498137,47.9968606 78.9350951,48.8922911 76.4498137,48.8922911 C73.9645324,48.8922911 71.9498137,47.9968606 71.9498137,46.8922911 C71.9498137,45.7877216 73.9645324,44.8922911 76.4498137,44.8922911 Z M88.4498137,40.8922911 C90.9350951,40.8922911 92.9498137,41.7877216 92.9498137,42.8922911 C92.9498137,43.9968606 90.9350951,44.8922911 88.4498137,44.8922911 C85.9645324,44.8922911 83.9498137,43.9968606 83.9498137,42.8922911 C83.9498137,41.7877216 85.9645324,40.8922911 88.4498137,40.8922911 Z M100.449814,37.8922911 C102.935095,37.8922911 104.949814,38.7877216 104.949814,39.8922911 C104.949814,40.9968606 102.935095,41.8922911 100.449814,41.8922911 C97.9645324,41.8922911 95.9498137,40.9968606 95.9498137,39.8922911 C95.9498137,38.7877216 97.9645324,37.8922911 100.449814,37.8922911 Z M112.449814,33.8922911 C114.935095,33.8922911 116.949814,34.7877216 116.949814,35.8922911 C116.949814,36.9968606 114.935095,37.8922911 112.449814,37.8922911 C109.964532,37.8922911 107.949814,36.9968606 107.949814,35.8922911 C107.949814,34.7877216 109.964532,33.8922911 112.449814,33.8922911 Z M124.449814,29.8922911 C126.935095,29.8922911 128.949814,30.7877216 128.949814,31.8922911 C128.949814,32.9968606 126.935095,33.8922911 124.449814,33.8922911 C121.964532,33.8922911 119.949814,32.9968606 119.949814,31.8922911 C119.949814,30.7877216 121.964532,29.8922911 124.449814,29.8922911 Z M136.449814,26.8922911 C138.935095,26.8922911 140.949814,27.7877216 140.949814,28.8922911 C140.949814,29.9968606 138.935095,30.8922911 136.449814,30.8922911 C133.964532,30.8922911 131.949814,29.9968606 131.949814,28.8922911 C131.949814,27.7877216 133.964532,26.8922911 136.449814,26.8922911 Z M148.449814,22.8922911 C150.935095,22.8922911 152.949814,23.7877216 152.949814,24.8922911 C152.949814,25.9968606 150.935095,26.8922911 148.449814,26.8922911 C145.964532,26.8922911 143.949814,25.9968606 143.949814,24.8922911 C143.949814,23.7877216 145.964532,22.8922911 148.449814,22.8922911 Z" id="Combined-Shape" fill="#9B879E"></path>
        </g>
    </g>
</svg>