<?xml version="1.0" encoding="utf-8"?>
<!-- Generator: Adobe Illustrator 27.6.1, SVG Export Plug-In . SVG Version: 6.00 Build 0)  -->
<svg version="1.1" id="Layer_1" xmlns="http://www.w3.org/2000/svg" xmlns:xlink="http://www.w3.org/1999/xlink" x="0px" y="0px"
	 viewBox="0 0 1104 768" style="enable-background:new 0 0 1104 768;" xml:space="preserve">
<style type="text/css">
	.st0{fill-rule:evenodd;clip-rule:evenodd;fill:url(#bedroom-clo_x3B_ud_00000113341419531665621480000012304593157910720407_);}
	.st1{fill:none;}
	.st2{fill-rule:evenodd;clip-rule:evenodd;fill:#FAF5FB;}
	.st3{filter:url(#Adobe_OpacityMaskFilter);}
	.st4{fill-rule:evenodd;clip-rule:evenodd;fill:#FFFFFF;}
	.st5{mask:url(#mask-3_00000024693328835677688570000017799581910301142151_);fill-rule:evenodd;clip-rule:evenodd;fill:#D0C0DD;}
	.st6{filter:url(#Adobe_OpacityMaskFilter_00000071527929469717444080000010188599400424971923_);}
	.st7{mask:url(#mask-3_00000095300450096007525350000006284906156653072550_);fill:none;stroke:#979797;}
	.st8{filter:url(#Adobe_OpacityMaskFilter_00000122689197037696877640000001170763085813565597_);}
	.st9{mask:url(#mask-3_00000040550578875552494440000014645275865024293052_);fill:none;stroke:#D0C0DD;}
	.st10{filter:url(#Adobe_OpacityMaskFilter_00000062896176948159731040000007683079709362588067_);}
	.st11{mask:url(#mask-3_00000176730274277318426830000014701503325833070481_);fill:none;stroke:#D0C0DD;}
	.st12{filter:url(#Adobe_OpacityMaskFilter_00000035504047285268236390000014622218048435765646_);}
	.st13{mask:url(#mask-5_00000109724897148194586380000010019051865330864553_);fill-rule:evenodd;clip-rule:evenodd;fill:#FAF5FB;}
	.st14{filter:url(#Adobe_OpacityMaskFilter_00000023249155246923840340000016390899491095293318_);}
	.st15{mask:url(#mask-5_00000132046132681300938050000004868433752198811801_);filter:url(#filter-6);}
	.st16{filter:url(#Adobe_OpacityMaskFilter_00000069364885643457954060000003979165196958263958_);}
	
		.st17{mask:url(#mask-8_00000142889129835547103990000004625012802456094906_);fill-rule:evenodd;clip-rule:evenodd;fill:url(#Rectangle_00000026852445219022108920000010871045939740413846_);stroke:#979797;}
	.st18{filter:url(#Adobe_OpacityMaskFilter_00000171680652275824641490000003359477604052467367_);}
	.st19{mask:url(#mask-8_00000106129580478763558120000000353009041758112160_);fill-rule:evenodd;clip-rule:evenodd;fill:#ECE6ED;}
	.st20{filter:url(#Adobe_OpacityMaskFilter_00000085955737767305373540000011598005035655915164_);}
	.st21{mask:url(#mask-5_00000044872992082460493020000009051671894970485408_);}
	.st22{filter:url(#filter-11);}
	.st23{fill-rule:evenodd;clip-rule:evenodd;}
	.st24{fill-rule:evenodd;clip-rule:evenodd;fill:#F1EBF5;}
	.st25{filter:url(#Adobe_OpacityMaskFilter_00000001658380881333434790000014306206024168300937_);}
	.st26{mask:url(#mask-5_00000090258650464144228570000015809196444374808196_);}
	.st27{filter:url(#filter-13);}
	.st28{fill-rule:evenodd;clip-rule:evenodd;fill:#D0C0DD;}
	.st29{fill-rule:evenodd;clip-rule:evenodd;fill:#FFCC9C;}
	.st30{filter:url(#Adobe_OpacityMaskFilter_00000107546409139087519620000009798439432106590091_);}
	.st31{mask:url(#mask-15_00000124119972586720430060000017620597578176702854_);fill-rule:evenodd;clip-rule:evenodd;fill:#FFAC5B;}
	.st32{filter:url(#Adobe_OpacityMaskFilter_00000062877306583735027710000004747522295892027297_);}
	.st33{mask:url(#mask-15_00000032647151793350438530000005667983423820874892_);fill-rule:evenodd;clip-rule:evenodd;fill:#FAF5FB;}
</style>
<filter  filterUnits="objectBoundingBox" height="127.5%" id="filter-6" width="115.0%" x="-7.5%" y="-13.8%">
	<feOffset  dx="0" dy="8" in="SourceAlpha" result="shadowOffsetOuter1"></feOffset>
	<feGaussianBlur  in="shadowOffsetOuter1" result="shadowBlurOuter1" stdDeviation="3.5"></feGaussianBlur>
	
		<feColorMatrix  in="shadowBlurOuter1" result="shadowMatrixOuter1" type="matrix" values="0 0 0 0 0.922061714   0 0 0 0 0.884684781   0 0 0 0 0.923743207  0 0 0 1 0">
		</feColorMatrix>
	<feMerge>
		<feMergeNode  in="shadowMatrixOuter1"></feMergeNode>
		<feMergeNode  in="SourceGraphic"></feMergeNode>
	</feMerge>
</filter>
<filter  filterUnits="objectBoundingBox" height="135.3%" id="filter-13" width="132.7%" x="-16.4%" y="-12.0%">
	<feOffset  dx="0" dy="4" in="SourceAlpha" result="shadowOffsetOuter1"></feOffset>
	<feGaussianBlur  in="shadowOffsetOuter1" result="shadowBlurOuter1" stdDeviation="3.5"></feGaussianBlur>
	
		<feColorMatrix  in="shadowBlurOuter1" type="matrix" values="0 0 0 0 0.922061714   0 0 0 0 0.884684781   0 0 0 0 0.923743207  0 0 0 1 0">
		</feColorMatrix>
</filter>
<filter  filterUnits="objectBoundingBox" height="135.2%" id="filter-11" width="123.1%" x="-11.5%" y="-12.0%">
	<feOffset  dx="0" dy="4" in="SourceAlpha" result="shadowOffsetOuter1"></feOffset>
	<feGaussianBlur  in="shadowOffsetOuter1" result="shadowBlurOuter1" stdDeviation="3.5"></feGaussianBlur>
	
		<feColorMatrix  in="shadowBlurOuter1" type="matrix" values="0 0 0 0 0.922061714   0 0 0 0 0.884684781   0 0 0 0 0.923743207  0 0 0 1 0">
		</feColorMatrix>
</filter>
<g id="Artboard">
	
		<linearGradient id="bedroom-clo_x3B_ud_00000129194470810801434750000006125344052496697789_" gradientUnits="userSpaceOnUse" x1="-1170.4673" y1="1694.649" x2="-1170.5221" y2="1694.7931" gradientTransform="matrix(1104 0 0 -517 1292716 876672)">
		<stop  offset="0" style="stop-color:#FFE2FF"/>
		<stop  offset="1" style="stop-color:#EFB1FF"/>
	</linearGradient>
	
		<path id="bedroom-clo_x3B_ud" style="fill-rule:evenodd;clip-rule:evenodd;fill:url(#bedroom-clo_x3B_ud_00000129194470810801434750000006125344052496697789_);" d="
		M649.5,251c44.9,0,82.1,28.3,88.5,65.2c12.6-14,33.2-23.2,56.5-23.2c38.4,0,69.5,24.8,69.5,55.5c0,5.9-1.2,11.6-3.3,17
		c17.6-10.4,38.7-16.5,61.3-16.5c61.9,0,112,45.2,112,101c0,25.2-10.2,48.2-27.1,65.9c54.8,6.6,97.1,48.9,97.1,100.1
		c0,55.8-50.1,101-112,101c-11.7,0-23-1.6-33.5-4.6c-28.9,33.3-81.7,55.6-142,55.6c-50.2,0-95.2-15.5-125.5-39.9
		c-21.1,24.6-50.4,39.9-83,39.9c-34,0-64.6-16.7-85.8-43.4c-3.5-0.1-7.1-0.2-10.6-0.4C482.9,751.1,441.3,768,395,768
		c-53.7,0-101.1-22.8-129.4-57.5C237.8,724,203.1,732,165.5,732C74.1,732,0,684.8,0,626.5c0-24.4,13-46.9,34.9-64.8
		C26.1,550,21,536.3,21,521.5c0-42.2,41.6-76.5,93-76.5c11.1,0,21.7,1.6,31.5,4.5c-2.3-7-3.5-14.4-3.5-22c0-48.9,50.1-88.5,112-88.5
		c16.3,0,31.9,2.8,45.9,7.7C319.6,296.9,374,261,438,261c51.4,0,96.5,23.1,122.6,58C565.5,280.7,603.5,251,649.5,251z M826,398
		l-0.5,0.2c-0.5,0.2-1.1,0.4-1.6,0.6c0.4,0.2,0.8,0.4,1.2,0.6C825.3,398.9,825.7,398.5,826,398z"/>
	<ellipse id="rug" class="st1" cx="606.5" cy="546" rx="232.5" ry="107"/>
	<g id="Nightstand" transform="translate(334.000000, 245.000000)">
		<g id="Path-22">
			<g id="Mask">
				<path id="path-2_00000076593906270811633660000012201438565770346388_" class="st2" d="M65.5,2l67.9,9
					c9.4,1.2,16.5,9.3,16.5,18.8v66.6c0,8.1-3.9,15.7-10.5,20.4l-23.5,16.7c-5,3.5-11.1,4.9-17.1,3.9l-83.1-13.8
					c-7-1.2-12.2-7.1-12.5-14.2L0.5,44.6c-0.3-7,3.1-13.6,8.9-17.5L37.5,8.5C45.8,3,55.7,0.7,65.5,2z"/>
			</g>
			<defs>
				<filter id="Adobe_OpacityMaskFilter" filterUnits="userSpaceOnUse" x="91" y="0" width="68" height="125.4">
					<feColorMatrix  type="matrix" values="1 0 0 0 0  0 1 0 0 0  0 0 1 0 0  0 0 0 1 0"/>
				</filter>
			</defs>
			
				<mask maskUnits="userSpaceOnUse" x="91" y="0" width="68" height="125.4" id="mask-3_00000024693328835677688570000017799581910301142151_">
				<g class="st3">
					<path id="path-2_00000109725851620805340090000002899399244422849192_" class="st4" d="M65.5,2l67.9,9
						c9.4,1.2,16.5,9.3,16.5,18.8v66.6c0,8.1-3.9,15.7-10.5,20.4l-23.5,16.7c-5,3.5-11.1,4.9-17.1,3.9l-83.1-13.8
						c-7-1.2-12.2-7.1-12.5-14.2L0.5,44.6c-0.3-7,3.1-13.6,8.9-17.5L37.5,8.5C45.8,3,55.7,0.7,65.5,2z"/>
				</g>
			</mask>
			<polygon class="st5" points="94,125.4 91,52.5 159,0 159,65.5 			"/>
			<defs>
				
					<filter id="Adobe_OpacityMaskFilter_00000083050684495017587880000017113776828708408511_" filterUnits="userSpaceOnUse" x="10.5" y="52.8" width="72" height="31.5">
					<feColorMatrix  type="matrix" values="1 0 0 0 0  0 1 0 0 0  0 0 1 0 0  0 0 0 1 0"/>
				</filter>
			</defs>
			
				<mask maskUnits="userSpaceOnUse" x="10.5" y="52.8" width="72" height="31.5" id="mask-3_00000095300450096007525350000006284906156653072550_">
				<g style="filter:url(#Adobe_OpacityMaskFilter_00000083050684495017587880000017113776828708408511_);">
					<path id="path-2_00000021100452653460215990000004670503763518254727_" class="st4" d="M65.5,2l67.9,9
						c9.4,1.2,16.5,9.3,16.5,18.8v66.6c0,8.1-3.9,15.7-10.5,20.4l-23.5,16.7c-5,3.5-11.1,4.9-17.1,3.9l-83.1-13.8
						c-7-1.2-12.2-7.1-12.5-14.2L0.5,44.6c-0.3-7,3.1-13.6,8.9-17.5L37.5,8.5C45.8,3,55.7,0.7,65.5,2z"/>
				</g>
			</mask>
			<path id="Path-21" class="st7" d="M11,57.3v18.6c0,2.1,1.6,3.9,3.8,4l63,3.8c2.2,0.1,4.1-1.5,4.2-3.8c0-0.1,0-0.2,0-0.2V61.7
				c0-2.1-1.6-3.8-3.7-4l-63-4.4c-2.2-0.2-4.1,1.5-4.3,3.7C11,57.1,11,57.2,11,57.3z"/>
			<defs>
				
					<filter id="Adobe_OpacityMaskFilter_00000113350722022358807000000008003698216790986130_" filterUnits="userSpaceOnUse" x="10.5" y="52.8" width="72" height="31.5">
					<feColorMatrix  type="matrix" values="1 0 0 0 0  0 1 0 0 0  0 0 1 0 0  0 0 0 1 0"/>
				</filter>
			</defs>
			
				<mask maskUnits="userSpaceOnUse" x="10.5" y="52.8" width="72" height="31.5" id="mask-3_00000040550578875552494440000014645275865024293052_">
				<g style="filter:url(#Adobe_OpacityMaskFilter_00000113350722022358807000000008003698216790986130_);">
					<path id="path-2_00000061452807864912117490000012777707178880020668_" class="st4" d="M65.5,2l67.9,9
						c9.4,1.2,16.5,9.3,16.5,18.8v66.6c0,8.1-3.9,15.7-10.5,20.4l-23.5,16.7c-5,3.5-11.1,4.9-17.1,3.9l-83.1-13.8
						c-7-1.2-12.2-7.1-12.5-14.2L0.5,44.6c-0.3-7,3.1-13.6,8.9-17.5L37.5,8.5C45.8,3,55.7,0.7,65.5,2z"/>
				</g>
			</mask>
			<path id="Path-21_00000052092026171273598570000008892410580451591339_" class="st9" d="M11,57.3v18.6c0,2.1,1.6,3.9,3.8,4
				l63,3.8c2.2,0.1,4.1-1.5,4.2-3.8c0-0.1,0-0.2,0-0.2V61.7c0-2.1-1.6-3.8-3.7-4l-63-4.4c-2.2-0.2-4.1,1.5-4.3,3.7
				C11,57.1,11,57.2,11,57.3z"/>
			<defs>
				
					<filter id="Adobe_OpacityMaskFilter_00000106865041906653902400000006868757105646013110_" filterUnits="userSpaceOnUse" x="10.5" y="83.8" width="72" height="31.5">
					<feColorMatrix  type="matrix" values="1 0 0 0 0  0 1 0 0 0  0 0 1 0 0  0 0 0 1 0"/>
				</filter>
			</defs>
			
				<mask maskUnits="userSpaceOnUse" x="10.5" y="83.8" width="72" height="31.5" id="mask-3_00000176730274277318426830000014701503325833070481_">
				<g style="filter:url(#Adobe_OpacityMaskFilter_00000106865041906653902400000006868757105646013110_);">
					<path id="path-2_00000112620364769369219300000002306983760460953788_" class="st4" d="M65.5,2l67.9,9
						c9.4,1.2,16.5,9.3,16.5,18.8v66.6c0,8.1-3.9,15.7-10.5,20.4l-23.5,16.7c-5,3.5-11.1,4.9-17.1,3.9l-83.1-13.8
						c-7-1.2-12.2-7.1-12.5-14.2L0.5,44.6c-0.3-7,3.1-13.6,8.9-17.5L37.5,8.5C45.8,3,55.7,0.7,65.5,2z"/>
				</g>
			</mask>
			<path id="Path-21_00000075841489597263220460000015676226037952037262_" class="st11" d="M11,88.3v18.6c0,2.1,1.6,3.9,3.8,4
				l63,3.8c2.2,0.1,4.1-1.5,4.2-3.8c0-0.1,0-0.2,0-0.2V92.7c0-2.1-1.6-3.8-3.7-4l-63-4.4c-2.2-0.2-4.1,1.5-4.3,3.7
				C11,88.1,11,88.2,11,88.3z"/>
		</g>
	</g>
	<g id="bed" transform="translate(387.000000, 224.000000)">
		<g id="bed-2-_x2B_-Rectangle-_x2B_-pillow-_x2B_-pillow-Mask" transform="translate(5.618557, 0.000000)">
			<g id="Mask_00000116916547893716275770000017231573824542928267_">
				<path id="path-4_00000085965685438291810130000018396395757331686841_" class="st2" d="M202.8,2c20.6-4.1,41.9-0.6,62.9-0.9l0,0
					l5.2,1.5c28.1,4.6,29.5,0,28.9,33.2c0,0.6,0,1.3,0,1.9c12.2-12.6,22.8-10.2,40.8-10.1l0.6,0l0.9,0.4
					c12.5,5.6,19.5,14.4,22.1,23.8l17,1.5c27.9,2.4,49.2,25.8,49.2,53.7l0,0v22c0,17.8-6,35-17,49l0,0l-83.9,106.5
					c-16.9,21.4-43.5,32.8-70.7,30.1l0,0L62.9,295.5c-30.6-3-54-28.7-54-59.5l0,0l0-17c-7-5.5-10.4-14.7-8-23.8l0,0l6.2-24
					c1.2-4.6,3.8-8.8,7.5-11.9l0,0l113.7-95.5c9.3-7.9,21.4-11.5,33.3-10.3c9.3-6.6,19.8-11.1,30.8-13.3c0.7-10.7,2.8-21.7,4.1-25.3
					C198.1,10.3,198.1,2.9,202.8,2z M339.5,27l7.8,0.6c-1.9,0.1-3.7,0.1-5.4,0.1l-0.7,0l-0.4-0.2C340.3,27.3,339.9,27.1,339.5,27z"
					/>
			</g>
			<defs>
				
					<filter id="Adobe_OpacityMaskFilter_00000133531516209770855330000011010270062389601424_" filterUnits="userSpaceOnUse" x="9" y="38.5" width="421.4" height="276.6">
					<feColorMatrix  type="matrix" values="1 0 0 0 0  0 1 0 0 0  0 0 1 0 0  0 0 0 1 0"/>
				</filter>
			</defs>
			
				<mask maskUnits="userSpaceOnUse" x="9" y="38.5" width="421.4" height="276.6" id="mask-5_00000109724897148194586380000010019051865330864553_">
				<g style="filter:url(#Adobe_OpacityMaskFilter_00000133531516209770855330000011010270062389601424_);">
					<path id="path-4_00000145055758430223041500000011122931984279144349_" class="st4" d="M202.8,2c20.6-4.1,41.9-0.6,62.9-0.9
						l0,0l5.2,1.5c28.1,4.6,29.5,0,28.9,33.2c0,0.6,0,1.3,0,1.9c12.2-12.6,22.8-10.2,40.8-10.1l0.6,0l0.9,0.4
						c12.5,5.6,19.5,14.4,22.1,23.8l17,1.5c27.9,2.4,49.2,25.8,49.2,53.7l0,0v22c0,17.8-6,35-17,49l0,0l-83.9,106.5
						c-16.9,21.4-43.5,32.8-70.7,30.1l0,0L62.9,295.5c-30.6-3-54-28.7-54-59.5l0,0l0-17c-7-5.5-10.4-14.7-8-23.8l0,0l6.2-24
						c1.2-4.6,3.8-8.8,7.5-11.9l0,0l113.7-95.5c9.3-7.9,21.4-11.5,33.3-10.3c9.3-6.6,19.8-11.1,30.8-13.3
						c0.7-10.7,2.8-21.7,4.1-25.3C198.1,10.3,198.1,2.9,202.8,2z M339.5,27l7.8,0.6c-1.9,0.1-3.7,0.1-5.4,0.1l-0.7,0l-0.4-0.2
						C340.3,27.3,339.9,27.1,339.5,27z"/>
				</g>
			</mask>
			<path id="bed-2" class="st13" d="M156.5,57.4L30.6,163.6C16.9,175.1,9,192.1,9,210.1v26c0,30.8,23.3,56.5,54,59.5l195.9,19.2
				c27.1,2.7,53.8-8.7,70.7-30.1l83.9-106.5c11-14,17-31.2,17-49v-22c0-28-21.4-51.3-49.2-53.7L215,38.8
				C193.8,37,172.8,43.7,156.5,57.4z"/>
			<defs>
				
					<filter id="Adobe_OpacityMaskFilter_00000059285414438782460320000002849093828149383061_" filterUnits="userSpaceOnUse" x="-27.5" y="35.4" width="442.6" height="247">
					<feColorMatrix  type="matrix" values="1 0 0 0 0  0 1 0 0 0  0 0 1 0 0  0 0 0 1 0"/>
				</filter>
			</defs>
			
				<mask maskUnits="userSpaceOnUse" x="-27.5" y="35.4" width="442.6" height="247" id="mask-5_00000132046132681300938050000004868433752198811801_">
				<g style="filter:url(#Adobe_OpacityMaskFilter_00000059285414438782460320000002849093828149383061_);">
					<path id="path-4_00000099635727584533477530000010539498594468259766_" class="st4" d="M202.8,2c20.6-4.1,41.9-0.6,62.9-0.9
						l0,0l5.2,1.5c28.1,4.6,29.5,0,28.9,33.2c0,0.6,0,1.3,0,1.9c12.2-12.6,22.8-10.2,40.8-10.1l0.6,0l0.9,0.4
						c12.5,5.6,19.5,14.4,22.1,23.8l17,1.5c27.9,2.4,49.2,25.8,49.2,53.7l0,0v22c0,17.8-6,35-17,49l0,0l-83.9,106.5
						c-16.9,21.4-43.5,32.8-70.7,30.1l0,0L62.9,295.5c-30.6-3-54-28.7-54-59.5l0,0l0-17c-7-5.5-10.4-14.7-8-23.8l0,0l6.2-24
						c1.2-4.6,3.8-8.8,7.5-11.9l0,0l113.7-95.5c9.3-7.9,21.4-11.5,33.3-10.3c9.3-6.6,19.8-11.1,30.8-13.3
						c0.7-10.7,2.8-21.7,4.1-25.3C198.1,10.3,198.1,2.9,202.8,2z M339.5,27l7.8,0.6c-1.9,0.1-3.7,0.1-5.4,0.1l-0.7,0l-0.4-0.2
						C340.3,27.3,339.9,27.1,339.5,27z"/>
				</g>
			</mask>
			<g id="Rectangle_00000021836648726001169920000012378145892829037480_" class="st15">
				<g transform="translate(-5.618557, 48.299296)">
					<defs>
						
							<filter id="Adobe_OpacityMaskFilter_00000071551484547555124760000004937453013010283401_" filterUnits="userSpaceOnUse" x="-21.9" y="-12.9" width="442.6" height="247">
							<feColorMatrix  type="matrix" values="1 0 0 0 0  0 1 0 0 0  0 0 1 0 0  0 0 0 1 0"/>
						</filter>
					</defs>
					
						<mask maskUnits="userSpaceOnUse" x="-21.9" y="-12.9" width="442.6" height="247" id="mask-8_00000068677060301693690360000014461822017880799365_">
						<g style="filter:url(#Adobe_OpacityMaskFilter_00000071551484547555124760000004937453013010283401_);">
							<path id="path-7_00000089573940847249524600000002147394061632362905_" class="st4" d="M133.9,15.4L20.2,111
								c-3.7,3.1-6.3,7.2-7.5,11.9l-6.2,24c-3.2,12.3,4.2,24.8,16.5,28c0.9,0.2,1.7,0.4,2.6,0.5l262.7,36.4c8.3,1.1,16.5-2.3,21.6-9
								l45.1-60.2l0,0l24.9,7c5.9,1.6,11.9-1.8,13.6-7.6c0.3-1.1,0.4-2.2,0.4-3.3l-0.6-20.5c-0.5-15.1-5.9-29.6-15.5-41.3
								c-9.6-11.7-22.6-20.2-37.3-24.2L175,6.5C160.7,2.6,145.3,5.9,133.9,15.4z"/>
						</g>
					</mask>
					
						<linearGradient id="Rectangle_00000157289895095411645680000013694878414667090823_" gradientUnits="userSpaceOnUse" x1="-1555.8788" y1="1420.3716" x2="-1555.7543" y2="1420.5875" gradientTransform="matrix(441.6186 0 0 -245.9894 687290 349520.9688)">
						<stop  offset="0" style="stop-color:#FF82F7"/>
						<stop  offset="0.1572" style="stop-color:#FFA2A2"/>
						<stop  offset="0.3609" style="stop-color:#FFF6A6"/>
						<stop  offset="0.5259" style="stop-color:#91FFE2"/>
						<stop  offset="0.6857" style="stop-color:#6CB7FF"/>
						<stop  offset="1" style="stop-color:#C551FF"/>
					</linearGradient>
					
						<rect id="Rectangle_00000072962799190982686870000016813917200808323742_" x="-21.4" y="-12.4" style="mask:url(#mask-8_00000068677060301693690360000014461822017880799365_);fill-rule:evenodd;clip-rule:evenodd;fill:url(#Rectangle_00000157289895095411645680000013694878414667090823_);stroke:#979797;" width="441.6" height="246"/>
					<defs>
						
							<filter id="Adobe_OpacityMaskFilter_00000008133263285336934940000002551078589081895351_" filterUnits="userSpaceOnUse" x="172.8" y="0.2" width="241.3" height="171.7">
							<feColorMatrix  type="matrix" values="1 0 0 0 0  0 1 0 0 0  0 0 1 0 0  0 0 0 1 0"/>
						</filter>
					</defs>
					
						<mask maskUnits="userSpaceOnUse" x="172.8" y="0.2" width="241.3" height="171.7" id="mask-8_00000145055502810179519020000005228148976045686402_">
						<g style="filter:url(#Adobe_OpacityMaskFilter_00000008133263285336934940000002551078589081895351_);">
							<path id="path-7_00000173865102084471773270000005789382091886428090_" class="st4" d="M133.9,15.4L20.2,111
								c-3.7,3.1-6.3,7.2-7.5,11.9l-6.2,24c-3.2,12.3,4.2,24.8,16.5,28c0.9,0.2,1.7,0.4,2.6,0.5l262.7,36.4c8.3,1.1,16.5-2.3,21.6-9
								l45.1-60.2l0,0l24.9,7c5.9,1.6,11.9-1.8,13.6-7.6c0.3-1.1,0.4-2.2,0.4-3.3l-0.6-20.5c-0.5-15.1-5.9-29.6-15.5-41.3
								c-9.6-11.7-22.6-20.2-37.3-24.2L175,6.5C160.7,2.6,145.3,5.9,133.9,15.4z"/>
						</g>
					</mask>
					
						<path id="Path-2_00000183962216389183747530000005770576315167394974_" style="mask:url(#mask-8_00000145055502810179519020000005228148976045686402_);fill-rule:evenodd;clip-rule:evenodd;fill:#ECE6ED;" d="
						M172.8,7c33,28.2,60.9,50.8,83.8,67.8c22.8,17,55.6,39.6,98.4,67.8l56.3,29.2L414.1,60L177.6,0.2L172.8,7z"/>
				</g>
			</g>
			<defs>
				
					<filter id="Adobe_OpacityMaskFilter_00000009575515417147652730000001459709258836424584_" filterUnits="userSpaceOnUse" x="179.7" y="-8.5" width="133" height="96">
					<feColorMatrix  type="matrix" values="1 0 0 0 0  0 1 0 0 0  0 0 1 0 0  0 0 0 1 0"/>
				</filter>
			</defs>
			
				<mask maskUnits="userSpaceOnUse" x="179.7" y="-8.5" width="133" height="96" id="mask-5_00000044872992082460493020000009051671894970485408_">
				<g style="filter:url(#Adobe_OpacityMaskFilter_00000009575515417147652730000001459709258836424584_);">
					<path id="path-4_00000154406627014687885440000017679714391700986523_" class="st4" d="M202.8,2c20.6-4.1,41.9-0.6,62.9-0.9
						l0,0l5.2,1.5c28.1,4.6,29.5,0,28.9,33.2c0,0.6,0,1.3,0,1.9c12.2-12.6,22.8-10.2,40.8-10.1l0.6,0l0.9,0.4
						c12.5,5.6,19.5,14.4,22.1,23.8l17,1.5c27.9,2.4,49.2,25.8,49.2,53.7l0,0v22c0,17.8-6,35-17,49l0,0l-83.9,106.5
						c-16.9,21.4-43.5,32.8-70.7,30.1l0,0L62.9,295.5c-30.6-3-54-28.7-54-59.5l0,0l0-17c-7-5.5-10.4-14.7-8-23.8l0,0l6.2-24
						c1.2-4.6,3.8-8.8,7.5-11.9l0,0l113.7-95.5c9.3-7.9,21.4-11.5,33.3-10.3c9.3-6.6,19.8-11.1,30.8-13.3
						c0.7-10.7,2.8-21.7,4.1-25.3C198.1,10.3,198.1,2.9,202.8,2z M339.5,27l7.8,0.6c-1.9,0.1-3.7,0.1-5.4,0.1l-0.7,0l-0.4-0.2
						C340.3,27.3,339.9,27.1,339.5,27z"/>
				</g>
			</mask>
			<g id="pillow" class="st21">
				<g class="st22">
					<path id="path-10_00000115497331896722264510000001973846369979520443_" class="st23" d="M265.7,1.1c-21,0.3-42.3-3.2-62.9,0.9
						c-4.7,0.9-4.7,8.3-6.3,12.8c-2.5,7.3-8.4,44.6,0.1,48.5c12.8,5.8,27.6,6,41.7,7.5c3.4,0.4,54.8,0.4,57.4-2.3
						c7.6-7.9,4-21.6,4.2-32.6c0.6-33.2-0.8-28.6-28.9-33.2L265.7,1.1z"/>
				</g>
				<g>
					<path id="path-10_00000070804559689911584970000010112617101890070159_" class="st24" d="M265.7,1.1c-21,0.3-42.3-3.2-62.9,0.9
						c-4.7,0.9-4.7,8.3-6.3,12.8c-2.5,7.3-8.4,44.6,0.1,48.5c12.8,5.8,27.6,6,41.7,7.5c3.4,0.4,54.8,0.4,57.4-2.3
						c7.6-7.9,4-21.6,4.2-32.6c0.6-33.2-0.8-28.6-28.9-33.2L265.7,1.1z"/>
				</g>
			</g>
			<defs>
				
					<filter id="Adobe_OpacityMaskFilter_00000044146420924972632990000011713451520053585584_" filterUnits="userSpaceOnUse" x="276.3" y="18.5" width="101" height="96">
					<feColorMatrix  type="matrix" values="1 0 0 0 0  0 1 0 0 0  0 0 1 0 0  0 0 0 1 0"/>
				</filter>
			</defs>
			
				<mask maskUnits="userSpaceOnUse" x="276.3" y="18.5" width="101" height="96" id="mask-5_00000090258650464144228570000015809196444374808196_">
				<g style="filter:url(#Adobe_OpacityMaskFilter_00000044146420924972632990000011713451520053585584_);">
					<path id="path-4_00000172398942911883156550000012491934844323182010_" class="st4" d="M202.8,2c20.6-4.1,41.9-0.6,62.9-0.9
						l0,0l5.2,1.5c28.1,4.6,29.5,0,28.9,33.2c0,0.6,0,1.3,0,1.9c12.2-12.6,22.8-10.2,40.8-10.1l0.6,0l0.9,0.4
						c12.5,5.6,19.5,14.4,22.1,23.8l17,1.5c27.9,2.4,49.2,25.8,49.2,53.7l0,0v22c0,17.8-6,35-17,49l0,0l-83.9,106.5
						c-16.9,21.4-43.5,32.8-70.7,30.1l0,0L62.9,295.5c-30.6-3-54-28.7-54-59.5l0,0l0-17c-7-5.5-10.4-14.7-8-23.8l0,0l6.2-24
						c1.2-4.6,3.8-8.8,7.5-11.9l0,0l113.7-95.5c9.3-7.9,21.4-11.5,33.3-10.3c9.3-6.6,19.8-11.1,30.8-13.3
						c0.7-10.7,2.8-21.7,4.1-25.3C198.1,10.3,198.1,2.9,202.8,2z M339.5,27l7.8,0.6c-1.9,0.1-3.7,0.1-5.4,0.1l-0.7,0l-0.4-0.2
						C340.3,27.3,339.9,27.1,339.5,27z"/>
				</g>
			</mask>
			<g id="pillow_00000016773082323493871690000012085180301789118103_" class="st26">
				<g class="st27">
					<path id="path-12_00000022535713237505878690000000954495400567540875_" class="st23" d="M347.2,27.6
						c-23.4,0.8-35.1-4.4-49.7,12.7c-18.1,21.1-6.6,55.7,21.7,57.4c46.6,2.7,65.2-52.9,20.2-70.7"/>
				</g>
				<g>
					<path id="path-12_00000057851639970694005380000012119398264112276140_" class="st24" d="M347.2,27.6
						c-23.4,0.8-35.1-4.4-49.7,12.7c-18.1,21.1-6.6,55.7,21.7,57.4c46.6,2.7,65.2-52.9,20.2-70.7"/>
				</g>
			</g>
		</g>
	</g>
	<g id="desk" transform="translate(34.000000, 413.000000)">
		<path id="Path-8" class="st28" d="M268.2,157.4L142,140.5l0,0V23l111.9,11.6c14.3,1.5,25.1,13.5,25.1,27.9v84.9
			c0,2.8-1.2,5.6-3.2,7.5C273.8,156.9,271,157.8,268.2,157.4z"/>
		<path id="Path-7" class="st2" d="M90.1,13.1L34.6,39.7C13.5,49.8,0,71.2,0,94.7v91.9c0,5.1,3.8,9.3,8.8,9.9l137.1,16.8
			c3.7,0.5,7.4-0.2,10.8-1.8l2-1c4.4-2.2,7.1-6.6,7.1-11.5v-89.3c0-24.7,15.1-46.9,38.1-55.9l31.5-12.4c13.9-5.4,29.5,1.4,35,15.3
			c1.2,3.1,1.9,6.5,1.9,9.8V159l0,0l2.4-1.6c5.8-3.9,9.3-10.4,9.3-17.5V61.3c0-21.4-15.7-39.5-36.8-42.6L147.6,4.4
			C128,1.5,108,4.6,90.1,13.1z"/>
	</g>
	<g id="Path-29" transform="translate(254.000000, 463.000000)">
		<g id="Mask_00000049939543689616020570000017071534712149233337_">
			<path id="path-14_00000030488395950599579910000002505729630855920034_" class="st29" d="M114.6,16.6c0.1,0.2,0.1,0.5,0.2,0.7
				c10.5,36.1,4.3,62.7-18.4,79.7c-6.8,5.1-14,8.8-21.8,11.2c0.4,13,2.1,22.2,5.1,27.8c3.1,5.8,9.2,10.4,18.2,13.9l0.6,0.2
				c2.1,0.8,3.1,3.1,2.3,5.2c-0.4,1-1.1,1.8-2.1,2.2c-13.1,6.1-24.4,9.1-34,9.1c-9.9,0-19.8-3.2-29.6-9.7l-0.6-0.4
				c-1.8-1.2-2.3-3.7-1.1-5.6c0.3-0.4,0.7-0.8,1.1-1.1c11.3-7.5,18.7-14.3,22.2-20.4c2.4-4.2,4.3-10.4,5.8-18.8
				c-15.7,1.8-33.2-1.4-52.4-9.7l-1-0.5C2,97.4-1.2,89.2,2,82.1c0.2-0.4,0.4-0.8,0.6-1.2C10.7,66.5,16.8,56.8,20.8,52
				c16.9-20.1,24.7-25.3,35.9-34.8C65.5,9.8,74.4,4.5,83.6,1.4l0.8-0.3C97-2.9,110.5,4,114.6,16.6z"/>
		</g>
		<defs>
			
				<filter id="Adobe_OpacityMaskFilter_00000003078975116829796530000012749051422583724205_" filterUnits="userSpaceOnUse" x="10.8" y="64" width="78.9" height="38">
				<feColorMatrix  type="matrix" values="1 0 0 0 0  0 1 0 0 0  0 0 1 0 0  0 0 0 1 0"/>
			</filter>
		</defs>
		
			<mask maskUnits="userSpaceOnUse" x="10.8" y="64" width="78.9" height="38" id="mask-15_00000124119972586720430060000017620597578176702854_">
			<g style="filter:url(#Adobe_OpacityMaskFilter_00000003078975116829796530000012749051422583724205_);">
				<path id="path-14_00000062177635780901087770000001570138069469147800_" class="st4" d="M114.6,16.6c0.1,0.2,0.1,0.5,0.2,0.7
					c10.5,36.1,4.3,62.7-18.4,79.7c-6.8,5.1-14,8.8-21.8,11.2c0.4,13,2.1,22.2,5.1,27.8c3.1,5.8,9.2,10.4,18.2,13.9l0.6,0.2
					c2.1,0.8,3.1,3.1,2.3,5.2c-0.4,1-1.1,1.8-2.1,2.2c-13.1,6.1-24.4,9.1-34,9.1c-9.9,0-19.8-3.2-29.6-9.7l-0.6-0.4
					c-1.8-1.2-2.3-3.7-1.1-5.6c0.3-0.4,0.7-0.8,1.1-1.1c11.3-7.5,18.7-14.3,22.2-20.4c2.4-4.2,4.3-10.4,5.8-18.8
					c-15.7,1.8-33.2-1.4-52.4-9.7l-1-0.5C2,97.4-1.2,89.2,2,82.1c0.2-0.4,0.4-0.8,0.6-1.2C10.7,66.5,16.8,56.8,20.8,52
					c16.9-20.1,24.7-25.3,35.9-34.8C65.5,9.8,74.4,4.5,83.6,1.4l0.8-0.3C97-2.9,110.5,4,114.6,16.6z"/>
			</g>
		</mask>
		<path id="Path-30" class="st31" d="M79.1,68.2C87,69.7,93.8,85,86.6,90c-14.5,10.2-24.7,14-43.9,11c-9.2-1.5-18.1-4.9-26.4-9
			c-2.3-1.1-3.8-3.8-4.5-6.3C7.3,69.5,18.3,66,31.1,64.5C53.1,64.5,47,62,79.1,68.2z"/>
		<defs>
			
				<filter id="Adobe_OpacityMaskFilter_00000099647653070021228530000000852013177944901808_" filterUnits="userSpaceOnUse" x="-6" y="0" width="135.1" height="194.3">
				<feColorMatrix  type="matrix" values="1 0 0 0 0  0 1 0 0 0  0 0 1 0 0  0 0 0 1 0"/>
			</filter>
		</defs>
		
			<mask maskUnits="userSpaceOnUse" x="-6" y="0" width="135.1" height="194.3" id="mask-15_00000032647151793350438530000005667983423820874892_">
			<g style="filter:url(#Adobe_OpacityMaskFilter_00000099647653070021228530000000852013177944901808_);">
				<path id="path-14_00000020389950950239691260000013100870617086445446_" class="st4" d="M114.6,16.6c0.1,0.2,0.1,0.5,0.2,0.7
					c10.5,36.1,4.3,62.7-18.4,79.7c-6.8,5.1-14,8.8-21.8,11.2c0.4,13,2.1,22.2,5.1,27.8c3.1,5.8,9.2,10.4,18.2,13.9l0.6,0.2
					c2.1,0.8,3.1,3.1,2.3,5.2c-0.4,1-1.1,1.8-2.1,2.2c-13.1,6.1-24.4,9.1-34,9.1c-9.9,0-19.8-3.2-29.6-9.7l-0.6-0.4
					c-1.8-1.2-2.3-3.7-1.1-5.6c0.3-0.4,0.7-0.8,1.1-1.1c11.3-7.5,18.7-14.3,22.2-20.4c2.4-4.2,4.3-10.4,5.8-18.8
					c-15.7,1.8-33.2-1.4-52.4-9.7l-1-0.5C2,97.4-1.2,89.2,2,82.1c0.2-0.4,0.4-0.8,0.6-1.2C10.7,66.5,16.8,56.8,20.8,52
					c16.9-20.1,24.7-25.3,35.9-34.8C65.5,9.8,74.4,4.5,83.6,1.4l0.8-0.3C97-2.9,110.5,4,114.6,16.6z"/>
			</g>
		</mask>
		<path class="st33" d="M124.8,10l4.4,173.7l-99.4,10.6L1.8,121L-6,94.2C33.3,85,58.2,75.1,68.8,64.5c6.3-6.3,21.1-17.9,27.6-41.8
			c1.8-6.5,0.9-14.1-2.6-22.7L124.8,10z"/>
	</g>
</g>
</svg>
