<?xml version="1.0" encoding="UTF-8"?>
<svg width="248px" height="150px" viewBox="0 0 248 150" version="1.1" xmlns="http://www.w3.org/2000/svg" xmlns:xlink="http://www.w3.org/1999/xlink">
    <!-- Generator: Sketch 61.2 (89653) - https://sketch.com -->
    <title>blue-cloud</title>
    <desc>Created with Sketch.</desc>
    <g id="blue-cloud" stroke="none" stroke-width="1" fill="none" fill-rule="evenodd">
        <path d="M121.5,0 C131.030728,0 139.468794,4.6782465 144.643105,11.8636486 C151.488085,7.8200644 159.473102,5.5 168,5.5 C193.405098,5.5 214,26.0949015 214,51.5 C214,55.1349658 213.578383,58.6714575 212.781383,62.0632398 C215.417621,65.7726717 217.56138,69.8580491 219.115768,74.2230206 C220.222174,74.0758305 221.352232,74 222.5,74 C236.583261,74 248,85.4167389 248,99.5 C248,113.583261 236.583261,125 222.5,125 C218.368243,125 214.466,124.017336 211.01423,122.272968 C201.851755,133.690424 187.779499,141 172,141 C164.050507,141 156.534313,139.144826 149.860742,135.843802 C140.855138,144.603901 128.557732,150 115,150 C97.2418886,150 81.6460101,140.74238 72.7752524,126.790029 C65.7561864,137.741841 53.4757101,145 39.5,145 C17.6847524,145 0,127.315248 0,105.5 C0,84.0348032 17.1217613,66.568608 38.4530941,66.0136044 C35.6264289,61.3418241 34,55.8608485 34,50 C34,32.8791728 47.8791728,19 65,19 C76.7344767,19 86.9461471,25.5199092 92.2100371,35.1347537 C92.7207806,35.0929248 93.236025,35.0604294 93.7538561,35.0379039 C93.2608439,32.9400342 93,30.7504788 93,28.5 C93,12.7598846 105.759885,0 121.5,0 Z" id="Combined-Shape" fill="#EEFCFF"></path>
    </g>
</svg>