<?xml version="1.0" encoding="UTF-8"?>
<svg width="340px" height="217px" viewBox="0 0 340 217" version="1.1" xmlns="http://www.w3.org/2000/svg" xmlns:xlink="http://www.w3.org/1999/xlink">
    <!-- Generator: Sketch 61.2 (89653) - https://sketch.com -->
    <title>desk and chair</title>
    <desc>Created with Sketch.</desc>
    <defs>
        <path d="M114.596616,16.6310447 C114.671201,16.8620036 114.742278,17.0940806 114.809823,17.3271956 C125.266687,53.416436 119.118858,79.9966359 96.3663374,97.0677953 C89.572993,102.164825 82.3191008,105.888451 74.6046608,108.238676 C75.0017712,121.189482 76.7053184,130.446046 79.7149063,136.009224 C82.8358481,141.778237 88.8980273,146.416182 97.9014441,149.923057 L98.4801232,150.145368 C100.545947,150.928092 101.586105,153.237296 100.803381,155.30312 C100.433614,156.279037 99.6970753,157.071795 98.7509425,157.51222 C85.6854099,163.594232 74.3390635,166.635238 64.7119034,166.635238 C54.7877072,166.635238 44.9338864,163.403683 35.1504409,156.940573 L34.5390642,156.532425 C32.7076648,155.296996 32.2245354,152.810841 33.4599644,150.979441 C33.7516165,150.547097 34.1249998,150.175957 34.559095,149.886917 C45.8443287,142.372692 53.2285982,135.580127 56.7119034,129.509224 C59.1151542,125.320701 61.0421259,119.069481 62.4928184,110.755563 C46.7466065,112.594942 29.2941249,109.346338 10.1359204,101.011087 L9.0988242,100.55564 C2.03003654,97.4226159 -1.16053007,89.1524133 1.9724942,82.0836256 C2.15335193,81.6755711 2.35362017,81.2763989 2.5726127,80.8874769 C10.6937093,66.4647337 16.780318,56.8352487 20.832439,51.9990222 C37.6938717,31.8748183 45.4870912,26.7057764 56.7119034,17.1879348 C65.4647532,9.76614148 74.4330361,4.51026977 83.6167521,1.42031967 L84.382561,1.16783903 C96.9959882,-2.90549554 110.523281,4.01761744 114.596616,16.6310447 Z" id="path-1"></path>
    </defs>
    <g id="desk-and-chair" stroke="none" stroke-width="1" fill="none" fill-rule="evenodd">
        <g id="desk">
            <path d="M268.196122,157.409793 L142,140.525703 L142,140.525703 L142,23 L253.889269,34.6076121 C268.158048,36.0878832 279,48.1127874 279,62.458144 L279,147.355025 C279,150.199856 277.846764,152.923171 275.803741,154.902846 C273.785205,156.858793 270.98203,157.782527 268.196122,157.409793 Z" id="Path-8" fill="#D0C0DD"></path>
            <path d="M90.0651599,13.1408211 L34.6488884,39.6842711 C13.4744365,49.8264729 2.55464701e-14,71.2208761 0,94.6989866 L0,186.606321 C7.72425798e-15,191.659457 3.76971363,195.918556 8.7854398,196.532289 L145.878069,213.307202 C149.571232,213.759105 153.315801,213.116716 156.647181,211.459738 L158.667768,210.454729 C163.034639,208.282714 165.795591,203.825843 165.795591,198.948628 L165.795591,109.683696 C165.795591,84.9931878 180.920847,62.8234937 203.910263,53.8174955 L235.447748,41.4628296 C249.332071,36.0237096 264.996817,42.8698992 270.435937,56.754222 C271.665208,59.8921567 272.296146,63.2324949 272.296146,66.6026199 L272.296146,158.991401 L272.296146,158.991401 L274.677625,157.398046 C280.503099,153.500446 284,146.953401 284,139.944305 L284,61.3458192 C284,39.9797275 268.312041,21.8545255 247.166817,18.7903216 L147.605137,4.36260587 C127.979028,1.5185405 107.950452,4.57407101 90.0651599,13.1408211 Z" id="Path-7" fill="#FAF5FB"></path>
        </g>
        <g id="Path-29" transform="translate(220.000000, 50.000000)">
            <mask id="mask-2" fill="white">
                <use xlink:href="#path-1"></use>
            </mask>
            <use id="Mask" fill="#FFCC9C" xlink:href="#path-1"></use>
            <path d="M79.0999008,68.1943186 C86.9660614,69.7073246 93.7817658,84.9557017 86.5730872,90.0243595 C72.0256885,100.253111 61.9224794,104.057636 42.6807709,101.006867 C33.4803817,99.5481468 24.5781137,96.1145987 16.237799,91.9656015 C13.9263472,90.81574 12.4661136,88.1219278 11.7777061,85.6337384 C7.32299894,69.5325838 18.3064457,66.0230894 31.0849263,64.4845217 C53.0530289,64.4845217 47.017746,62.0235199 79.0999008,68.1943186 Z" id="Path-30" fill="#FFAC5B" mask="url(#mask-2)"></path>
            <path d="M124.768166,10 L129.12281,183.695776 L29.7119034,194.324702 L1.76816632,121 L-6,94.2196505 C33.3000558,84.9610744 58.2227779,75.0579489 68.7681663,64.510274 C75.0412566,58.2358236 89.8512158,46.6599778 96.3379019,22.7080681 C98.0946243,16.2214192 97.2344721,8.6520632 93.7574453,-1.42108547e-14 L124.768166,10 Z" fill="#FAF5FB" mask="url(#mask-2)"></path>
        </g>
    </g>
</svg>