<?xml version="1.0" encoding="UTF-8"?>
<svg width="223px" height="81px" viewBox="0 0 223 81" version="1.1" xmlns="http://www.w3.org/2000/svg" xmlns:xlink="http://www.w3.org/1999/xlink">
    <!-- Generator: Sketch 61.2 (89653) - https://sketch.com -->
    <title>flute</title>
    <desc>Created with Sketch.</desc>
    <g id="flute" stroke="none" stroke-width="1" fill="none" fill-rule="evenodd">
        <g id="Flute" transform="translate(1.000000, 2.000000)">
            <path d="M206.980894,1.96154621 C210.891495,0.775749233 215.130597,2.07888104 217.699814,5.25662294 C218.065445,5.70885476 218.34161,6.22657927 218.51355,6.78212978 C219.261452,9.19865473 217.908767,11.7639302 215.492242,12.5118328 L215.492242,12.5118328 L12.8489371,75.2289454 C8.99835018,76.4206833 4.85338449,74.63111 3.0801597,71.0113127 C2.93939199,70.7239545 2.82201174,70.4257191 2.72915884,70.1195025 C1.77469123,66.9717947 3.55266368,63.6463245 6.70037145,62.6918569 L6.70037145,62.6918569 L183.874342,8.96775012 C185.617827,5.99260981 190.816713,2.66083404 196.396098,1.87815046 L196.396098,1.87815046 L200.118506,1.87815046 C201.438655,2.09716521 202.587761,2.49174883 203.527591,3.00845833 Z" id="Combined-Shape" stroke="#210D3E" stroke-width="6" fill="#E6E6E6"></path>
            <path d="M206.980894,1.96154621 L6.70037145,62.6918569 C3.55266368,63.6463245 1.77469123,66.9717947 2.72915884,70.1195025 C2.82201174,70.4257191 2.93939199,70.7239545 3.0801597,71.0113127 C4.85338449,74.63111 8.99835018,76.4206833 12.8489371,75.2289454 L215.492242,12.5118328 C217.908767,11.7639302 219.261452,9.19865473 218.51355,6.78212978 C218.34161,6.22657927 218.065445,5.70885476 217.699814,5.25662294 C215.130597,2.07888104 210.891495,0.775749233 206.980894,1.96154621 Z" id="Path-28" fill="#E6E6E6"></path>
            <path d="M196.396098,1.87815046 C184.373182,3.56474134 174.117114,17.0880854 196.396098,13.3727972 C209.868964,11.1260349 208.193387,3.2177855 200.118506,1.87815046 L196.396098,1.87815046 Z" id="Path-40" stroke="#210D3E" fill="#E6E6E6"></path>
            <path d="M196.243175,6.82239624 C184.337001,11.0010637 201.305038,11.0053699 195.753789,7.1942892" id="Path-41" stroke="#210D3E" fill="#210D3E"></path>
            <path d="M52.4498137,52.8922911 C54.9350951,52.8922911 56.9498137,53.7877216 56.9498137,54.8922911 C56.9498137,55.9968606 54.9350951,56.8922911 52.4498137,56.8922911 C49.9645324,56.8922911 47.9498137,55.9968606 47.9498137,54.8922911 C47.9498137,53.7877216 49.9645324,52.8922911 52.4498137,52.8922911 Z M64.4498137,48.8922911 C66.9350951,48.8922911 68.9498137,49.7877216 68.9498137,50.8922911 C68.9498137,51.9968606 66.9350951,52.8922911 64.4498137,52.8922911 C61.9645324,52.8922911 59.9498137,51.9968606 59.9498137,50.8922911 C59.9498137,49.7877216 61.9645324,48.8922911 64.4498137,48.8922911 Z M76.4498137,44.8922911 C78.9350951,44.8922911 80.9498137,45.7877216 80.9498137,46.8922911 C80.9498137,47.9968606 78.9350951,48.8922911 76.4498137,48.8922911 C73.9645324,48.8922911 71.9498137,47.9968606 71.9498137,46.8922911 C71.9498137,45.7877216 73.9645324,44.8922911 76.4498137,44.8922911 Z M88.4498137,40.8922911 C90.9350951,40.8922911 92.9498137,41.7877216 92.9498137,42.8922911 C92.9498137,43.9968606 90.9350951,44.8922911 88.4498137,44.8922911 C85.9645324,44.8922911 83.9498137,43.9968606 83.9498137,42.8922911 C83.9498137,41.7877216 85.9645324,40.8922911 88.4498137,40.8922911 Z M100.449814,37.8922911 C102.935095,37.8922911 104.949814,38.7877216 104.949814,39.8922911 C104.949814,40.9968606 102.935095,41.8922911 100.449814,41.8922911 C97.9645324,41.8922911 95.9498137,40.9968606 95.9498137,39.8922911 C95.9498137,38.7877216 97.9645324,37.8922911 100.449814,37.8922911 Z M112.449814,33.8922911 C114.935095,33.8922911 116.949814,34.7877216 116.949814,35.8922911 C116.949814,36.9968606 114.935095,37.8922911 112.449814,37.8922911 C109.964532,37.8922911 107.949814,36.9968606 107.949814,35.8922911 C107.949814,34.7877216 109.964532,33.8922911 112.449814,33.8922911 Z M124.449814,29.8922911 C126.935095,29.8922911 128.949814,30.7877216 128.949814,31.8922911 C128.949814,32.9968606 126.935095,33.8922911 124.449814,33.8922911 C121.964532,33.8922911 119.949814,32.9968606 119.949814,31.8922911 C119.949814,30.7877216 121.964532,29.8922911 124.449814,29.8922911 Z M136.449814,26.8922911 C138.935095,26.8922911 140.949814,27.7877216 140.949814,28.8922911 C140.949814,29.9968606 138.935095,30.8922911 136.449814,30.8922911 C133.964532,30.8922911 131.949814,29.9968606 131.949814,28.8922911 C131.949814,27.7877216 133.964532,26.8922911 136.449814,26.8922911 Z M148.449814,22.8922911 C150.935095,22.8922911 152.949814,23.7877216 152.949814,24.8922911 C152.949814,25.9968606 150.935095,26.8922911 148.449814,26.8922911 C145.964532,26.8922911 143.949814,25.9968606 143.949814,24.8922911 C143.949814,23.7877216 145.964532,22.8922911 148.449814,22.8922911 Z" id="Combined-Shape" fill="#210D3E"></path>
        </g>
    </g>
</svg>