<?xml version="1.0" encoding="UTF-8"?>
<svg width="100px" height="100px" viewBox="0 0 100 100" version="1.1" xmlns="http://www.w3.org/2000/svg" xmlns:xlink="http://www.w3.org/1999/xlink">
    <!-- Generator: Sketch 61.2 (89653) - https://sketch.com -->
    <title>handIcon-hover</title>
    <desc>Created with Sketch.</desc>
    <defs>
        <path d="M13.365,9.53802981 L13.365,47.025 L13.365,47.025 L13.365,30.2468372 C13.365,26.5561944 10.3731428,23.5643372 6.6825,23.5643372 C2.99185716,23.5643372 8.4298108e-15,26.5561944 0,30.2468372 L0,52.7052639 C1.97095751e-15,68.7993533 13.0468373,81.8461906 29.1409267,81.8461906 L30.69,81.8461906 C47.0928571,81.8461906 60.39,68.5490476 60.39,52.1461906 L60.39,13.365 C60.39,10.0844286 57.7305714,7.425 54.45,7.425 C51.1694286,7.425 48.51,10.0844286 48.51,13.365 L48.51,34.65 L48.51,34.65 L48.51,8.30472849 C48.51,5.16486668 45.9646391,2.61950576 42.8247773,2.61950576 C42.7172134,2.61950576 42.6096713,2.62255841 42.5022807,2.62866001 C39.1305655,2.82023041 36.4945613,5.61025549 36.4945613,8.98740847 L36.4945613,34.65 L36.4945613,34.65 L36.4945613,5.88196198 C36.4945613,2.63344408 33.8611172,1.63572666e-14 30.6125993,1.40687462e-14 C27.3640814,1.46654892e-14 24.7306373,2.63344408 24.7306373,5.88196198 L24.7306373,34.65 L24.7306373,34.65 L24.7306373,8.6693913 C24.7306373,5.75309232 22.3665099,3.38896488 19.4502109,3.38896488 C19.3159337,3.38896488 19.1817054,3.39408673 19.0478187,3.40431926 C15.8415683,3.64936249 13.365,6.32242916 13.365,9.53802981 Z" id="path-1"></path>
        <path d="M13.365,9.53802981 L13.365,47.025 L13.365,47.025 L13.365,30.2468372 C13.365,26.5561944 10.3731428,23.5643372 6.6825,23.5643372 C2.99185716,23.5643372 8.4298108e-15,26.5561944 0,30.2468372 L0,52.7052639 C1.97095751e-15,68.7993533 13.0468373,81.8461906 29.1409267,81.8461906 L30.69,81.8461906 C47.0928571,81.8461906 60.39,68.5490476 60.39,52.1461906 L60.39,13.365 C60.39,10.0844286 57.7305714,7.425 54.45,7.425 C51.1694286,7.425 48.51,10.0844286 48.51,13.365 L48.51,34.65 L48.51,34.65 L48.51,8.30472849 C48.51,5.16486668 45.9646391,2.61950576 42.8247773,2.61950576 C42.7172134,2.61950576 42.6096713,2.62255841 42.5022807,2.62866001 C39.1305655,2.82023041 36.4945613,5.61025549 36.4945613,8.98740847 L36.4945613,34.65 L36.4945613,34.65 L36.4945613,5.88196198 C36.4945613,2.63344408 33.8611172,1.63572666e-14 30.6125993,1.40687462e-14 C27.3640814,1.46654892e-14 24.7306373,2.63344408 24.7306373,5.88196198 L24.7306373,34.65 L24.7306373,34.65 L24.7306373,8.6693913 C24.7306373,5.75309232 22.3665099,3.38896488 19.4502109,3.38896488 C19.3159337,3.38896488 19.1817054,3.39408673 19.0478187,3.40431926 C15.8415683,3.64936249 13.365,6.32242916 13.365,9.53802981 Z" id="path-3"></path>
        <linearGradient x1="92.3265274%" y1="50%" x2="0%" y2="50%" id="linearGradient-5">
            <stop stop-color="#FFC183" offset="0%"></stop>
            <stop stop-color="#FFD13D" stop-opacity="0" offset="27.3991765%"></stop>
            <stop stop-color="#FF2800" offset="100%"></stop>
        </linearGradient>
    </defs>
    <g id="handIcon-hover" stroke="none" stroke-width="1" fill="none" fill-rule="evenodd">
        <g id="Path-2-+-Path-2-+-Path-2-+-Path-2-+-Path-2-Mask" transform="translate(20.000000, 9.000000)">
            <mask id="mask-2" fill="white">
                <use xlink:href="#path-1"></use>
            </mask>
            <path stroke="#210D3E" stroke-width="6" d="M23.0554225,1.21289865 C24.6209559,-1.31563942 27.4200759,-3 30.6125993,-3 C33.7016582,-3 36.4223995,-1.42304521 38.0137085,0.969749518 C39.2832927,0.200476226 40.7528374,-0.276780387 42.3321044,-0.366509441 C42.4961633,-0.375830761 42.6604538,-0.380494236 42.8247773,-0.380494236 C46.5083792,-0.380494236 49.6563777,1.91269664 50.9190467,5.14935237 C52.0022149,4.68320537 53.1959539,4.425 54.45,4.425 C59.3874257,4.425 63.39,8.42757434 63.39,13.365 L63.39,52.1461906 C63.39,70.2059019 48.7497113,84.8461906 30.69,84.8461906 L29.1409267,84.8461906 C11.389983,84.8461906 -3,70.4562075 -3,52.7052639 L-3,30.2468372 C-3,24.8993401 1.33500291,20.5643372 6.6825,20.5643372 C7.98623152,20.5643372 9.22978088,20.8220077 10.365,21.2892005 L10.365,9.53802981 C10.365,4.75425098 14.0493366,0.777588093 18.8192052,0.413042626 C19.0291578,0.396996635 19.239646,0.388964882 19.4502109,0.388964882 C20.7424556,0.388964882 21.9655624,0.684979103 23.0554225,1.21289865 Z"></path>
            <mask id="mask-4" fill="white">
                <use xlink:href="#path-3"></use>
            </mask>
            <use id="Mask" stroke="#210D3E" stroke-width="0.99" fill="#FDCBFF" xlink:href="#path-3"></use>
            <rect id="Rectangle" fill="url(#linearGradient-5)" style="mix-blend-mode: screen;" mask="url(#mask-4)" x="0" y="-8.91" width="63.36" height="104.94"></rect>
            <path d="M18.81,13.86 C20.4502857,13.86 21.78,12.5302857 21.78,10.89 L21.78,7.92 C21.78,6.27971429 20.4502857,4.95 18.81,4.95 C17.1697143,4.95 15.84,6.27971429 15.84,7.92 L15.84,10.89 C15.84,12.5302857 17.1697143,13.86 18.81,13.86 Z" id="Path-2" fill="#DA84DD" mask="url(#mask-4)"></path>
            <path d="M30.69,10.89 C32.3302857,10.89 33.66,9.56028571 33.66,7.92 L33.66,4.95 C33.66,3.30971429 32.3302857,1.98 30.69,1.98 C29.0497143,1.98 27.72,3.30971429 27.72,4.95 L27.72,7.92 C27.72,9.56028571 29.0497143,10.89 30.69,10.89 Z" id="Path-2" fill="#DA84DD" mask="url(#mask-4)"></path>
            <path d="M42.57,13.86 C44.2102857,13.86 45.54,12.5302857 45.54,10.89 L45.54,7.92 C45.54,6.27971429 44.2102857,4.95 42.57,4.95 C40.9297143,4.95 39.6,6.27971429 39.6,7.92 L39.6,10.89 C39.6,12.5302857 40.9297143,13.86 42.57,13.86 Z" id="Path-2" fill="#DA84DD" mask="url(#mask-4)"></path>
            <path d="M54.45,18.81 C56.0902857,18.81 57.42,17.4802857 57.42,15.84 L57.42,12.87 C57.42,11.2297143 56.0902857,9.9 54.45,9.9 C52.8097143,9.9 51.48,11.2297143 51.48,12.87 L51.48,15.84 C51.48,17.4802857 52.8097143,18.81 54.45,18.81 Z" id="Path-2" fill="#DA84DD" mask="url(#mask-4)"></path>
            <path d="M4.95,34.65 C6.59028571,34.65 7.92,33.3202857 7.92,31.68 L7.92,28.71 C7.92,27.0697143 6.59028571,25.74 4.95,25.74 C3.30971429,25.74 1.98,27.0697143 1.98,28.71 L1.98,31.68 C1.98,33.3202857 3.30971429,34.65 4.95,34.65 Z" id="Path-2" fill="#DA84DD" mask="url(#mask-4)"></path>
        </g>
    </g>
</svg>