<?xml version="1.0" encoding="UTF-8"?>
<svg width="100px" height="100px" viewBox="0 0 100 100" version="1.1" xmlns="http://www.w3.org/2000/svg" xmlns:xlink="http://www.w3.org/1999/xlink">
    <!-- Generator: Sketch 61.2 (89653) - https://sketch.com -->
    <title>handIcon-selected</title>
    <desc>Created with Sketch.</desc>
    <defs>
        <path d="M13.365,9.53802981 L13.365,47.025 L13.365,47.025 L13.365,30.2468372 C13.365,26.5561944 10.3731428,23.5643372 6.6825,23.5643372 C2.99185716,23.5643372 8.4298108e-15,26.5561944 0,30.2468372 L0,52.7052639 C1.97095751e-15,68.7993533 13.0468373,81.8461906 29.1409267,81.8461906 L30.69,81.8461906 C47.0928571,81.8461906 60.39,68.5490476 60.39,52.1461906 L60.39,13.365 C60.39,10.0844286 57.7305714,7.425 54.45,7.425 C51.1694286,7.425 48.51,10.0844286 48.51,13.365 L48.51,34.65 L48.51,34.65 L48.51,8.30472849 C48.51,5.16486668 45.9646391,2.61950576 42.8247773,2.61950576 C42.7172134,2.61950576 42.6096713,2.62255841 42.5022807,2.62866001 C39.1305655,2.82023041 36.4945613,5.61025549 36.4945613,8.98740847 L36.4945613,34.65 L36.4945613,34.65 L36.4945613,5.88196198 C36.4945613,2.63344408 33.8611172,1.63572666e-14 30.6125993,1.40687462e-14 C27.3640814,1.46654892e-14 24.7306373,2.63344408 24.7306373,5.88196198 L24.7306373,34.65 L24.7306373,34.65 L24.7306373,8.6693913 C24.7306373,5.75309232 22.3665099,3.38896488 19.4502109,3.38896488 C19.3159337,3.38896488 19.1817054,3.39408673 19.0478187,3.40431926 C15.8415683,3.64936249 13.365,6.32242916 13.365,9.53802981 Z" id="path-1"></path>
        <path d="M13.365,9.53802981 L13.365,47.025 L13.365,47.025 L13.365,30.2468372 C13.365,26.5561944 10.3731428,23.5643372 6.6825,23.5643372 C2.99185716,23.5643372 8.4298108e-15,26.5561944 0,30.2468372 L0,52.7052639 C1.97095751e-15,68.7993533 13.0468373,81.8461906 29.1409267,81.8461906 L30.69,81.8461906 C47.0928571,81.8461906 60.39,68.5490476 60.39,52.1461906 L60.39,13.365 C60.39,10.0844286 57.7305714,7.425 54.45,7.425 C51.1694286,7.425 48.51,10.0844286 48.51,13.365 L48.51,34.65 L48.51,34.65 L48.51,8.30472849 C48.51,5.16486668 45.9646391,2.61950576 42.8247773,2.61950576 C42.7172134,2.61950576 42.6096713,2.62255841 42.5022807,2.62866001 C39.1305655,2.82023041 36.4945613,5.61025549 36.4945613,8.98740847 L36.4945613,34.65 L36.4945613,34.65 L36.4945613,5.88196198 C36.4945613,2.63344408 33.8611172,1.63572666e-14 30.6125993,1.40687462e-14 C27.3640814,1.46654892e-14 24.7306373,2.63344408 24.7306373,5.88196198 L24.7306373,34.65 L24.7306373,34.65 L24.7306373,8.6693913 C24.7306373,5.75309232 22.3665099,3.38896488 19.4502109,3.38896488 C19.3159337,3.38896488 19.1817054,3.39408673 19.0478187,3.40431926 C15.8415683,3.64936249 13.365,6.32242916 13.365,9.53802981 Z" id="path-3"></path>
        <linearGradient x1="92.3265274%" y1="50%" x2="0%" y2="50%" id="linearGradient-5">
            <stop stop-color="#FFC183" offset="0%"></stop>
            <stop stop-color="#FFD13D" stop-opacity="0" offset="27.3991765%"></stop>
            <stop stop-color="#FF2800" offset="100%"></stop>
        </linearGradient>
    </defs>
    <g id="handIcon-selected" stroke="none" stroke-width="1" fill="none" fill-rule="evenodd">
        <g id="Path-2-+-Path-2-+-Path-2-+-Path-2-+-Path-2-Mask" transform="translate(20.000000, 9.000000)">
            <mask id="mask-2" fill="white">
                <use xlink:href="#path-1"></use>
            </mask>
            <path stroke="#210D3E" stroke-width="9" d="M22.5184103,-0.620103943 C24.4213136,-2.98593578 27.3401421,-4.5 30.6125993,-4.5 C33.7341284,-4.5 36.5338958,-3.12237468 38.4370804,-0.941945215 C39.6094449,-1.46491571 40.8934939,-1.78719122 42.2470163,-1.86409417 C42.4394094,-1.87502535 42.6320739,-1.88049424 42.8247773,-1.88049424 C46.6279333,-1.88049424 49.9442377,0.203965676 51.6935484,3.29274351 C52.5716493,3.0529922 53.4958776,2.925 54.45,2.925 C60.2158528,2.925 64.89,7.59914721 64.89,13.365 L64.89,52.1461906 C64.89,71.034329 49.5781384,86.3461906 30.69,86.3461906 L29.1409267,86.3461906 C10.5615559,86.3461906 -4.5,71.2846347 -4.5,52.7052639 L-4.5,30.2468372 C-4.5,24.070913 0.506575785,19.0643372 6.6825,19.0643372 C7.42936313,19.0643372 8.15912524,19.1375554 8.865,19.2772054 L8.865,9.53802981 C8.865,3.97016188 13.1532207,-0.658299106 18.7048984,-1.08259569 C18.952884,-1.10154841 19.2015022,-1.11103512 19.4502109,-1.11103512 C20.521944,-1.11103512 21.5534151,-0.938653384 22.5184103,-0.620103943 Z"></path>
            <mask id="mask-4" fill="white">
                <use xlink:href="#path-3"></use>
            </mask>
            <use id="Mask" stroke="#210D3E" stroke-width="0.99" fill="#FFD59C" xlink:href="#path-3"></use>
            <rect id="Rectangle" fill="url(#linearGradient-5)" style="mix-blend-mode: screen;" mask="url(#mask-4)" x="0" y="-8.91" width="63.36" height="104.94"></rect>
            <path d="M18.81,13.86 C20.4502857,13.86 21.78,12.5302857 21.78,10.89 L21.78,7.92 C21.78,6.27971429 20.4502857,4.95 18.81,4.95 C17.1697143,4.95 15.84,6.27971429 15.84,7.92 L15.84,10.89 C15.84,12.5302857 17.1697143,13.86 18.81,13.86 Z" id="Path-2" fill="#FF9100" mask="url(#mask-4)"></path>
            <path d="M30.69,10.89 C32.3302857,10.89 33.66,9.56028571 33.66,7.92 L33.66,4.95 C33.66,3.30971429 32.3302857,1.98 30.69,1.98 C29.0497143,1.98 27.72,3.30971429 27.72,4.95 L27.72,7.92 C27.72,9.56028571 29.0497143,10.89 30.69,10.89 Z" id="Path-2" fill="#FF9100" mask="url(#mask-4)"></path>
            <path d="M42.57,13.86 C44.2102857,13.86 45.54,12.5302857 45.54,10.89 L45.54,7.92 C45.54,6.27971429 44.2102857,4.95 42.57,4.95 C40.9297143,4.95 39.6,6.27971429 39.6,7.92 L39.6,10.89 C39.6,12.5302857 40.9297143,13.86 42.57,13.86 Z" id="Path-2" fill="#FF9100" mask="url(#mask-4)"></path>
            <path d="M54.45,18.81 C56.0902857,18.81 57.42,17.4802857 57.42,15.84 L57.42,12.87 C57.42,11.2297143 56.0902857,9.9 54.45,9.9 C52.8097143,9.9 51.48,11.2297143 51.48,12.87 L51.48,15.84 C51.48,17.4802857 52.8097143,18.81 54.45,18.81 Z" id="Path-2" fill="#FF9100" mask="url(#mask-4)"></path>
            <path d="M4.95,34.65 C6.59028571,34.65 7.92,33.3202857 7.92,31.68 L7.92,28.71 C7.92,27.0697143 6.59028571,25.74 4.95,25.74 C3.30971429,25.74 1.98,27.0697143 1.98,28.71 L1.98,31.68 C1.98,33.3202857 3.30971429,34.65 4.95,34.65 Z" id="Path-2" fill="#FF9100" mask="url(#mask-4)"></path>
        </g>
    </g>
</svg>