<?xml version="1.0" encoding="UTF-8"?>
<svg width="60px" height="60px" viewBox="0 0 60 60" version="1.1" xmlns="http://www.w3.org/2000/svg" xmlns:xlink="http://www.w3.org/1999/xlink">
    <!-- Generator: Sketch 61.2 (89653) - https://sketch.com -->
    <title>music-button-muted</title>
    <desc>Created with Sketch.</desc>
    <defs>
        <linearGradient x1="50%" y1="100%" x2="50%" y2="0%" id="linearGradient-1">
            <stop stop-color="#FFECB1" offset="0%"></stop>
            <stop stop-color="#FFAF5F" offset="100%"></stop>
        </linearGradient>
        <path d="M47.5399615,25.1307177 L47.645089,25.7038302 C48.2964075,29.3494815 49.0038235,35.0570912 49.7673369,42.8266594 L49.9541628,44.7572212 C49.9847013,45.0016884 50,45.2491852 50,45.5 C50,49.0898509 46.8659932,52 43,52 C39.1340068,52 36,49.0898509 36,45.5 C36,41.9101491 39.1340068,39 43,39 C43.7792011,39 44.5286663,39.1182203 45.2287285,39.3363986 C45.1645422,36.9464924 44.8517873,34.4930957 44.2915726,31.9774023 C43.8586236,30.0332069 43.4228525,28.3347679 42.9842593,26.8820853 L47.10178,23.0039137 C47.259214,23.7073387 47.4052745,24.4162734 47.5399615,25.1307177 Z M22.995,45.719 L22.9997956,45.5502053 C22.971598,49.0113883 20.0300803,51.8287554 16.3396693,51.9924817 L22.995,45.719 Z M13,12 L36.862,13.416 L26.979,22.728 L21.2740799,22.3661106 C21.664942,23.9119848 21.99589,25.5132866 22.2669237,27.1700162 L18.955,30.29 L18.9097542,30.0760438 C18.0962147,26.4381865 16.1262967,20.4128386 13,12 Z" id="path-2"></path>
        <filter x="-4.1%" y="-3.8%" width="108.1%" height="107.5%" filterUnits="objectBoundingBox" id="filter-3">
            <feGaussianBlur stdDeviation="0.5" in="SourceAlpha" result="shadowBlurInner1"></feGaussianBlur>
            <feOffset dx="0" dy="2" in="shadowBlurInner1" result="shadowOffsetInner1"></feOffset>
            <feComposite in="shadowOffsetInner1" in2="SourceAlpha" operator="arithmetic" k2="-1" k3="1" result="shadowInnerInner1"></feComposite>
            <feColorMatrix values="0 0 0 0 1   0 0 0 0 1   0 0 0 0 1  0 0 0 0.5 0" type="matrix" in="shadowInnerInner1"></feColorMatrix>
        </filter>
    </defs>
    <g id="music-button-muted" stroke="none" stroke-width="1" fill="none" fill-rule="evenodd">
        <path d="M50.1194565,20.1598603 C50.4846246,21.5777264 50.8050502,23.0179664 51.0808827,24.4811975 L51.0808827,24.4811975 L51.2483633,25.4077024 C51.9029306,29.1727319 52.6007712,34.8495715 53.3505974,42.4798973 L53.3505974,42.4798973 L53.5673121,44.7052857 C53.578216,44.8370737 53.586388,44.969208 53.591834,45.1016674 L53.591834,45.1016674 L53.6,45.5 C53.6,51.1401274 48.7970603,55.6 43,55.6 C37.2029397,55.6 32.4,51.1401274 32.4,45.5 C32.4,40.5071003 36.1638732,36.4391195 41.0493196,35.5712336 L41.0493196,35.5712336 L41.287,35.532 L41.2130007,35.0318261 C41.1330988,34.5322516 41.0419813,34.0291514 40.9396213,33.5225164 L40.9396213,33.5225164 L40.7776461,32.7599115 C40.5274181,31.6362405 40.2776124,30.6043117 40.0293794,29.6657928 Z M26.6551964,42.2689272 C26.6505392,42.7699384 26.6445219,43.2832867 26.6371508,43.8090155 L26.6371508,43.8090155 L26.6072142,45.6265885 L26.5996072,45.8084328 L26.591,45.896 L26.5794417,46.1360784 C26.2397023,51.3832373 21.7335942,55.4574077 16.2874877,55.5963365 L16.2874877,55.5963365 L16,55.6 C14.9451251,55.6 13.9231676,55.4523244 12.9570768,55.1767339 Z M5.82092562,42.6647215 C6.84427686,39.3114168 9.63737907,36.7086693 13.1342889,35.7743191 Z M13.0334113,8.39995095 L13.2133507,8.40632758 L40.4619256,10.0237093 L15.8365808,33.2291663 C15.8029128,33.0078497 15.7675619,32.7883458 15.7305339,32.5706692 L15.6182216,31.9432947 L15.4964995,31.3262862 L15.3965324,30.8617108 C14.7174476,27.8250867 13.1315232,22.8626801 10.6510412,16.0425155 L10.6510412,16.0425155 L9.62546912,13.2540101 C8.71968723,10.8165585 10.6176113,8.25222262 13.2133507,8.40632758 Z" id="Combined-Shape" fill="#FF9100" fill-rule="nonzero"></path>
        <g id="Combined-Shape">
            <use fill="url(#linearGradient-1)" fill-rule="evenodd" xlink:href="#path-2"></use>
            <use fill="black" fill-opacity="1" filter="url(#filter-3)" xlink:href="#path-2"></use>
        </g>
        <path d="M54.2854971,3.18052757 C55.290364,2.23363378 56.8725786,2.28063026 57.8194724,3.28549713 C58.7251969,4.24667415 58.7215776,5.73608616 57.8401373,6.69246126 L57.7145029,6.81947243 L5.71450287,55.8194724 C4.70963599,56.7663662 3.12742136,56.7193697 2.18052757,55.7145029 C1.27480308,54.7533259 1.27842242,53.2639138 2.15986266,52.3075387 L2.28549713,52.1805276 L54.2854971,3.18052757 Z" id="Line-4" fill="#F8DC88" fill-rule="nonzero"></path>
    </g>
</svg>