<?xml version="1.0" encoding="UTF-8"?>
<svg width="60px" height="60px" viewBox="0 0 60 60" version="1.1" xmlns="http://www.w3.org/2000/svg" xmlns:xlink="http://www.w3.org/1999/xlink">
    <!-- Generator: Sketch 61.2 (89653) - https://sketch.com -->
    <title>music-button-default</title>
    <desc>Created with Sketch.</desc>
    <defs>
        <linearGradient x1="50%" y1="0%" x2="50%" y2="100%" id="linearGradient-1">
            <stop stop-color="#FFECB1" offset="0%"></stop>
            <stop stop-color="#FFAB5A" offset="100%"></stop>
        </linearGradient>
        <path d="M13,12 L44.2915726,13.8577313 C45.7174407,17.4492016 46.800237,21.2068637 47.5399615,25.1307177 L47.645089,25.7038302 C48.2964075,29.3494815 49.0038235,35.0570912 49.7673369,42.8266594 L49.9541628,44.7572212 C49.9847013,45.0016884 50,45.2491852 50,45.5 C50,49.0898509 46.8659932,52 43,52 C39.1340068,52 36,49.0898509 36,45.5 C36,41.9101491 39.1340068,39 43,39 C43.7792011,39 44.5286663,39.1182203 45.2287285,39.3363986 C45.1645422,36.9464924 44.8517873,34.4930957 44.2915726,31.9774023 C43.4853509,28.3569928 42.669343,25.5887811 41.8435491,23.6727673 L21.2740799,22.3661106 C21.9263282,24.9457765 22.4117332,27.6797919 22.730295,30.568157 C23.0488568,33.456522 23.141375,38.453453 23.0078497,45.5589499 L22.9997956,45.5502053 C22.970738,49.1169446 19.8479548,52 16,52 C12.1340068,52 9,49.0898509 9,45.5 C9,41.9101491 12.1340068,39 16,39 C17.45938,39 18.814452,39.414696 19.9360052,40.1241066 C19.9273443,36.6799183 19.6205875,33.4945254 19.0157665,30.568157 L18.9097542,30.0760438 C18.0962147,26.4381865 16.1262967,20.4128386 13,12 Z" id="path-2"></path>
        <filter x="-3.7%" y="-3.8%" width="107.3%" height="107.5%" filterUnits="objectBoundingBox" id="filter-3">
            <feGaussianBlur stdDeviation="1" in="SourceAlpha" result="shadowBlurInner1"></feGaussianBlur>
            <feOffset dx="0" dy="-1" in="shadowBlurInner1" result="shadowOffsetInner1"></feOffset>
            <feComposite in="shadowOffsetInner1" in2="SourceAlpha" operator="arithmetic" k2="-1" k3="1" result="shadowInnerInner1"></feComposite>
            <feColorMatrix values="0 0 0 0 1   0 0 0 0 1   0 0 0 0 1  0 0 0 0.5 0" type="matrix" in="shadowInnerInner1"></feColorMatrix>
        </filter>
    </defs>
    <g id="music-button-default" stroke="none" stroke-width="1" fill="none" fill-rule="evenodd">
        <path d="M13.2133507,8.40632758 C10.6176113,8.25222262 8.71968723,10.8165585 9.62546912,13.2540101 L10.6510412,16.0425155 C13.1315232,22.8626801 14.7174476,27.8250867 15.3965324,30.8617108 L15.4964995,31.3262862 L15.6182216,31.9432947 C15.813259,32.9803026 15.9690886,34.0605029 16.0850621,35.1822348 L16.106,35.402 L16,35.4 C10.2029397,35.4 5.4,39.8598726 5.4,45.5 C5.4,51.1401274 10.2029397,55.6 16,55.6 L16.2874877,55.5963365 C21.7335942,55.4574077 26.2397023,51.3832373 26.5794417,46.1360784 L26.591,45.896 L26.5996072,45.8084328 L26.6072142,45.6265885 L26.6371508,43.8090155 C26.7254228,37.5132038 26.6195501,32.9928774 26.3085972,30.173501 L26.189898,29.1627073 C26.1063678,28.4926125 26.0140403,27.8300541 25.9128995,27.1750372 L25.764,26.258 L39.285,27.117 L39.3757701,27.3976843 C39.8364377,28.852132 40.3062925,30.6432569 40.7776461,32.7599115 L40.9396213,33.5225164 C41.0419813,34.0291514 41.1330988,34.5322516 41.2130007,35.0318261 L41.287,35.532 L41.0493196,35.5712336 C36.1638732,36.4391195 32.4,40.5071003 32.4,45.5 C32.4,51.1401274 37.2029397,55.6 43,55.6 C48.7970603,55.6 53.6,51.1401274 53.6,45.5 L53.591834,45.1016674 C53.586388,44.969208 53.578216,44.8370737 53.5673121,44.7052857 L53.3505974,42.4798973 C52.6007712,34.8495715 51.9029306,29.1727319 51.2483633,25.4077024 L51.0808827,24.4811975 C50.2956413,20.3156647 49.1490055,16.3364582 47.6375214,12.5293389 C47.1216976,11.2300842 45.9003707,10.3469044 44.5049232,10.2640589 L13.2133507,8.40632758 Z" id="Path" fill="#FF9100" fill-rule="nonzero"></path>
        <g id="Path-Copy">
            <use fill="url(#linearGradient-1)" fill-rule="evenodd" xlink:href="#path-2"></use>
            <use fill="black" fill-opacity="1" filter="url(#filter-3)" xlink:href="#path-2"></use>
        </g>
    </g>
</svg>