<?xml version="1.0" encoding="UTF-8"?>
<svg width="183px" height="154px" viewBox="0 0 183 154" version="1.1" xmlns="http://www.w3.org/2000/svg" xmlns:xlink="http://www.w3.org/1999/xlink">
    <!-- Generator: Sketch 61.2 (89653) - https://sketch.com -->
    <title>my-things</title>
    <desc>Created with Sketch.</desc>
    <g id="my-things" stroke="none" stroke-width="1" fill="none" fill-rule="evenodd">
        <g id="Path-27-+-Path-25-Mask" transform="translate(4.000000, 2.000000)">
            <path d="M69.8943521,1.06344027 L141.93214,9.5730506 C161.564952,11.8922165 176.356996,28.5344468 176.356996,48.3037626 L176.356996,116.017634 C176.356996,119.782801 174.589815,123.329672 171.584073,125.597267 L142.785664,147.323394 C140.260372,149.228528 137.08497,150.059475 133.950186,149.635484 L8.39159934,132.653206 C2.43997007,131.848226 -2,126.767306 -2,120.761485 L-2,55.283197 C-2,38.2001121 6.57002099,22.2563447 20.8182311,12.8318926 L21.0577421,12.6734685 C35.4523757,3.15216487 52.7548787,-0.961194917 69.8943521,1.06344027 Z" id="Mask" stroke="#210D3E" stroke-width="4" fill="#FF82F7"></path>
            <path d="M138.29613,148.205078 L136.526111,68.6420098 C136.21871,54.8242347 142.893783,41.7815234 154.281438,33.9491098 L155.19526,33.3205847 C160.760731,29.4926611 168.375583,30.9012222 172.203506,36.4666938 C173.606096,38.5059386 174.356996,40.9227318 174.356996,43.3977626 L174.356996,121 L174.356996,121 L138.29613,148.205078 Z" id="Path-27" fill="#ED73E5"></path>
            <path d="M-4.54747351e-13,75 L121.971283,89.9196988 C128.696345,90.7423178 135.517042,89.6504831 141.649278,86.7697108 L177.823393,69.776006 L177.823393,69.776006" id="Path-25" stroke="#C558BE" stroke-width="6"></path>
            <path d="M63.8574651,68.4600835 C69.4938769,62.6632485 75.3130223,62.2039767 80.7142357,67.3609237 C84.8426372,71.3026208 85.0539742,79.3325551 79.3689579,85.2246937 C76.8586683,87.8264408 70.8833361,91.8150341 61.3338103,97.3006735 L60.3300573,97.8772704 L59.517854,97.0524614 C53.4798172,90.9207114 49.3894038,85.5954056 47.245373,81.036548 C44.5514169,75.3083833 43.4867279,70.1895339 45.5528231,66.8160335 C49.7884163,59.9001975 55.7482036,59.6641791 60.252315,63.8979952 C61.690611,65.2499779 62.8932493,66.772013 63.8574651,68.4600835 Z" id="Path-26" stroke="#C558BE" stroke-width="3" fill="#FF82F7"></path>
            <circle id="Oval" fill="#C558BE" cx="62" cy="79" r="4"></circle>
            <path d="M63.5,77.5 L63.5,86 C63.5,86.8284271 62.8284271,87.5 62,87.5 C61.1715729,87.5 60.5,86.8284271 60.5,86 L60.5,77.5 L60.5,77.5 L63.5,77.5 Z" id="Line" fill="#C558BE" fill-rule="nonzero"></path>
        </g>
        <path d="M73.8943521,3.06344027 L145.93214,11.5730506 C165.564952,13.8922165 180.356996,30.5344468 180.356996,50.3037626 L180.356996,118.017634 C180.356996,121.782801 178.589815,125.329672 175.584073,127.597267 L146.785664,149.323394 C144.260372,151.228528 141.08497,152.059475 137.950186,151.635484 L12.3915993,134.653206 C6.43997007,133.848226 2,128.767306 2,122.761485 L2,57.283197 C2,40.2001121 10.570021,24.2563447 24.8182311,14.8318926 L25.0577421,14.6734685 C39.4523757,5.15216487 56.7548787,1.03880508 73.8943521,3.06344027 Z" id="Mask" stroke="#210D3E" stroke-width="4"></path>
    </g>
</svg>