<?xml version="1.0" encoding="UTF-8"?>
<svg width="60px" height="60px" viewBox="0 0 60 60" version="1.1" xmlns="http://www.w3.org/2000/svg" xmlns:xlink="http://www.w3.org/1999/xlink">
    <!-- Generator: Sketch 61.2 (89653) - https://sketch.com -->
    <title>panda-default</title>
    <desc>Created with Sketch.</desc>
    <defs>
        <linearGradient x1="50%" y1="0%" x2="50%" y2="100%" id="linearGradient-1">
            <stop stop-color="#DFE2E3" offset="0%"></stop>
            <stop stop-color="#FFFFFF" offset="15.8625422%"></stop>
            <stop stop-color="#A4A4AD" offset="63.8513514%"></stop>
            <stop stop-color="#FAFAFF" offset="99.9551309%"></stop>
        </linearGradient>
        <linearGradient x1="50%" y1="0%" x2="50%" y2="100%" id="linearGradient-2">
            <stop stop-color="#DFE2E3" offset="0%"></stop>
            <stop stop-color="#FFFFFF" offset="15.8625422%"></stop>
            <stop stop-color="#A4A4AD" offset="63.8513514%"></stop>
            <stop stop-color="#FAFAFF" offset="99.9551309%"></stop>
        </linearGradient>
    </defs>
    <g id="panda-default" stroke="none" stroke-width="1" fill="none" fill-rule="evenodd">
        <path d="M56.3679958,9.36069974 C56.4099427,9.40642254 56.4514632,9.45253481 56.4925517,9.49903057 C60.0827698,13.5617206 59.7719961,19.7266972 55.8432095,23.4103866 L55.6212231,23.6124542 L53.5359256,25.4545648 C54.2770398,27.759431 54.6767147,30.2130706 54.6767147,32.7583281 C54.6767147,46.1466338 43.618252,57 29.9769469,57 C16.3356418,57 5.27717912,46.1466338 5.27717912,32.7583281 C5.27717912,30.2016055 5.68046288,27.737328 6.42800411,25.423427 L4.37877687,23.6124542 C0.240851816,19.9557506 -0.149255273,13.6369556 3.5074483,9.49903057 C3.54853682,9.45253481 3.59005725,9.40642254 3.63200422,9.36069974 C7.45582309,5.19268185 13.9131058,4.85432897 18.1515857,8.59989331 L20.2613392,10.4640199 C23.2433775,9.2106072 26.5275903,8.51665619 29.9769469,8.51665619 C33.4382832,8.51665619 36.7333266,9.21543575 39.7236136,10.4770995 L41.8484143,8.59989331 C46.0868942,4.85432897 52.5441769,5.19268185 56.3679958,9.36069974 Z" id="Combined-Shape" fill="url(#linearGradient-1)"></path>
        <ellipse id="Oval" stroke="#ABABAB" stroke-width="2" fill="url(#linearGradient-2)" cx="29.9769469" cy="32.7583281" rx="23.6997678" ry="23.2416719"></ellipse>
        <path d="M18.0935411,8.60314084 C18.1226494,8.62905081 18.1516095,8.65512681 18.18042,8.68136755 L20.2441927,10.5607303 C13.694479,13.4134667 8.60925904,19.0512558 6.44598467,25.9998109 L4.41308326,24.1481606 C0.171677876,20.2850691 -0.171916427,13.7284692 3.64248045,9.44321871 C7.40104955,5.22068741 13.8710098,4.84457174 18.0935411,8.60314084 Z M56.3575195,9.44321871 C60.1038022,13.6519469 59.8392675,20.0516291 55.8104046,23.9386609 L55.5869167,24.1481606 L53.5540153,25.9998109 C51.390741,19.0512558 46.305521,13.4134667 39.7558073,10.5607303 L41.81958,8.68136755 C41.8483905,8.65512681 41.8773506,8.62905081 41.9064589,8.60314084 C46.1289902,4.84457174 52.5989504,5.22068741 56.3575195,9.44321871 Z" id="Combined-Shape" fill="#210D3E"></path>
        <path d="M17.625,22 C22.9407407,22 27.25,26.2532949 27.25,31.5 C27.25,36.7467051 22.9407407,41 17.625,41 C12.3092593,41 8,36.7467051 8,31.5 C8,26.2532949 12.3092593,22 17.625,22 Z M42.375,22 C47.6907407,22 52,26.2532949 52,31.5 C52,36.7467051 47.6907407,41 42.375,41 C37.0592593,41 32.75,36.7467051 32.75,31.5 C32.75,26.2532949 37.0592593,22 42.375,22 Z M20.375,27.4285714 C18.8562169,27.4285714 17.625,28.6437985 17.625,30.1428571 C17.625,31.6419157 18.8562169,32.8571429 20.375,32.8571429 C21.8937831,32.8571429 23.125,31.6419157 23.125,30.1428571 C23.125,28.6437985 21.8937831,27.4285714 20.375,27.4285714 Z M39.625,27.4285714 C38.1062169,27.4285714 36.875,28.6437985 36.875,30.1428571 C36.875,31.6419157 38.1062169,32.8571429 39.625,32.8571429 C41.1437831,32.8571429 42.375,31.6419157 42.375,30.1428571 C42.375,28.6437985 41.1437831,27.4285714 39.625,27.4285714 Z" id="Combined-Shape" fill="#210D3E"></path>
        <path d="M30,43 C32,42.1045695 33,41.1045695 33,40 C33,38.3431458 31.6568542,37 30,37 C28.3431458,37 27,38.3431458 27,40 C27,41.1045695 28,42.1045695 30,43 Z" id="Oval" fill="#250A47"></path>
        <path d="M24,45 C25.3500385,47.231594 27.4848428,48.347391 30.404413,48.347391 C33.3239832,48.347391 35.4587876,47.231594 36.808826,45" id="Path-50" stroke="#250A47" stroke-width="2" stroke-linecap="round"></path>
    </g>
</svg>