<?xml version="1.0" encoding="UTF-8"?>
<svg width="60px" height="60px" viewBox="0 0 60 60" version="1.1" xmlns="http://www.w3.org/2000/svg" xmlns:xlink="http://www.w3.org/1999/xlink">
    <!-- Generator: Sketch 61.2 (89653) - https://sketch.com -->
    <title>panda-hover</title>
    <desc>Created with Sketch.</desc>
    <defs>
        <linearGradient x1="50%" y1="0%" x2="50%" y2="100%" id="linearGradient-1">
            <stop stop-color="#DFE2E3" offset="0%"></stop>
            <stop stop-color="#FFFFFF" offset="15.8625422%"></stop>
            <stop stop-color="#A4A4AD" offset="63.8513514%"></stop>
            <stop stop-color="#FAFAFF" offset="99.9551309%"></stop>
        </linearGradient>
    </defs>
    <g id="panda-hover" stroke="none" stroke-width="1" fill="none" fill-rule="evenodd">
        <path d="M56.3679958,7.36069974 C56.4099427,7.40642254 56.4514632,7.45253481 56.4925517,7.49903057 C60.0827698,11.5617206 59.7719961,17.7266972 55.8432095,21.4103866 L55.6212231,21.6124542 L53.229461,23.7265296 C54.16628,26.4720943 54.6767147,29.4316281 54.6767147,32.5166562 C54.6767147,46.8760597 43.618252,58.5166562 29.9769469,58.5166562 C16.3356418,58.5166562 5.27717912,46.8760597 5.27717912,32.5166562 C5.27717912,29.4196619 5.79158126,26.4491373 6.73535331,23.6945908 L4.37877687,21.6124542 C0.240851816,17.9557506 -0.149255273,11.6369556 3.5074483,7.49903057 L3.63200422,7.36069974 L3.63200422,7.36069974 C7.45582309,3.19268185 13.9131058,2.85432897 18.1515857,6.59989331 L20.3676633,8.55764821 C23.3213725,7.24337624 26.5685366,6.51665619 29.9769469,6.51665619 C33.3973206,6.51665619 36.6553141,7.24848669 39.6173218,8.57150898 L41.8484143,6.59989331 C46.0868942,2.85432897 52.5441769,3.19268185 56.3679958,7.36069974 Z" id="Combined-Shape" fill="#250A47"></path>
        <path d="M56.3575195,7.44321871 C60.1038022,11.6519469 59.8392675,18.0516291 55.8104046,21.9386609 L55.5869167,22.1481606 L53.3743069,24.1633037 C51.1195058,17.1630031 46.1090425,11.5014205 39.7025761,8.6097891 L41.81958,6.68136755 C41.8483905,6.65512681 41.8773506,6.62905081 41.9064589,6.60314084 C46.1289902,2.84457174 52.5989504,3.22068741 56.3575195,7.44321871 Z M18.0935411,6.60314084 C18.1226494,6.62905081 18.1516095,6.65512681 18.18042,6.68136755 L20.2823915,8.59579027 C13.8708359,11.478725 8.85333837,17.1344261 6.58992682,24.1312714 L4.41308326,22.1481606 C0.171677876,18.2850691 -0.171916427,11.7284692 3.64248045,7.44321871 C7.40104955,3.22068741 13.8710098,2.84457174 18.0935411,6.60314084 Z" id="Combined-Shape" fill="#210D3E"></path>
        <ellipse id="Oval" stroke="#ABABAB" stroke-width="2" fill="url(#linearGradient-1)" cx="29.9769469" cy="32.5166562" rx="24.6997678" ry="26"></ellipse>
        <path d="M17.625,18 C22.9407407,18 27.25,22.2532949 27.25,27.5 C27.25,32.7467051 22.9407407,37 17.625,37 C12.3092593,37 8,32.7467051 8,27.5 C8,22.2532949 12.3092593,18 17.625,18 Z M42.375,18 C47.6907407,18 52,22.2532949 52,27.5 C52,32.7467051 47.6907407,37 42.375,37 C37.0592593,37 32.75,32.7467051 32.75,27.5 C32.75,22.2532949 37.0592593,18 42.375,18 Z M20.375,25 C18.8562169,25 17.625,26.2152271 17.625,27.7142857 C17.625,29.2133443 18.8562169,30.4285714 20.375,30.4285714 C21.8937831,30.4285714 23.125,29.2133443 23.125,27.7142857 C23.125,26.2152271 21.8937831,25 20.375,25 Z M39.625,25 C38.1062169,25 36.875,26.2152271 36.875,27.7142857 C36.875,29.2133443 38.1062169,30.4285714 39.625,30.4285714 C41.1437831,30.4285714 42.375,29.2133443 42.375,27.7142857 C42.375,26.2152271 41.1437831,25 39.625,25 Z" id="Combined-Shape" fill="#210D3E"></path>
        <path d="M30,36 C32,35.1045695 33,34.1045695 33,33 C33,31.3431458 31.6568542,30 30,30 C28.3431458,30 27,31.3431458 27,33 C27,34.1045695 28,35.1045695 30,36 Z" id="Oval" fill="#250A47"></path>
        <path d="M30.5,49 C36.2989899,49 41,45.8186507 41,41.8942575 C41,37.9698642 36.2720946,39.1742159 30.4731047,39.1742159 C24.6741149,39.1742159 20,37.9698642 20,41.8942575 C20,45.8186507 24.7010101,49 30.5,49 Z" id="Oval" stroke="#250A47" stroke-width="2" fill="#FF8DF8"></path>
    </g>
</svg>