<?xml version="1.0" encoding="UTF-8"?>
<svg width="134px" height="171px" viewBox="0 0 134 171" version="1.1" xmlns="http://www.w3.org/2000/svg" xmlns:xlink="http://www.w3.org/1999/xlink">
    <!-- Generator: Sketch 61.2 (89653) - https://sketch.com -->
    <title>panda guide</title>
    <desc>Created with Sketch.</desc>
    <g id="panda-guide" stroke="none" stroke-width="1" fill="none" fill-rule="evenodd">
        <path d="M84.6667244,10.1380904 C91.8000188,5.1297327 101.685486,6.1839383 107.591638,12.8174759 C113.943081,19.9511447 113.489268,30.8323727 106.570413,37.4252685 L106.288663,37.6875517 L105.575188,38.3375272 C105.904021,40.3569283 106.070497,42.4101334 106.070497,44.4835736 C106.070497,55.6298539 100.379887,65.764182 91.1689137,72.6906835 C98.438508,75.1731267 104.889523,79.6433298 113.052716,87.5123214 C113.632193,88.0709142 114.25075,88.6470229 114.956818,89.2882219 C115.439897,89.7269188 119.401854,93.2444853 120.654755,94.3999732 C123.024731,96.5856828 125.071147,98.6382675 127.120596,100.93973 C131.427904,105.776692 132.228087,113.590669 129.126364,119.365797 C127.252665,122.854456 124.155405,124.330989 118.239329,124.330989 C116.012121,124.330989 113.99681,123.650988 112.077393,122.463021 C112.098207,122.595643 112.117009,122.717392 112.133265,122.825274 C112.779835,127.116205 113.091864,130.995512 112.940685,134.741455 C112.535637,144.777774 108.773153,151.62069 100.425942,153.29476 C91.7241179,155.03995 85.8343323,153.621177 79.377309,148.981707 C77.8554501,147.888228 76.8180832,147.058396 74.0807936,144.767726 C70.7267385,145.263572 68.2147179,145.512993 66.5067352,145.512993 C64.9549733,145.512993 62.981069,145.308351 60.5665432,144.902868 C58.7672914,146.623945 55.6534104,148.964273 52.5859388,150.658188 C47.2258534,153.618127 42.1195436,154.759154 37.6978024,153.223053 C37.635584,153.201461 37.635584,153.201461 37.573311,153.179942 C37.0558143,153.001294 36.5138022,152.820846 35.8550689,152.606628 C35.4882839,152.48735 34.2437575,152.086573 34.1259318,152.048457 C27.9291341,150.043788 25.10587,148.608463 22.9581309,145.546029 C20.9865765,142.734815 19.8089873,139.158823 19.2046439,134.867931 C18.8100793,132.066488 18.69495,129.708211 18.6807382,125.836479 C18.5031242,125.864916 18.3339518,125.891819 18.2354548,125.907024 C16.2958296,126.206456 14.771479,126.324659 13.1954442,126.204634 C8.48262208,125.845723 5.17798489,123.253075 4.26605165,117.950038 C3.06528861,110.96741 5.43187994,105.882157 11.8805804,97.9298176 C12.1173619,97.637826 12.3641846,97.33521 12.6710076,96.9603469 C12.8147521,96.7847261 13.3443967,96.13843 13.4612452,95.9957019 C13.7604597,95.6302175 13.9982027,95.3389042 14.2265677,95.0576009 C20.4131115,87.4369252 26.5731602,81.2973622 32.4817524,77.3107256 C33.6243154,76.5398172 34.786183,75.8852429 36.0486956,75.2847079 C37.1456218,74.7629369 38.1927457,74.3323272 39.8252678,73.7086808 C40.0500642,73.6228054 40.8700687,73.3111933 41.1036266,73.223097 L42.7326296,72.6584304 C33.6228157,65.7336785 28.0172646,55.6163442 28.0172646,44.4835736 C28.0172646,42.6837262 28.1427047,40.8989409 28.3909836,39.1380275 L26.7987243,37.6878655 C19.6240653,31.1548048 19.042892,20.0646615 25.4954041,12.8174759 C31.5303157,6.03932126 41.6894152,5.10337051 48.834239,10.4375266 C54.393899,7.54002889 60.6073094,6 67.0438809,6 C73.252681,6 79.2552276,7.43275454 84.6667244,10.1380904 Z" id="Combined-Shape" stroke="#210D3E" stroke-width="4" fill="#210D3E"></path>
        <path d="M41.7586566,75.141521 C38.9294145,76.2206064 36.3513516,77.1404909 33.6003775,78.9959305 C27.244049,83.2830605 20.9756891,89.9403766 15.7793196,96.3389491 C10.451036,102.899955 4.7606082,109.040993 6.23712003,117.623936 C8.07556741,128.310805 20.6801333,122.562727 20.6801333,123.812334 C20.6801333,129.235874 20.4920792,138.551554 24.5955805,144.400499 C27.3280214,148.295196 32.851994,149.423347 38.3541211,151.334058 C47.6030964,154.545928 60.120494,142.964063 60.120494,142.402153 C60.120494,141.840243 73.6965406,141.840243 73.6965406,141.840243 C82.0635082,148.832249 87.3506887,153.876534 100.032665,151.334058 C115.892029,148.154581 110.040523,123.143786 109.389887,118.43203 C109.128785,116.541196 112.541048,122.342076 118.239329,122.342076 C123.93761,122.342076 126.036607,120.903353 127.364409,118.43203 C130.03928,113.453524 129.414717,106.540304 125.626972,102.288384 C120.364618,96.3811464 115.740167,92.9029357 111.664688,88.9758048 C92.9611391,70.9530686 83.1306709,70.5502311 47.3966478,73.1869541 L41.7586566,75.141521 Z" id="Path-64" fill="#7F78D2"></path>
        <path d="M48.6357389,12.8821477 C48.6828734,12.9240646 48.7297489,12.9662719 48.7763628,13.008767 L51.8708185,15.8283487 C42.0484751,20.1101597 34.4223512,28.5725406 31.1782101,39.002453 L28.1307543,36.2241598 C21.7680255,30.4236437 21.2524472,20.585071 26.9740527,14.1512902 C32.6052981,7.81911671 42.3035654,7.25090223 48.6357389,12.8821477 Z M106.025947,14.1512902 C111.666967,20.4944544 111.24526,30.1471762 105.134613,35.9766852 L104.869246,36.2241598 L101.82179,39.002453 C98.5776488,28.5725406 90.9515249,20.1101597 81.1291815,15.8283487 L84.2236372,13.008767 C84.2702511,12.9662719 84.3171266,12.9240646 84.3642611,12.8821477 C90.6964346,7.25090223 100.394702,7.81911671 106.025947,14.1512902 Z" id="Combined-Shape" fill="#7F78D2"></path>
        <path d="M66.873578,79.002453 C84.436078,79.002453 104,64.5136333 104,44.4076166 C104,24.3015999 87.4345357,8.002453 67,8.002453 C46.5654643,8.002453 30,24.3015999 30,44.4076166 C30,64.5136333 49.311078,79.002453 66.873578,79.002453 Z" id="Oval" fill="#F0EDF5"></path>
        <path d="M49.8320183,56.9976929 C31.3691469,59.3425342 26.9950866,35.82748 47.8421689,30.6920287 C68.6892512,25.5565773 68.2753851,54.6553286 49.8320183,56.9976929 Z M92.0583606,55.5855301 C73.8092932,62.6621823 62.5455122,32.9734995 81.7528907,29.3654139 C100.960269,25.7573283 106.186594,50.1068616 92.0583606,55.5855301 Z M53.5625,36.3712444 C51.2843254,36.3712444 49.4375,38.2260648 49.4375,40.5141016 C49.4375,42.8021384 51.2843254,44.6569587 53.5625,44.6569587 C55.8406746,44.6569587 57.6875,42.8021384 57.6875,40.5141016 C57.6875,38.2260648 55.8406746,36.3712444 53.5625,36.3712444 Z M82.4375,36.3712444 C80.1593254,36.3712444 78.3125,38.2260648 78.3125,40.5141016 C78.3125,42.8021384 80.1593254,44.6569587 82.4375,44.6569587 C84.7156746,44.6569587 86.5625,42.8021384 86.5625,40.5141016 C86.5625,38.2260648 84.7156746,36.3712444 82.4375,36.3712444 Z" id="Combined-Shape" fill="#7F78D2"></path>
        <path d="M67.5,60.002453 C70.5,58.6593072 72,57.1593072 72,55.502453 C72,53.0171716 69.9852814,51.002453 67.5,51.002453 C65.0147186,51.002453 63,53.0171716 63,55.502453 C63,57.1593072 64.5,58.6593072 67.5,60.002453 Z" id="Oval" fill="#7F78D2"></path>
        <line x1="67.5" y1="57.502453" x2="67" y2="66.002453" id="Line" stroke="#7F78D2" stroke-width="2" stroke-linecap="round" stroke-linejoin="round"></line>
        <path d="M35,106.259045 C38.0433666,100.634372 39.6200732,97.7539166 39.7301198,97.6176779 C43.6359648,92.7822087 45.4955415,90.763161 51.8693327,88.3605174 C58.243124,85.9578737 56.3421745,85.9578737 64.6698163,85.9578737 C72.9974581,85.9578737 71.7143621,85.9578737 78.7851076,88.3605174 C85.8558531,90.763161 92.2180676,95.5132125 94.2815784,99.9550126 C95.6572523,102.916213 97.2300595,105.765036 99,108.501481 C94.6795766,107.369863 91.1848737,107.670454 88.5158914,109.403253 C84.5124179,112.002453 84.5124179,113.539242 81.9786476,116.478672 C80.443685,118.259384 79.8700538,117.878089 79.1957455,119.923865 C78.952841,120.660809 78.6583502,122.126308 78.312273,124.320361 C76.3724895,126.594567 75.1031389,129.236316 74.5042212,132.245609 C73.7755031,135.907091 73.7755031,139.549304 74.5042212,143.172248 C70.8959314,143.725718 68.2421167,144.002453 66.5427769,144.002453 C64.8434372,144.002453 62.5162813,143.725718 59.5613091,143.172248 C60.5581287,140.09677 60.5581287,136.892673 59.5613091,133.559956 C58.5644895,130.22724 56.466543,127.761312 53.2674698,126.162173 C51.6084321,117.498043 49.9991847,112.293277 48.4397276,110.547875 C45.6023702,107.3722 39.95573,106.534104 38.3310312,106.259045 C37.2478987,106.075672 36.137555,106.075672 35,106.259045 Z" id="Path-65" fill="#F0EDF5"></path>
        <path d="M20,125.494885 C23.2443258,113.331829 33.7511753,104.985204 40.1642957,106.45555 C53.5625,109.527378 53.5625,124.454326 53.5625,133.559956" id="Path-66" stroke="#210D3E" stroke-width="2" stroke-linecap="round"></path>
        <path d="M111.859284,121.053554 C97.1051465,97.654072 78.9619392,110.122144 78.3125,129.635779 C78.29929,130.0327 78.3125,133.159479 78.3125,133.559956" id="Path-67" stroke="#210D3E" stroke-width="2" stroke-linecap="round"></path>
        <path d="M34.4385423,107.031851 C39.04144,91.9506161 39.04144,96.196788 45.0216974,85.3617254" id="Path-68" stroke="#210D3E" stroke-width="2" stroke-linecap="round"></path>
        <path d="M87.6614691,85.3617254 C90.8496499,91.3725688 93.0429179,95.7838243 94.241273,98.5954919 C95.4396281,101.40716 96.7574291,104.652561 98.194676,108.331696" id="Path-69" stroke="#210D3E" stroke-width="2" stroke-linecap="round"></path>
    </g>
</svg>