<?xml version="1.0" encoding="UTF-8"?>
<svg width="125px" height="171px" viewBox="0 0 125 171" version="1.1" xmlns="http://www.w3.org/2000/svg" xmlns:xlink="http://www.w3.org/1999/xlink">
    <!-- Generator: Sketch 61.2 (89653) - https://sketch.com -->
    <title>panda guide</title>
    <desc>Created with Sketch.</desc>
    <g id="panda-guide" stroke="none" stroke-width="1" fill="none" fill-rule="evenodd">
        <g id="Group-2" transform="translate(4.000000, 4.000000)">
            <path d="M49.3004499,0 C58.2568141,0 66.4699183,2.92425161 72.870754,7.7904225 C82.5280235,-2.58441736 100.486348,16.7179865 84.2689843,22.8567288 C85.5845802,26.3465901 86.3004499,30.0964733 86.3004499,34 C86.3004499,43.7783538 81.8083318,52.5925867 74.6169774,58.7951856 C93.7905489,69.9946317 107.562202,89.9040985 99.2673785,106.587277 C97.78997,109.558753 96.0430302,112.598431 93.4442486,114.662103 C90.9365974,116.653408 87.6925013,117.691803 84.5445866,118.278528 C84.1535305,118.351415 83.7722285,118.419288 83.4004797,118.482247 C81.6518595,124.18669 79.2596806,129.156374 76.2923378,133.375533 C79.4670062,132.830398 82.9909053,132.522501 85.7503021,131.442468 C101.963369,125.096643 92.046061,121.914752 106.707571,119.710511 C124.401628,117.05035 119.396693,156.593123 95.4041002,153.946572 C87.1670319,153.037966 79.8500447,148.221994 72.073017,145.359705 L72.073017,145.359705 L69.6049354,145.957444 C68.9483086,144.419393 68.5172264,143.078362 68.280865,141.906427 C62.3689995,146.5941 55.2045334,149.461835 47.0315653,150.458348 C46.5968059,153.717488 45.094672,156.360733 42.1646679,157.558712 C18.6641527,167.167278 6.63886239,166.717418 6.63886239,135.438103 L6.63886239,135.438103 L14.0259675,141.933957 C14.155157,141.964148 14.2811127,141.990541 14.4039375,142.013235 C7.71380736,136.781391 2.86021311,129.357023 3.55611799,120.136855 C3.82879897,116.524056 4.44297843,112.709019 5.24612318,109.021801 C4.48019474,106.959751 3.8933021,104.78596 3.34856065,103.000846 C-1.37574078,87.5193437 10.6523431,65.2005055 23.7804247,58.6153176 C23.7671282,58.606696 23.7547932,58.5958798 23.7424663,58.5850559 L20.2202117,60.0429444 C21.0252278,59.1877939 21.8609937,58.3925379 22.724755,57.6552036 C16.2728498,51.5380549 12.3004499,43.1953157 12.3004499,34 C12.3004499,28.8636363 13.5399062,23.9932909 15.7589694,19.6277444 L13.0941959,23.1419311 C-14.4521418,18.3906527 7.77221291,-15.3927895 22.4031035,10.6503166 C29.1483139,4.09312724 38.7042048,0 49.3004499,0 Z" id="Combined-Shape" stroke="#210D3E" stroke-width="7" fill="#F4F4F4"></path>
            <path d="M6.63886239,103.390956 C5.17846907,108.664909 3.97135079,114.635361 3.55611799,120.136855 C2.16075894,138.624216 23.0767562,149.891697 36.3565392,150.728639 C62.5561262,152.379838 81.0031551,137.872105 85.6797752,108.535586 C86.3949499,104.049283 84.4702439,99.4487367 83.0093052,95.1946627 C73.0756495,66.2690771 57.2095824,58.3663686 30.6209674,65.6740937 C14.6008606,70.0771263 15.6390609,80.0800741 11.2372066,94.0814641 L6.63886239,103.390956 Z" id="Path-32" fill="#F4F4F4"></path>
            <path d="M6.63886239,135.438103 C6.63886239,166.717418 18.6641527,167.167278 42.1646679,157.558712 C53.0777759,153.096712 44.1824939,128.585012 34.1541151,126.864091 C14.4848918,123.488751 24.1133649,144.291378 14.0259675,141.933957" id="Path-33" fill="#7F78D2"></path>
            <path d="M72.073017,145.359705 C79.8500447,148.221994 87.1670319,153.037966 95.4041002,153.946572 C119.396693,156.593123 124.401628,117.05035 106.707571,119.710511 C92.046061,121.914752 101.963369,125.096643 85.7503021,131.442468 C77.7461663,134.575301 63.3095371,131.211413 69.6049354,145.957444 L72.073017,145.359705 Z" id="Path-34" fill="#7F78D2"></path>
            <path d="M24.4943633,58.2732957 C11.0933077,64.390215 -1.46126207,87.239091 3.34856065,103.000846 C4.88287764,108.028792 6.75158909,116.1402 12.0082703,116.181087 L16.5545108,118.891263 C22.7176195,118.939201 29.7165442,119.739211 34.8701609,116.358909 C44.1763788,110.25488 26.0080977,90.1298755 34.8701609,84.5581705 C39.2680421,81.7931602 51.0038366,74.4490752 74.7108242,90.3262191 C85.087168,97.2755079 52.9197413,124.172929 84.5445866,118.278528 C87.6925013,117.691803 90.9365974,116.653408 93.4442486,114.662103 C96.0430302,112.598431 97.78997,109.558753 99.2673785,106.587277 C115.332034,74.276821 48.6288614,29.8650728 20.2202117,60.0429444" id="Path-31" fill="#7F78D2"></path>
            <path d="M72,8.22662662 C81.6880758,-5.75949882 103.812403,19.0033729 82.6300254,24.2477526 L72,8.22662662 Z" id="Path-36" fill="#7F78D2"></path>
            <ellipse id="Oval" fill="#F4F4F4" cx="49.3004499" cy="34" rx="37" ry="34"></ellipse>
            <path d="M13.0941959,23.1419311 C-14.4969326,18.382927 7.84461882,-15.5027311 22.4744132,10.7778311" id="Path-35" fill="#7F78D2"></path>
            <path d="M48.3004499,30.187639 C42.2437899,36.0947568 38.1777876,45.6102749 30.1304697,47.9089923 C26.3531904,48.9879726 27.5093264,40.1963088 27.3452673,36.1734896 C26.7829389,22.3848846 48.3553851,12.1071277 47.389903,32.4493199" id="Path-37" fill="#7F78D2"></path>
            <path d="M65.5569045,23.4835792 C45.8285435,22.0366178 52.9425793,35.7515552 65.7298649,46.0445965 C72.8140704,51.7469811 74.6580965,30.3687878 62.1397687,23" id="Path-38" fill="#7F78D2"></path>
            <path d="M53.9804488,42.9973231 C52.1039099,42.9973231 50.1898121,42.6237583 48.3508321,42.9973231 C45.2517051,43.6268703 50.6607899,51.6398587 53.7934142,49.4233851 C61.6664472,43.8528577 55.5237731,43.8712456 53.423061,43.5993019" id="Path-39" fill="#7F78D2"></path>
        </g>
    </g>
</svg>