<?xml version="1.0" encoding="UTF-8"?>
<svg width="95px" height="84px" viewBox="0 0 95 84" version="1.1" xmlns="http://www.w3.org/2000/svg" xmlns:xlink="http://www.w3.org/1999/xlink">
    <!-- Generator: Sketch 61.2 (89653) - https://sketch.com -->
    <title>Artboard</title>
    <desc>Created with Sketch.</desc>
    <g id="Artboard" stroke="none" stroke-width="1" fill="none" fill-rule="evenodd">
        <path d="M80,0 C88.2842712,0 95,6.71572875 95,15 C95,20.5153572 92.0233223,25.3354741 87.5888623,27.9414551 C89.1502354,32.3364491 90,37.068988 90,42 C90,65.1959595 71.1959595,84 48,84 C24.8040405,84 6,65.1959595 6,42 C6,37.2398019 6.79191132,32.6645646 8.25117757,28.3988445 C3.35708612,25.9302815 0,20.8571855 0,15 C0,6.71572875 6.71572875,0 15,0 C19.7884929,0 24.0529205,2.24379004 26.7992437,5.73733097 C33.0211671,2.09016019 40.266492,0 48,0 C55.452677,0 62.4519826,1.94111425 68.5199167,5.34534286 C71.271201,2.07687072 75.3930609,0 80,0 Z M48,8 C29.2223185,8 14,23.2223185 14,42 C14,60.7776815 29.2223185,76 48,76 C66.7776815,76 82,60.7776815 82,42 C82,23.2223185 66.7776815,8 48,8 Z M46.56,57.38 C47.52,57.38 48.32,57.7 48.96,58.34 C49.64,59.02 49.98,59.82 49.98,60.74 C49.98,61.54 49.73,62.26 49.23,62.9 C48.73,63.54 48.06,63.94 47.22,64.1 C47.06,64.14 46.82,64.16 46.5,64.16 C45.58,64.16 44.81,63.82 44.19,63.14 C43.57,62.46 43.26,61.66 43.26,60.74 C43.26,59.7 43.66,58.84 44.46,58.16 C45.02,57.64 45.72,57.38 46.56,57.38 Z M49.14,20 C52.62,20 55.54,21.18 57.9,23.54 C59.78,25.42 60.72,27.6 60.72,30.08 C60.72,30.76 60.62,31.6 60.42,32.6 C59.58,36.76 56.78,40 52.02,42.32 L52.02,42.32 L49.26,43.64 L49.26,46.76 C49.26,48.32 49.21,49.28 49.11,49.64 C49.01,50 48.68,50.46 48.12,51.02 C47.36,51.78 46.56,52.16 45.72,52.16 C44.56,52.16 43.64,51.5 42.96,50.18 C42.56,49.38 42.36,47.68 42.36,45.08 C42.36,42.72 42.52,41.12 42.84,40.28 C43.2,39.28 43.6,38.59 44.04,38.21 C44.48,37.83 45.32,37.44 46.56,37.04 C47.84,36.64 49.11,36.08 50.37,35.36 C51.63,34.64 52.48,33.98 52.92,33.38 C53.48,32.62 53.76,31.7 53.76,30.62 C53.76,30.02 53.68,29.54 53.52,29.18 C53.28,28.62 52.72,28.09 51.84,27.59 C50.96,27.09 50.14,26.84 49.38,26.84 C48.58,26.84 47.68,27.08 46.68,27.56 C45.68,28.04 45.02,28.56 44.7,29.12 C43.9,30.44 42.86,31.1 41.58,31.1 C40.14,31.1 39.12,30.38 38.52,28.94 C38.36,28.62 38.28,28.24 38.28,27.8 C38.28,27.12 38.58,26.18 39.18,24.98 C39.62,24.1 40.59,23.19 42.09,22.25 C43.59,21.31 45.06,20.66 46.5,20.3 C47.22,20.1 48.1,20 49.14,20 Z" id="Combined-Shape" fill="#C5C0FF"></path>
    </g>
</svg>