<?xml version="1.0" encoding="UTF-8"?>
<svg width="167px" height="98px" viewBox="0 0 167 98" version="1.1" xmlns="http://www.w3.org/2000/svg" xmlns:xlink="http://www.w3.org/1999/xlink">
    <!-- Generator: Sketch 61.2 (89653) - https://sketch.com -->
    <title>pillows</title>
    <desc>Created with Sketch.</desc>
    <g id="pillows" stroke="none" stroke-width="1" fill="none" fill-rule="evenodd">
        <g id="pillow" stroke="#210D3E" stroke-width="4">
            <path d="M9.80671163,5.68274462 C10.3703701,4.33538226 11.62357,3.40233486 13.0759746,3.24867349 C29.2098672,1.5417264 44.8215871,1.58456714 59.9088199,3.37885903 C75.1013007,5.18566782 89.0293382,9.28426193 101.68235,15.6765232 C102.74799,16.2148813 103.517442,17.2011127 103.780428,18.3656996 C105.930624,27.8875212 106.524149,36.0089018 105.536703,42.7451897 C104.539545,49.5477285 100.50809,59.3710922 93.4465319,72.3293911 C92.779981,73.5525442 91.5251037,74.3408458 90.1338729,74.4103732 C74.0196915,75.2157964 60.7845272,75.1966899 50.4158519,74.349262 C40.0021172,73.4981514 25.5542511,70.5917458 7.03750102,65.6329276 C5.48900613,65.218238 4.33765914,63.9191195 4.11205334,62.3320072 C2.19377208,48.8367949 1.57844011,38.618614 2.28187977,31.6225661 C2.98630847,24.6166817 5.49862228,15.9807496 9.80671163,5.68274462 Z" id="Path" fill="#F1EBF5"></path>
            <path d="M106.316811,36.2548028 C108.760945,32.1884037 110.902733,29.2820355 112.790626,27.506216 C114.44916,25.9461399 117.216465,24.3217911 121.140548,22.5607922 C123.798167,21.3681405 126.868671,21.5355053 129.380919,23.0099518 C131.869961,24.470785 133.989317,25.9465575 135.739966,27.4425309 C138.172115,29.520863 140.647763,32.9695197 143.227381,37.8085821 C150.207905,39.3039868 154.755254,40.6940274 157.035471,42.0816938 C158.659464,43.0700034 160.339884,44.5471697 162.098247,46.5106418 C164.142452,48.793298 164.884825,51.9591853 164.06844,54.9126319 C162.904379,59.1238372 161.359507,62.4750038 159.403963,64.9633526 C157.217425,67.7456299 154.81105,70.057414 152.185319,71.8918959 C151.661357,78.1172624 151.091327,82.4165374 150.453734,84.8637028 C150.065525,86.3537036 149.453553,88.0870847 148.618355,90.0734479 C147.087985,93.7131453 143.364042,95.9303774 139.434925,95.5412533 C134.433952,95.0459875 130.837317,94.5336924 128.598512,93.990156 C125.793777,93.3092235 122.64356,91.9829913 119.131423,90.018134 C113.68142,91.352679 109.465242,92.0899581 106.442727,92.2257042 C104.371197,92.31874 101.616392,92.1856058 98.156326,91.8310234 C93.6198782,91.3661349 90.1480628,87.5817645 90.0749837,83.0221466 C90.0327907,80.3897624 90.1285111,78.3797551 90.3752684,76.9520223 C90.723469,74.9373407 91.2199852,71.1976476 91.8602695,65.7582606 C89.9689434,63.4323878 88.3467335,60.891586 86.9947259,58.1385523 C86.0803721,56.276694 85.1093045,53.8136272 84.0725496,50.73751 C82.5159688,46.1190368 84.9185259,41.1006768 89.4922339,39.4171023 C92.0206543,38.4863937 94.0512469,37.881285 95.6140974,37.6019035 C97.9927863,37.1766794 101.554361,36.7290065 106.316811,36.2548028 Z" id="Path-3" fill="#FFF6A6"></path>
        </g>
    </g>
</svg>