<?xml version="1.0" encoding="UTF-8"?>
<svg width="220px" height="220px" viewBox="0 0 220 220" version="1.1" xmlns="http://www.w3.org/2000/svg" xmlns:xlink="http://www.w3.org/1999/xlink">
    <!-- Generator: Sketch 61.2 (89653) - https://sketch.com -->
    <title>someone-else</title>
    <desc>Created with Sketch.</desc>
    <defs>
        <linearGradient x1="50%" y1="0%" x2="50%" y2="131.505757%" id="linearGradient-1">
            <stop stop-color="#FFC400" offset="0%"></stop>
            <stop stop-color="#FFE7B5" offset="16.7886495%"></stop>
            <stop stop-color="#FF9100" offset="100%"></stop>
        </linearGradient>
        <linearGradient x1="50%" y1="0%" x2="50%" y2="100%" id="linearGradient-2">
            <stop stop-color="#FB9CFF" offset="0%"></stop>
            <stop stop-color="#FCAFFF" offset="50.0805242%"></stop>
            <stop stop-color="#F847FF" offset="100%"></stop>
        </linearGradient>
    </defs>
    <g id="someone-else" stroke="none" stroke-width="1" fill="none" fill-rule="evenodd">
        <path d="M110,26 C156.391919,26 194,63.608081 194,110 C194,156.391919 156.391919,194 110,194 C63.608081,194 26,156.391919 26,110 C26,63.608081 63.608081,26 110,26 Z M72.7494328,157.862641 L71.9837473,158.162825 C67.7880244,159.828068 63.5972694,161.774967 59.4105913,164.004294 C70.3344953,174.244069 84.3673498,181.205355 99.9402888,183.321976 C88.6983343,175.427808 79.6249339,166.938224 72.7494328,157.862641 Z M154.454669,157.453394 L154.009991,157.98268 C146.204448,167.164179 135.791949,175.472007 122.816018,182.893271 C139.011251,180.066771 153.397716,171.972794 164.144702,160.441985 L164.799935,160.659793 C161.313488,159.486505 157.865074,158.417751 154.454669,157.453394 Z M128.2565,151.998297 L128.128762,152.442645 C126.200574,159.042366 123.813976,165.690796 120.970111,172.387324 C130.029511,166.918632 137.544888,161.023183 143.537493,154.694331 C138.350781,153.542316 133.257597,152.64405 128.2565,151.998297 Z M95.2945332,151.812643 L94.6276662,151.914044 C90.6865718,152.527886 86.7512148,153.386591 82.8208676,154.490789 C87.6884686,160.417756 93.671664,166.100824 100.781503,171.545661 C98.6720452,164.594945 96.8426514,158.018217 95.2945332,151.812643 Z M109.5,150.758678 C108.120709,150.758678 106.742227,150.788339 105.364522,150.847686 C106.927573,156.994344 108.775517,163.533293 110.908616,170.462516 C113.777091,163.919778 116.179236,157.441455 118.117398,151.027227 C115.211684,150.848096 112.339517,150.758678 109.5,150.758678 Z M59.0293081,130.027843 L57.9637523,130.096353 C52.0060669,130.48106 45.7225966,130.881714 39.1132865,131.298318 C41.9361917,140.715247 46.5865539,149.342771 52.6511777,156.770191 C53.066132,156.233217 53.5975478,155.774515 54.2325514,155.433328 C58.4927721,153.144318 62.7675128,151.122187 67.0560374,149.367572 C63.4257923,143.172093 60.7470111,136.724074 59.0293081,130.027843 Z M183.261825,120.492679 L170.72038,121.565296 C169.37837,131.313957 166.036391,140.416935 160.722838,148.865817 C163.128109,149.589147 165.550906,150.361443 167.989451,151.182083 C168.955875,151.507311 169.757375,152.099094 170.339631,152.848004 C177.022792,143.454416 181.567125,132.432141 183.261825,120.492679 Z M160.452036,122.442983 L155.729208,122.846041 C147.686813,123.523612 140.29666,124.136231 133.558596,124.683911 C132.996844,130.496368 132.060416,136.34948 130.752381,142.242282 C137.23028,143.12576 143.836761,144.404224 150.571388,146.076385 C155.671821,138.724856 158.95522,130.849854 160.452036,122.442983 Z M90.4487943,127.934134 L90.1782671,127.953396 C83.8084946,128.393069 76.8242075,128.862813 69.2252636,129.36264 C70.872015,135.05987 73.3429651,140.570581 76.6437429,145.897925 C82.0839109,144.185265 87.544087,142.900002 93.0238757,142.043088 C91.9586608,137.06882 91.1001385,132.366064 90.4487943,127.934134 Z M123.422165,125.498393 L123.152673,125.519144 C119.768811,125.786908 116.59031,126.03422 113.617141,126.26108 L103.27439,127.029274 C102.35226,127.095999 101.412624,127.163581 100.455482,127.232019 C101.103358,131.520728 101.958628,136.095857 103.019907,140.955921 C105.177317,140.82469 107.337265,140.758678 109.5,140.758678 C113.200229,140.758678 116.946371,140.900029 120.738388,141.18253 C121.952945,135.911089 122.846964,130.682951 123.422165,125.498393 Z M38.2926561,91.6577881 L38.150637,92.2169431 C36.7454459,97.9133868 36,103.869639 36,110 C36,113.883431 36.2991406,117.696995 36.875636,121.418904 L57.210449,120.120706 C56.8922942,117.307517 56.7329292,114.453748 56.7329292,111.559613 C56.7329292,105.910381 57.2936059,100.375968 58.4117267,94.95779 C52.3245114,94.1753477 45.9215217,93.1613182 39.2022182,91.9163206 C38.885784,91.8576896 38.5818715,91.7704571 38.2926561,91.6577881 Z M68.4088063,96.0590526 L68.2454716,96.813003 C67.2360278,101.636746 66.7329292,106.551808 66.7329292,111.559613 C66.7329292,114.234102 66.8906162,116.871914 67.2066717,119.4733 C75.2490178,118.945993 82.6124843,118.451567 89.2982249,117.990345 C89.1204452,115.811786 89.0047167,113.713226 88.9503333,111.694244 C88.8300379,107.228276 88.9871335,102.298938 89.4210387,96.9039454 C82.9605711,97.0264796 75.9571377,96.7442038 68.4088063,96.0590526 Z M122.358917,91.8218785 L122.101099,91.8937722 C115.267623,93.8003335 109.111064,95.1248559 103.625751,95.8667957 C102.282857,96.0484346 100.909069,96.2067989 99.5043473,96.3419175 C99.0111624,101.918065 98.826075,106.946498 98.9467075,111.424982 C98.9971647,113.298204 99.1059477,115.25319 99.2731049,117.28976 C102.312622,117.074074 105.175657,116.865819 107.863313,116.666157 L119.598764,115.768137 C121.070915,115.652698 122.584929,115.533091 124.140806,115.409318 C124.181001,114.12376 124.201017,112.840326 124.201017,111.559613 C124.201017,105.13897 123.587796,98.5597762 122.358917,91.8218785 Z M152.948105,81.208984 L152.463292,81.4021499 C145.143597,84.3165132 138.317679,86.8114332 131.982061,88.8865765 C133.460928,96.6014471 134.201017,104.159471 134.201017,111.559613 C134.201017,112.572379 134.189451,113.5864 134.166325,114.601674 C142.309104,113.937517 151.383289,113.180965 161.388466,112.331733 C161.393188,112.074922 161.394693,111.817495 161.394693,111.559613 C161.394693,100.851551 158.596244,90.7366776 152.948105,81.208984 Z M173.604708,72.1565085 L173.539461,72.2162097 C173.167266,72.5443196 172.739527,72.8221513 172.26214,73.0343688 L170.283417,73.9100669 C167.563908,75.1081578 164.90059,76.2588034 162.29333,77.3619912 C168.33145,87.9778868 171.381108,99.3522298 171.394648,111.478487 C175.324,111.141331 179.382508,110.791698 183.568824,110.42934 C183.712611,110.416894 183.855502,110.410664 183.997232,110.410426 L184,110 C184,96.1717318 180.207028,83.2293598 173.604708,72.1565085 Z M97.4002844,49.6352733 L97.230432,49.7906073 C84.7414031,61.2952983 76.1242874,73.4461102 71.3126667,86.2721478 C78.2339551,86.8400746 84.6229136,87.0407613 90.4778938,86.8767366 C91.8644089,76.0242796 94.1734024,63.6149556 97.4002844,49.6352733 Z M107.663819,49.6594633 L107.580252,50.0106796 C104.392527,63.6132483 102.085985,75.6686782 100.657193,86.1634753 C101.206645,86.0980931 101.748985,86.0295849 102.285364,85.9570348 C107.511462,85.2501562 113.47582,83.9477514 120.172384,82.0492397 C117.420861,71.6164881 113.253673,60.8202566 107.663819,49.6594633 Z M96.3767495,37.2533547 L95.6653008,37.3873774 C70.9704486,42.234661 50.6794129,59.3656815 41.4175186,82.1551138 L41.0240758,82.0836794 C48.085703,83.3921049 54.7674357,84.4347181 61.0676334,85.2127128 C66.9334451,67.9571315 78.7413951,51.9543432 96.3767495,37.2533547 Z M118.00636,48.0308743 L118.214469,48.4637178 C123.236141,58.9285363 127.078988,69.1399701 129.737032,79.0976449 C135.127354,77.31086 140.909483,75.2040575 147.080608,72.7770573 C140.030223,63.9934508 130.35353,55.7465836 118.00636,48.0308743 Z M118.145681,36.4432156 L119.067726,36.9842807 C135.417938,46.6221513 147.987075,57.2515335 156.703834,68.8640663 C160.338322,67.3420723 164.092651,65.7205743 167.965578,64.0007432 C156.001168,48.9386654 138.288959,38.6487833 118.145681,36.4432156 Z" id="Combined-Shape" stroke="#FF9100" stroke-width="2" fill="url(#linearGradient-1)"></path>
        <path d="M45,188 L24.4397599,173.710885 C16.1218957,167.930071 13.2394576,156.960855 17.6409322,147.837714 C20.5467211,141.814751 27.784905,139.287782 33.8078684,142.193571 C35.1375063,142.835057 36.3386255,143.714289 37.3519569,144.787881 L43.5409132,151.344885 L43.5409132,151.344885 L54.1147096,142.749143 C59.4890935,138.380153 67.3876591,139.195185 71.7566496,144.569569 C72.5542737,145.550743 73.1989215,146.646904 73.6687243,147.820868 C77.3752027,157.082778 74.2013906,167.67728 66.0131697,173.375876 L45,188 L45,188 Z" id="Path-2" stroke="#C551FF" stroke-width="2" fill="url(#linearGradient-2)"></path>
        <path d="M175.496155,48.5882355 C175.733374,48.0729422 176.360076,48 177.505777,48 C179.915499,48 182.45889,48.3445742 185.154601,49.0364607 C194.478677,51.6256785 199.447484,58.2184071 199.937982,68.5700687 C199.979712,69.1104847 200,69.878458 200,70.8823529 C200,73.9513043 199.574113,76.476127 198.705513,78.4599114 C197.814728,80.4943641 196.365753,82.1222777 194.391179,83.3195001 C193.658893,83.7754227 192.99176,84.0602402 192.373028,84.1629666 C191.829499,84.2532072 190.884936,84.2941176 189.49294,84.2941176 C187.425789,84.2941176 185.648805,83.9528808 184.189442,83.2684303 L182.744618,82.6334534 L181.876731,83.3474839 C179.995425,84.9600726 177.63772,85.7647059 174.848524,85.7647059 L174.520807,85.7641787 C170.525778,85.6344058 167.71427,83.8643489 166.24698,80.497528 C165.838001,79.5016376 165.640565,78.2778566 165.640565,76.8235294 C165.640565,73.7852119 166.316118,71.1354262 167.667233,68.906448 C168.275957,67.8669246 169.169946,66.8279384 170.345679,65.7822039 C171.57525,64.6885848 172.597131,64.0551868 173.462269,63.9036441 C173.794128,63.834047 174.046908,63.7668978 174.212689,63.7068449 C174.239552,63.6971139 174.250341,63.6933582 174.237946,63.7141183 C174.60338,63.2694068 175.173246,63.1176471 175.911425,63.1176471 C176.728494,63.1176471 177.704321,63.2904619 178.827721,63.6223696 C180.032664,63.9455327 181.011344,64.5162208 181.738305,65.3369494 C182.485507,66.1805291 182.875481,67.1387768 182.875481,68.1764706 C182.875481,68.5332229 182.988215,68.7353653 183.192613,68.8625357 C184.513488,69.4941234 185.340994,70.9003365 185.750806,72.986922 C185.902682,73.7736486 186.330836,74.4667301 187.067575,75.0889599 C187.800786,75.7082109 188.521802,76 189.256739,76 C189.584175,76 189.827355,75.9515506 190.010997,75.8603332 C190.497559,75.6307406 190.823853,75.2369395 191.018511,74.6136556 C191.256235,73.8524735 191.386393,72.4354888 191.386393,70.4117647 C191.386393,67.8803672 191.161454,65.9383743 190.728117,64.6073553 C189.888001,62.0602892 188.578796,60.1933434 186.800691,58.9711573 C184.997872,57.7319842 182.513912,57.0079842 179.318975,56.8206064 C178.834943,56.783516 178.249584,56.7647059 177.564827,56.7647059 C176.669742,56.7647059 175.558931,56.9967242 174.225513,57.4762227 C171.039139,58.559168 168.308499,60.3477693 166.013901,62.8583251 C164.042183,64.9735678 162.671153,66.9660959 161.894581,68.8264022 C161.121255,70.678932 160.731707,72.8132271 160.731707,75.2352941 C160.731707,76.7073391 160.778885,77.7036736 160.863643,78.1764946 C160.940419,78.6047928 161.212263,79.2861634 161.691604,80.2050197 C162.654168,82.1582762 164.326778,83.7528053 166.726219,84.984333 C169.024592,86.1103439 171.573766,86.8439468 174.387567,87.1848969 C176.74966,87.4934912 178.599569,87.6470588 179.926829,87.6470588 C182.649969,87.6470588 185.298314,87.0339594 187.877021,85.8054118 C189.30154,85.1173858 190.584928,84.7647059 191.736842,84.7647059 C193.563389,84.7647059 194.860987,85.7823003 195.476701,87.6771163 C195.617139,88.1900795 195.689345,88.6696072 195.689345,89.1176471 C195.689345,90.0246136 195.327361,90.8323483 194.642365,91.4874216 C194.064227,92.0403048 193.099149,92.6530498 191.702632,93.3694702 C189.788075,94.302787 187.888598,94.9945553 186.002415,95.4438665 C184.425144,95.8159974 182.578032,96 180.45828,96 C178.619219,96 176.058284,95.8813437 172.774557,95.6448609 C170.288224,95.4797412 167.61746,94.7634479 164.760687,93.5031593 C161.905613,92.2436197 159.585141,90.7707614 157.816662,89.0907647 C155.785084,87.2321875 154.301857,85.2031756 153.377337,83.0053977 C152.456645,80.8167206 152,78.2837921 152,75.4117647 L152.000056,75.1070808 C152.041079,71.2248286 152.994712,67.455575 154.855114,63.8101411 C156.709441,60.1766116 159.32551,56.9621664 162.700113,54.1675552 C164.544169,52.6571477 166.708124,51.3556215 169.189621,50.2614678 C171.70606,49.151907 173.799586,48.5886601 175.496155,48.5882355 Z M176.89579,72.0632564 C176.635392,72.0211523 176.365773,72 176.08642,72 C175.811434,72 175.600884,72.0204654 175.462398,72.0547293 C175.421071,72.0649546 175.417055,72.0648917 175.445136,72.0338791 C175.193513,72.3230788 174.869541,72.955358 174.525064,73.8928869 C174.171143,74.8561172 174,75.5997371 174,76.096 C174,76.5366411 174.04439,76.7955217 174.03472,76.7817363 C173.99475,76.7247547 174.131804,76.7888064 174.497176,76.8670974 C174.825929,76.9565709 175.129116,77 175.407407,77 C176.444427,77 177,76.0639706 177,73.632 C177,72.9269486 176.963035,72.3987832 176.896041,72.0645091 C176.895957,72.064091 176.895874,72.0636734 176.89579,72.0632564 Z M175.445136,72.0338791 C175.451912,72.0263961 175.460556,72.0171111 175.470996,72.005734 C175.466326,72.0109119 175.461637,72.0161956 175.456928,72.021585 Z" id="@" stroke="#210D3E" stroke-width="2" fill="#FFFFFF" fill-rule="nonzero" transform="translate(176.000000, 72.000000) rotate(11.000000) translate(-176.000000, -72.000000) "></path>
    </g>
</svg>