<?xml version="1.0" encoding="UTF-8"?>
<svg width="220px" height="220px" viewBox="0 0 220 220" version="1.1" xmlns="http://www.w3.org/2000/svg" xmlns:xlink="http://www.w3.org/1999/xlink">
    <!-- Generator: Sketch 61.2 (89653) - https://sketch.com -->
    <title>myself</title>
    <desc>Created with Sketch.</desc>
    <defs>
        <linearGradient x1="50%" y1="0%" x2="50%" y2="99.8206444%" id="linearGradient-1">
            <stop stop-color="#DFE2E3" offset="0%"></stop>
            <stop stop-color="#FFFFFF" offset="15.8625422%"></stop>
            <stop stop-color="#FAFAFF" offset="99.9551309%"></stop>
        </linearGradient>
        <linearGradient x1="50%" y1="0%" x2="50%" y2="131.505757%" id="linearGradient-2">
            <stop stop-color="#FFC400" offset="0%"></stop>
            <stop stop-color="#FFE7B5" offset="16.7886495%"></stop>
            <stop stop-color="#FF9100" offset="100%"></stop>
        </linearGradient>
        <linearGradient x1="50%" y1="0%" x2="50%" y2="100%" id="linearGradient-3">
            <stop stop-color="#FB9CFF" offset="0%"></stop>
            <stop stop-color="#FCAFFF" offset="50.0805242%"></stop>
            <stop stop-color="#F847FF" offset="100%"></stop>
        </linearGradient>
    </defs>
    <g id="myself" stroke="none" stroke-width="1" fill="none" fill-rule="evenodd">
        <g id="Myself" transform="translate(3.000000, 29.000000)">
            <g id="Group" transform="translate(156.000000, 20.000000)">
                <path d="M55.3755763,3.36229856 C55.4175233,3.40802135 55.4590437,3.45413362 55.5001323,3.50062938 C59.0903503,7.56331944 58.7795767,13.728296 54.85079,17.4119854 L54.6288037,17.614053 L52.2370415,19.7281284 C53.1738606,22.4736931 53.6842953,25.4332269 53.6842953,28.518255 C53.6842953,42.8776585 42.6258326,54.518255 28.9845275,54.518255 C15.3432224,54.518255 4.28475967,42.8776585 4.28475967,28.518255 C4.28475967,25.4212607 4.79916181,22.4507361 5.74293386,19.6961897 L3.38635742,17.614053 C-0.751567635,13.9573494 -1.14167472,7.63855444 2.51502885,3.50062938 L2.63958476,3.36229856 L2.63958476,3.36229856 C6.46340364,-0.805719336 12.9206864,-1.14407222 17.1591663,2.60149212 L19.3752439,4.55924702 C22.3289531,3.24497506 25.5761171,2.518255 28.9845275,2.518255 C32.4049012,2.518255 35.6628946,3.25008551 38.6249023,4.5731078 L40.8559948,2.60149212 C45.0944747,-1.14407222 51.5517575,-0.805719336 55.3755763,3.36229856 Z" id="Combined-Shape" fill="#250A47"></path>
                <path d="M55.3651001,3.44481753 C59.1113827,7.65354572 58.846848,14.0532279 54.8179852,17.9402597 L54.5944973,18.1497594 L52.3818874,20.1649025 C50.1270863,13.1646019 45.1166231,7.50301927 38.7101566,4.61138792 L40.8271605,2.68296637 C40.855971,2.65672562 40.8849311,2.63064963 40.9140395,2.60473965 C45.1365708,-1.15382945 51.606531,-0.777713773 55.3651001,3.44481753 Z M17.1011216,2.60473965 C17.13023,2.63064963 17.1591901,2.65672562 17.1880006,2.68296637 L19.289972,4.59738908 C12.8784165,7.48032385 7.86091891,13.1360249 5.59750737,20.1328702 L3.42066381,18.1497594 C-0.820741575,14.2866679 -1.16433588,7.73006805 2.650061,3.44481753 C6.4086301,-0.777713773 12.8785903,-1.15382945 17.1011216,2.60473965 Z" id="Combined-Shape" fill="#210D3E"></path>
                <ellipse id="Oval" stroke="#ABABAB" stroke-width="2" fill="#FFFFFF" cx="28.9845275" cy="28.518255" rx="24.6997678" ry="26"></ellipse>
                <path d="M16.6325805,14.0015988 C21.9483213,14.0015988 26.2575805,18.2548937 26.2575805,23.5015988 C26.2575805,28.7483039 21.9483213,33.0015988 16.6325805,33.0015988 C11.3168398,33.0015988 7.00758055,28.7483039 7.00758055,23.5015988 C7.00758055,18.2548937 11.3168398,14.0015988 16.6325805,14.0015988 Z M41.3825805,14.0015988 C46.6983213,14.0015988 51.0075805,18.2548937 51.0075805,23.5015988 C51.0075805,28.7483039 46.6983213,33.0015988 41.3825805,33.0015988 C36.0668398,33.0015988 31.7575805,28.7483039 31.7575805,23.5015988 C31.7575805,18.2548937 36.0668398,14.0015988 41.3825805,14.0015988 Z M19.3825805,21.0015988 C17.8637975,21.0015988 16.6325805,22.2168259 16.6325805,23.7158845 C16.6325805,25.2149431 17.8637975,26.4301702 19.3825805,26.4301702 C20.9013636,26.4301702 22.1325805,25.2149431 22.1325805,23.7158845 C22.1325805,22.2168259 20.9013636,21.0015988 19.3825805,21.0015988 Z M38.6325805,21.0015988 C37.1137975,21.0015988 35.8825805,22.2168259 35.8825805,23.7158845 C35.8825805,25.2149431 37.1137975,26.4301702 38.6325805,26.4301702 C40.1513636,26.4301702 41.3825805,25.2149431 41.3825805,23.7158845 C41.3825805,22.2168259 40.1513636,21.0015988 38.6325805,21.0015988 Z" id="Combined-Shape" fill="#210D3E"></path>
                <path d="M29.0075805,32.0015988 C31.0075805,31.1061683 32.0075805,30.1061683 32.0075805,29.0015988 C32.0075805,27.3447446 30.6644348,26.0015988 29.0075805,26.0015988 C27.3507263,26.0015988 26.0075805,27.3447446 26.0075805,29.0015988 C26.0075805,30.1061683 27.0075805,31.1061683 29.0075805,32.0015988 Z" id="Oval" fill="#250A47"></path>
                <path d="M29.5075805,45.0015988 C35.3065704,45.0015988 40.0075805,41.8202495 40.0075805,37.8958563 C40.0075805,33.9714631 35.2796752,35.1758147 29.4806853,35.1758147 C23.6816954,35.1758147 19.0075805,33.9714631 19.0075805,37.8958563 C19.0075805,41.8202495 23.7085907,45.0015988 29.5075805,45.0015988 Z" id="Oval" stroke="#250A47" stroke-width="2" fill="#FF8DF8"></path>
            </g>
            <g id="Panda" transform="translate(0.000000, 91.000000)">
                <path d="M55.3679958,3.36069974 C55.4099427,3.40642254 55.4514632,3.45253481 55.4925517,3.49903057 C59.0827698,7.56172062 58.7719961,13.7266972 54.8432095,17.4103866 L54.6212231,17.6124542 L52.5359256,19.4545648 C53.2770398,21.759431 53.6767147,24.2130706 53.6767147,26.7583281 C53.6767147,40.1466338 42.618252,51 28.9769469,51 C15.3356418,51 4.27717912,40.1466338 4.27717912,26.7583281 C4.27717912,24.2016055 4.68046288,21.737328 5.42800411,19.423427 L3.37877687,17.6124542 C-0.759148184,13.9557506 -1.14925527,7.63695562 2.5074483,3.49903057 C2.54853682,3.45253481 2.59005725,3.40642254 2.63200422,3.36069974 C6.45582309,-0.807318148 12.9131058,-1.14567103 17.1515857,2.59989331 L19.2613392,4.46401992 C22.2433775,3.2106072 25.5275903,2.51665619 28.9769469,2.51665619 C32.4382832,2.51665619 35.7333266,3.21543575 38.7236136,4.47709946 L40.8484143,2.59989331 C45.0868942,-1.14567103 51.5441769,-0.807318148 55.3679958,3.36069974 Z" id="Combined-Shape" fill="#210D3E"></path>
                <path d="M17.0935411,2.60314084 C17.1226494,2.62905081 17.1516095,2.65512681 17.18042,2.68136755 L19.2441927,4.5607303 C12.694479,7.41346665 7.60925904,13.0512558 5.44598467,19.9998109 L3.41308326,18.1481606 C-0.828322124,14.2850691 -1.17191643,7.72846924 2.64248045,3.44321871 C6.40104955,-0.779312585 12.8710098,-1.15542826 17.0935411,2.60314084 Z M55.3575195,3.44321871 C59.1038022,7.65194691 58.8392675,14.0516291 54.8104046,17.9386609 L54.5869167,18.1481606 L52.5540153,19.9998109 C50.390741,13.0512558 45.305521,7.41346665 38.7558073,4.5607303 L40.81958,2.68136755 C40.8483905,2.65512681 40.8773506,2.62905081 40.9064589,2.60314084 C45.1289902,-1.15542826 51.5989504,-0.779312585 55.3575195,3.44321871 Z" id="Combined-Shape" fill="#210D3E"></path>
                <ellipse id="Oval" stroke="#ABABAB" stroke-width="2" fill="url(#linearGradient-1)" stroke-linejoin="bevel" cx="28.9769469" cy="26.7583281" rx="24.6997678" ry="24.2416719"></ellipse>
                <path d="M16.625,16 C21.9407407,16 26.25,20.2532949 26.25,25.5 C26.25,30.7467051 21.9407407,35 16.625,35 C11.3092593,35 7,30.7467051 7,25.5 C7,20.2532949 11.3092593,16 16.625,16 Z M41.375,16 C46.6907407,16 51,20.2532949 51,25.5 C51,30.7467051 46.6907407,35 41.375,35 C36.0592593,35 31.75,30.7467051 31.75,25.5 C31.75,20.2532949 36.0592593,16 41.375,16 Z M19.375,21.4285714 C17.8562169,21.4285714 16.625,22.6437985 16.625,24.1428571 C16.625,25.6419157 17.8562169,26.8571429 19.375,26.8571429 C20.8937831,26.8571429 22.125,25.6419157 22.125,24.1428571 C22.125,22.6437985 20.8937831,21.4285714 19.375,21.4285714 Z M38.625,21.4285714 C37.1062169,21.4285714 35.875,22.6437985 35.875,24.1428571 C35.875,25.6419157 37.1062169,26.8571429 38.625,26.8571429 C40.1437831,26.8571429 41.375,25.6419157 41.375,24.1428571 C41.375,22.6437985 40.1437831,21.4285714 38.625,21.4285714 Z" id="Combined-Shape" fill="#210D3E"></path>
                <path d="M29,37 C31,36.1045695 32,35.1045695 32,34 C32,32.3431458 30.6568542,31 29,31 C27.3431458,31 26,32.3431458 26,34 C26,35.1045695 27,36.1045695 29,37 Z" id="Oval" fill="#250A47"></path>
                <path d="M23,39 C24.3500385,41.231594 26.4848428,42.347391 29.404413,42.347391 C32.3239832,42.347391 34.4587876,41.231594 35.808826,39" id="Path-50" stroke="#250A47" stroke-width="2" stroke-linecap="round"></path>
            </g>
            <path d="M29.928915,35.2160255 L35.3040245,67.7589187 C35.4840274,68.8487227 36.5134093,69.5862622 37.6032132,69.4062593 C37.8295322,69.3688782 38.0477338,69.2928421 38.2482719,69.1814775 L65.8023836,53.8798877 C67.7337045,52.8073698 68.4299018,50.3722773 67.3573839,48.4409564 C67.0034688,47.803649 66.4821213,47.2751754 65.8496772,46.9126413 L54.8137714,40.5865602 L54.8137714,40.5865602 C69.0405558,24.0569034 82.1110921,14.5933435 94.0253804,12.1958807 C105.162002,9.95490453 119.496002,12.3692486 137.027382,19.4389129 C139.212545,20.3200951 141.716369,19.55618 143.037454,17.6052425 L143.723605,16.5919556 C145.072024,14.6006498 144.550862,11.8932672 142.559557,10.5448473 C142.30816,10.374613 142.039648,10.2311381 141.758407,10.116754 C122.728669,2.37789322 106.81766,-0.921057828 94.0253804,0.219900886 C80.1409977,1.45826559 64.1409828,13.1903685 46.0253355,35.4162096 L35.4501833,30.8871952 C33.4194422,30.0174909 31.0681666,30.9586971 30.1984623,32.9894383 C29.8981153,33.6907419 29.8045892,34.4633116 29.928915,35.2160255 Z" id="Path" stroke="#FF9100" stroke-width="2" fill="url(#linearGradient-2)"></path>
            <path d="M66.189709,123.774039 L71.5648185,156.316933 C71.7448214,157.406737 72.7742033,158.144276 73.8640073,157.964273 C74.0903262,157.926892 74.3085278,157.850856 74.5090659,157.739491 L102.063178,142.437902 C103.994499,141.365384 104.690696,138.930291 103.618178,136.99897 C103.264263,136.361663 102.742915,135.833189 102.110471,135.470655 L91.0745654,129.144574 L91.0745654,129.144574 C105.30135,112.614917 118.371886,103.151358 130.286174,100.753895 C141.422796,98.5129185 155.756796,100.927263 173.288176,107.996927 C175.473339,108.878109 177.977163,108.114194 179.298248,106.163256 L179.984399,105.14997 C181.332818,103.158664 180.811656,100.451281 178.820351,99.1028613 C178.568954,98.932627 178.300442,98.789152 178.019201,98.674768 C158.989463,90.9359072 143.078454,87.6369562 130.286174,88.7779149 C116.401792,90.0162796 100.401777,101.748382 82.2861295,123.974224 L71.7109774,119.445209 C69.6802363,118.575505 67.3289606,119.516711 66.4592563,121.547452 C66.1589094,122.248756 66.0653833,123.021326 66.189709,123.774039 Z" id="Path" stroke="#FF9100" stroke-width="2" fill="url(#linearGradient-2)" transform="translate(123.980608, 123.837820) rotate(182.000000) translate(-123.980608, -123.837820) "></path>
            <path d="M107,108.106383 L86.3271892,93.968299 C78.1020444,88.343143 75.2543234,77.5322221 79.6409322,68.584985 C82.5916093,62.5665756 89.8624905,60.0796872 95.8808999,63.0303643 C97.1569518,63.6559809 98.3132061,64.5008574 99.2969666,65.5264888 L105.540913,72.0361901 L105.540913,72.0361901 L116.213453,63.4986236 C121.623174,59.1710832 129.516784,60.0483635 133.844324,65.4580842 C134.599081,66.401582 135.213562,67.449178 135.668724,68.5684071 C139.364304,77.6557215 136.227419,88.0901368 128.133527,93.6331965 L107,108.106383 L107,108.106383 Z" id="Path-2" stroke="#C551FF" stroke-width="2" fill="url(#linearGradient-3)"></path>
        </g>
    </g>
</svg>