<?xml version="1.0" encoding="UTF-8"?>
<svg width="220px" height="220px" viewBox="0 0 220 220" version="1.1" xmlns="http://www.w3.org/2000/svg" xmlns:xlink="http://www.w3.org/1999/xlink">
    <!-- Generator: Sketch 61.2 (89653) - https://sketch.com -->
    <title>postcard-future</title>
    <desc>Created with Sketch.</desc>
    <g id="postcard-future" stroke="none" stroke-width="1" fill="none" fill-rule="evenodd">
        <g id="Group" transform="translate(17.000000, 62.000000)">
            <path d="M176.427624,67.8164539 C178.835951,68.6321573 180.5,70.9033232 180.5,73.5 C180.5,74.7812394 180.096682,76.0020199 179.363041,77.015093 L183.688462,90.3571706 C183.731161,90.4888541 183.769212,90.6219996 183.802544,90.7563598 C184.58714,93.9189698 182.659378,97.118812 179.496768,97.9034075 L179.120393,97.9967804 C178.700101,98.1010485 178.268678,98.1537642 177.835646,98.1537642 C174.88885,98.1537642 172.5,95.7649143 172.5,92.8180889 L172.500811,79.1588329 C170.133061,78.3235419 168.5,76.0725578 168.5,73.5 C168.5,72.2450947 168.886878,71.0480232 169.592555,70.0470624 L160.190474,48.7973424 L91.2455414,32.4530986 C89.3971833,32.0149087 88.2186688,30.233339 88.5608224,28.3837057 L88.6016379,28.1953963 C89.0497478,26.3778149 90.8609637,25.2257208 92.7209131,25.5563497 L92.7348919,25.5590405 L92.9261722,25.5988968 L163.607569,42.355321 C164.618821,42.5950584 165.474017,43.2548267 165.959099,44.1775511 L166.054693,44.375882 L176.427624,67.8164539 Z" id="Combined-Shape" stroke="#FFF6A6" fill="#FFF6A6" fill-rule="nonzero"></path>
            <path d="M166.814001,44.8561745 L176.798102,67.4180763 C179.293635,68.3600642 181,70.7630522 181,73.5 C181,74.7997739 180.616427,76.0429809 179.914681,77.0971715 L184.164083,90.2029482 C184.2104,90.3457913 184.251676,90.4902202 184.287834,90.6359669 C185.13892,94.0665947 183.047789,97.53761 179.617161,98.3886966 L179.240786,98.4820696 C178.781108,98.5961086 178.309258,98.6537642 177.835646,98.6537642 C174.612708,98.6537642 172,96.0410566 172,92.8181311 L171.999833,79.5018006 C169.61645,78.5096572 168,76.1640514 168,73.5 C168,72.238556 168.361259,71.0302212 169.024428,69.9960353 L159.833643,49.2265351 L157.111354,48.5807671 L142.969327,54.0098573 L155.124308,66.2748181 C155.225922,66.3773519 155.319436,66.4875707 155.426071,66.6362286 L155.524009,66.7845861 C156.331018,68.1037323 155.91584,69.8273214 154.596696,70.6342891 C135.674439,82.2102798 114.802072,88 92,88 C69.2146857,88 48.3564211,82.3693091 29.4444077,71.1104603 C29.2515474,70.9956452 29.0731919,70.8580574 28.9131814,70.7006591 C27.8107403,69.6162165 27.7961552,67.8433956 28.8805837,66.7410044 L43.1223287,52.2620559 L6.06208198,35.2565473 C5.18110919,34.8522996 4.4947652,34.1188916 4.13711539,33.1817562 L4.06384258,32.9655597 C3.47186256,31.0097319 4.57747959,28.9443257 6.53330734,28.3523456 L102.090121,-0.570305877 C103.143704,-0.889199169 104.276713,-0.8197021 105.283424,-0.374433423 L180.422749,32.859724 C181.323023,33.2579152 182.027504,33.9984471 182.380308,34.9174559 C183.11267,36.8251637 182.159863,38.9653628 180.252131,39.6977338 L166.814001,44.8561745 Z" id="Combined-Shape" stroke="#210D3E" stroke-width="2" fill="#210D3E"></path>
            <path d="M60.1205477,36.4085519 L29.5935062,67.4422473 C28.8963538,68.1509474 28.9057335,69.2906159 29.6144448,69.9877569 C29.7173091,70.0889418 29.8319665,70.1773914 29.9559485,70.2512014 C48.711774,81.4170671 69.3931245,87 92,87 C114.619246,87 135.310859,81.2604186 154.074839,69.7812559 C154.922872,69.262484 155.189766,68.1544641 154.670976,67.3064427 C154.598292,67.1876331 154.512065,67.0776609 154.414024,66.9787333 L124,36.2895295 C106.550507,18.6821571 78.1313026,18.5541705 60.5239302,36.0036634 C60.3886115,36.1377688 60.2541479,36.2727344 60.1205477,36.4085519 Z" id="Path-12" fill="#341562"></path>
            <path d="M6.47913603,34.3476656 L89.3366745,72.3680956 C90.2173326,72.7721989 91.2237074,72.8042399 92.1282876,72.4569751 L179.893762,38.7641539 C181.285873,38.229728 181.981164,36.6679611 181.446738,35.27585 C181.189286,34.6052219 180.675205,34.0648337 180.018249,33.7742618 L104.878923,0.540104366 C104.091063,0.191633227 103.20436,0.137244216 102.379817,0.38681288 L6.82300319,29.3094644 C5.39577754,29.7414498 4.58897592,31.2486382 5.02096134,32.6758638 C5.24507164,33.4162962 5.77602016,34.0250303 6.47913603,34.3476656 Z" id="Path-11" fill="#210D3E"></path>
            <path d="M89.0871016,28.3150834 C89.4731958,26.7490443 91.0371994,25.7648873 92.6334038,26.0486323 L92.8108341,26.0854121 L163.492231,42.8418363 C164.365662,43.0489004 165.100099,43.6179921 165.50897,44.3952291 L165.597461,44.5782164 L176.744277,69.7697249 C177.422498,71.3024849 176.705177,73.0841736 175.142096,73.7492379 C173.63484,74.39055 171.89154,73.7593938 171.160823,72.3391621 L171.083862,72.1781359 L160.547298,48.3680742 L91.3608795,31.9665833 C89.7638616,31.5879786 88.7602364,30.0543133 89.0495943,28.489072 L89.0871016,28.3150834 Z" id="Path-13" fill="#FFF6A6" fill-rule="nonzero"></path>
            <path d="M173,73 L173,92.8181186 C173,95.4887719 175.164992,97.6537642 177.835646,97.6537642 C178.228099,97.6537642 178.619093,97.6059885 179,97.5114913 L179.376375,97.4181183 C182.270968,96.700014 184.03536,93.7713448 183.317255,90.8767526 C183.286747,90.7537789 183.251921,90.6319169 183.21284,90.5113931 L177.534687,73 L177.534687,73 L173,73 Z" id="Path-14" fill="#FFF6A6"></path>
            <circle id="Oval" fill="#FF9100" cx="174.5" cy="73.5" r="5.5"></circle>
        </g>
    </g>
</svg>