<?xml version="1.0" encoding="UTF-8"?>
<svg width="117px" height="69px" viewBox="0 0 117 69" version="1.1" xmlns="http://www.w3.org/2000/svg" xmlns:xlink="http://www.w3.org/1999/xlink">
    <!-- Generator: Sketch 61.2 (89653) - https://sketch.com -->
    <title>postcards</title>
    <desc>Created with Sketch.</desc>
    <g id="postcards" stroke="none" stroke-width="1" fill="none" fill-rule="evenodd">
        <g transform="translate(2.000000, 5.000000)">
            <path d="M41.2944765,0.0667682116 L41.4981812,0.0805450506 L78.5145634,4.17144331 C79.230264,4.25053959 79.8726348,4.64679969 80.2644692,5.25091 C80.9857585,6.36295679 80.6689869,7.8491693 79.5569401,8.57045854 L79.5569401,8.57045854 L76.9124245,10.2850196 L101.289112,9.09782463 C102.395255,9.04391537 103.386655,9.75260311 103.70297,10.799328 L103.745284,10.958819 L109.747152,37.1458203 C109.776215,37.2726269 109.79492,37.4015867 109.803081,37.531425 C109.88623,38.8542978 108.881236,39.9941041 107.558363,40.0772538 L107.558363,40.0772538 L60.5674245,43.0310196 L50.2901516,58.9152202 C49.690691,59.8416594 48.5426897,60.2339551 47.510687,59.8864657 L47.3488,59.8254212 L3.52806882,41.4899583 C3.19459821,41.3504275 2.89695416,41.1373708 2.65735874,40.8666948 C1.77881696,39.8741875 1.87120422,38.3574026 2.86371144,37.4788609 L2.86371144,37.4788609 L17.4074245,24.6040196 L6.82024406,22.6424759 C6.15664164,22.5194847 5.57844557,22.1235218 5.22332382,21.5561379 L5.13210664,21.397223 C4.51655266,20.2233408 4.96916715,18.7727161 6.14304941,18.1571621 L6.14304941,18.1571621 L40.119989,0.340519604 C40.5432538,0.118570314 41.023146,0.0280461148 41.4981812,0.0805450506 Z" id="Combined-Shape" stroke="#210D3E" stroke-width="8" fill="#FFC039"></path>
            <path d="M22.5807879,20.0258138 L2.86371144,37.4788609 C1.87120422,38.3574026 1.77881696,39.8741875 2.65735874,40.8666948 C2.89695416,41.1373708 3.19459821,41.3504275 3.52806882,41.4899583 L47.3488,59.8254212 C48.420328,60.2737698 49.6591404,59.8904194 50.2901516,58.9152202 L67.1535006,32.8536808 C67.8735712,31.7408445 67.5551716,30.25498 66.4423353,29.5349094 C66.2126174,29.3862684 65.9591735,29.2780036 65.6929608,29.2147956 L24.725957,19.4878249 C23.9659584,19.3073752 23.1656874,19.5080759 22.5807879,20.0258138 Z" id="Path-13" fill="#FF82F7"></path>
            <path d="M40.119989,0.340519604 L6.14304941,18.1571621 C4.96916715,18.7727161 4.51655266,20.2233408 5.13210664,21.397223 C5.47402485,22.0492726 6.09631414,22.5083037 6.82024406,22.6424759 L45.5772657,29.8256509 C46.1812905,29.9376001 46.8052481,29.8136681 47.3206398,29.4793778 L79.5569401,8.57045854 C80.6689869,7.8491693 80.9857585,6.36295679 80.2644692,5.25091 C79.8726348,4.64679969 79.230264,4.25053959 78.5145634,4.17144331 L41.4981812,0.0805450506 C41.023146,0.0280461148 40.5432538,0.118570314 40.119989,0.340519604 Z" id="Path-11" fill="#91FFE2"></path>
            <path d="M42.6,21.6676132 L42.0698743,41.5741307 C42.0345882,42.8991444 43.0801189,44.0018852 44.4051325,44.0371713 C44.4766369,44.0390756 44.5481907,44.0377821 44.6195795,44.033295 L107.558363,40.0772538 C108.881236,39.9941041 109.88623,38.8542978 109.803081,37.531425 C109.79492,37.4015867 109.776215,37.2726269 109.747152,37.1458203 L103.745284,10.958819 C103.485508,9.82537838 102.450562,9.04121991 101.289112,9.09782463 L44.8831717,11.8468379 C43.6046214,11.9091496 42.6,12.9639248 42.6,14.2439927 L42.6,21.6676132 L42.6,21.6676132 Z" id="Path-12" fill="#FFFFFF"></path>
            <path d="M73.375374,15.3130766 C73.7036982,23.1520696 74.0320223,30.9910626 74.3603465,38.8300556" id="Path-9" stroke="#210D3E" stroke-linecap="round"></path>
            <path d="M48.7427573,18.2544238 L68.3435268,19.0109357 L48.7427573,18.2544238 Z" id="Path-10" stroke="#210D3E" stroke-linecap="round" stroke-linejoin="round" transform="translate(58.543142, 18.632680) scale(1, -1) translate(-58.543142, -18.632680) "></path>
            <path d="M50,30.7480142 L67.7427573,30 L50,30.7480142 Z" id="Path-42" stroke="#210D3E" stroke-linecap="round" stroke-linejoin="round"></path>
            <line x1="50" y1="24.6972667" x2="67.7427573" y2="24" id="Path-43" stroke="#210D3E" stroke-linecap="round"></line>
            <path d="M89.6099993,14.9804874 L90.3544947,20.4525193 C90.4247397,20.968819 90.8796611,21.3446531 91.399941,21.3162164 L100.349237,20.8270783 C100.900699,20.7969373 101.323312,20.3254552 101.293171,19.7739935 C101.291186,19.7376663 101.287219,19.7014745 101.28129,19.6655796 L100.386069,14.2465038 C100.303237,13.7450978 99.8575057,13.3855566 99.3499273,13.4107193 L90.551357,13.8469013 C89.9997497,13.8742468 89.5747514,14.3435808 89.6020969,14.8951881 C89.6035114,14.923721 89.606148,14.9521802 89.6099993,14.9804874 Z" id="Path-44" fill="#FDCBFF"></path>
        </g>
    </g>
</svg>