<?xml version="1.0" encoding="UTF-8"?>
<svg width="220px" height="220px" viewBox="0 0 220 220" version="1.1" xmlns="http://www.w3.org/2000/svg" xmlns:xlink="http://www.w3.org/1999/xlink">
    <!-- Generator: Sketch 61.2 (89653) - https://sketch.com -->
    <title>postcard-past</title>
    <desc>Created with Sketch.</desc>
    <defs>
        <polygon id="path-1" points="68.7760456 0 5.18696197e-13 28.7520495 3.6065595e-13 121.923015 75.5565721 142 146 107.131046 146 21.9206983"></polygon>
        <polygon id="path-3" points="68.7760456 0 5.18696197e-13 28.7520495 3.6065595e-13 121.923015 75.5565721 142 146 107.131046 146 21.9206983"></polygon>
    </defs>
    <g id="postcard-past" stroke="none" stroke-width="1" fill="none" fill-rule="evenodd">
        <g id="Path-15-+-Path-16-Mask" transform="translate(37.000000, 39.000000)">
            <mask id="mask-2" fill="white">
                <use xlink:href="#path-1"></use>
            </mask>
            <path stroke="#B9700E" stroke-width="2" d="M68.7128469,-1.05744698 L147,21.1650496 L147,107.751857 L75.6631848,143.063031 L-1,122.691996 L-1,28.0862353 L68.7128469,-1.05744698 Z"></path>
            <mask id="mask-4" fill="white">
                <use xlink:href="#path-3"></use>
            </mask>
            <use id="Mask" fill="#FFF6A6" xlink:href="#path-3"></use>
            <polygon id="Path-2" fill="#FFD271" fill-rule="nonzero" mask="url(#mask-4)" points="0 29 75 47.278743 75 142 0 121.972378"></polygon>
            <path d="M68.6852436,-3.65929509e-13 L146,21.9206983 L145.807,21.989 L145.807243,107.131046 L75.4568181,142 L-2.84217094e-13,122.328196 L-2.84217094e-13,28.7520495 L68.6852436,-3.65929509e-13 Z M10.0689655,41.5882234 L10.0689655,114.529645 L65.3866034,128.950981 L65.3866034,55.0752053 L10.0689655,41.5882234 Z M135.737207,36.2456334 L85.5245345,54.2530744 L85.5245345,125.754506 L135.737207,100.867393 L135.737207,36.2456334 Z M69.1649828,7.99812325 L24.1327931,26.8491311 L75.0452586,39.2617947 L121.206431,22.7536078 L69.1649828,7.99812325 Z" id="Combined-Shape" fill="#FF9100" fill-rule="nonzero" mask="url(#mask-4)"></path>
            <path d="M146,22 L146,107.154074 L76,142 L76,47.2121361 L146,22 Z M135.980124,36.3154748 L86.0175678,54.3110235 L86.0175678,125.765234 L135.980124,100.894557 L135.980124,36.3154748 Z" id="Path-16" fill="#FFA42D" fill-rule="nonzero" mask="url(#mask-4)"></path>
            <path d="M68.6852436,0 L146,21.8511949 L75.4568181,47 L0,28.660886 L68.6852436,0 Z M69.1649828,7.9727638 L24.1327931,26.7640012 L75.0452586,39.1373083 L121.206431,22.6814635 L69.1649828,7.9727638 Z" id="Path" fill="#FFA42D" fill-rule="nonzero" mask="url(#mask-4)"></path>
        </g>
        <path d="M72.3901372,103.307326 C74.4252078,101.363594 75.6950905,100.56327 78.2505249,101.232673 C80.2789913,101.764035 81.3575403,103.212103 81.7825178,104.861316 C81.9666279,105.575793 82.0159058,106.283808 81.9958177,107.125776 L81.9813983,107.528455 C81.9421741,108.35912 81.8392219,109.361376 81.6470625,110.890804 L80.8862072,116.722614 C80.8082792,117.336573 80.7345052,117.930465 80.6612132,118.534962 C79.8057581,125.590572 79.2133255,132.588385 78.9001452,140.732817 C78.8060277,143.180399 76.7145506,145.089433 74.2287005,144.996764 C71.7428504,144.904095 69.8039681,142.844816 69.8980857,140.397234 C70.1465339,133.936195 70.8726493,125.644895 71.5588165,118.92029 L71.7254242,117.300949 L70.8536367,118.269957 C69.1903319,120.091271 66.3424052,120.24012 64.4926144,118.602421 C62.7088875,117.023212 62.5046117,114.359442 63.9836782,112.538128 L69.171874,106.767873 C70.6267457,105.165033 71.944001,103.733439 72.3901372,103.307326 Z" id="Path-10" stroke="#210D3E" stroke-width="2" fill="#FF9100" fill-rule="nonzero"></path>
        <path d="M150.862992,96.0406938 C158.533267,95.4401666 162.360441,101.555785 158.884546,109.779857 C156.39698,115.665513 153.848157,120.804948 151.097191,125.69628 L150.873597,126.089624 L151.466676,125.804123 C153.351439,124.8994 155.217769,124.019916 157.177237,123.116106 L158.666044,122.432913 C160.908369,121.409144 163.561099,122.386013 164.591081,124.614811 C165.621064,126.843609 164.638266,129.480336 162.395941,130.504105 C159.441431,131.853033 156.753247,133.121186 153.958065,134.474631 L146.206462,138.260447 L145.468125,138.607143 C143.841474,139.360349 142.857377,139.731735 141.877428,139.898602 C140.043938,140.21081 138.215211,139.869149 136.876625,137.923128 C135.755921,136.293861 135.848834,134.853519 136.383219,133.327777 C136.661449,132.533393 137.051277,131.784208 137.837106,130.474873 L139.846823,127.205635 C140.480544,126.174926 141.034193,125.260145 141.596489,124.309587 C144.858465,118.795241 147.790339,113.09671 150.646144,106.33979 C150.815092,105.940053 150.948961,105.577818 151.050787,105.25521 L151.140396,104.946791 L151.003921,104.967941 C148.796905,105.359104 145.99252,107.007274 144.774154,108.697609 L144.624411,108.918226 C143.305528,110.991175 140.545706,111.608915 138.460176,110.297988 C136.374647,108.987061 135.753157,106.243888 137.072041,104.170939 C139.831018,99.8345312 145.761199,96.4401274 150.862992,96.0406938 Z" id="Path-17" stroke="#210D3E" stroke-width="2" fill="#FF9100" fill-rule="nonzero"></path>
        <path d="M119.942575,54.5092111 C120.27265,56.1859295 119.146216,57.8060839 117.426615,58.1279273 C114.814935,58.6167336 112.320904,59.0549105 109.803911,59.4721463 L107.034185,59.9214973 L107.670222,60.1115907 C109.066484,60.5312619 110.440814,60.9518401 111.819713,61.3826555 C116.972908,59.6432437 119.278483,58.7012289 121.070717,57.5235695 C122.53631,56.5605429 124.507956,56.9636157 125.474512,58.4238578 C126.441067,59.8840999 126.036518,61.8485474 124.570925,62.8115741 L124.149677,63.0819416 C122.725528,63.9741383 121.19414,64.7112425 118.942451,65.5790451 C118.989722,66.009603 118.944747,66.4566352 118.793858,66.8938075 C118.235357,68.5119568 116.437284,69.3822621 114.77775,68.8376886 C113.873271,68.5408855 112.983481,68.2527834 112.101318,67.9709002 L109.98991,68.6799935 C104.970585,70.3799112 102.699524,71.3132224 100.929283,72.4764305 C99.4636897,73.4394571 97.4920437,73.0363843 96.5254881,71.5761422 C95.5589325,70.1159001 95.9634823,68.1514526 97.4290754,67.1884259 C98.7271766,66.3354565 100.064688,65.6382098 101.921102,64.87316 L98.2798524,63.7963317 C96.8589428,63.3685206 95.9670747,63.0781847 95.2575409,62.8072345 C94.6359717,62.5698754 94.1500016,62.3452259 93.7248761,62.0725306 C92.6108418,61.3579371 91.8317907,60.377659 92.031196,58.7573933 C92.2171495,57.2464295 93.0857275,56.4994152 94.2434264,55.9883188 C94.6216929,55.8213232 95.0403117,55.6873829 95.5437018,55.5610821 L95.8562638,55.4860151 C96.4335313,55.3529499 97.1164787,55.2223926 98.0792825,55.0605624 L106.28651,53.7760697 L106.876356,53.6814764 C109.996401,53.1789998 113.023808,52.6563143 116.231308,52.0559931 C117.95091,51.7341497 119.6125,52.8324928 119.942575,54.5092111 Z" id="Combined-Shape" stroke="#210D3E" stroke-width="2" fill="#FF9100" fill-rule="nonzero"></path>
    </g>
</svg>