<?xml version="1.0" encoding="UTF-8"?>
<svg width="153px" height="101px" viewBox="0 0 153 101" version="1.1" xmlns="http://www.w3.org/2000/svg" xmlns:xlink="http://www.w3.org/1999/xlink">
    <!-- Generator: Sketch 61.2 (89653) - https://sketch.com -->
    <title>sketchbook</title>
    <desc>Created with Sketch.</desc>
    <g id="sketchbook" stroke="none" stroke-width="1" fill="none" fill-rule="evenodd">
        <g id="Group" transform="translate(1.000000, 4.000000)">
            <path d="M88.9171862,0.128902364 C89.682418,0.0426479096 90.455143,0.204047769 91.1218655,0.58940568 L91.1218655,0.58940568 L92.26163,1.24757993 C93.6725415,0.498007568 95.368259,0.498489895 96.7819635,1.25671493 L96.7819635,1.25671493 L146.383097,27.8597432 C146.74642,28.0546073 147.053418,28.3397801 147.274499,28.6877723 C147.985274,29.8065685 147.654508,31.2897291 146.535712,32.0005044 L146.535712,32.0005044 L52.4673665,91.7624664 C50.7369712,92.8617928 48.4993932,92.7408052 46.8976229,91.4613059 L46.8976229,91.4613059 L5.52070952,58.4092934 C5.04755261,58.0313342 4.65019012,57.567253 4.34959297,57.041542 C3.0337153,54.7402183 3.83257717,51.8078972 6.1339009,50.4920195 L6.1339009,50.4920195 L7.80268804,49.5362447 L7.78811252,49.5250865 C6.35051677,48.3625423 6.03476503,46.3102174 7.02589642,44.7752939 L7.14140965,44.6069475 C13.0054166,36.552497 18.3027967,31.2053233 23.03355,28.5654263 C28.2913935,25.6313977 37.5778142,23.4028906 50.8928121,21.879905 C55.2538188,14.3760925 60.0813929,9.14704432 65.3755345,6.19276036 C70.4810459,3.34373753 78.3282631,1.32245153 88.9171862,0.128902364 Z" id="Combined-Shape" stroke="#210D3E" stroke-width="8" fill="#FFC039"></path>
            <path d="M5.52070952,58.4092934 L46.8976229,91.4613059 C48.4993932,92.7408052 50.7369712,92.8617928 52.4673665,91.7624664 L146.535712,32.0005044 C147.654508,31.2897291 147.985274,29.8065685 147.274499,28.6877723 C147.053418,28.3397801 146.74642,28.0546073 146.383097,27.8597432 L96.7819635,1.25671493 C95.3242267,0.474873637 93.5666356,0.498712624 92.1306401,1.31980289 L6.1339009,50.4920195 C3.83257717,51.8078972 3.0337153,54.7402183 4.34959297,57.041542 C4.65019012,57.567253 5.04755261,58.0313342 5.52070952,58.4092934 Z" id="Path-15" fill="#FFC039"></path>
            <path d="M51.9602424,83.1577864 L55.5877418,85.5018198 L94.2439503,62.8431299 L137.173523,35.7534274 L137.173523,30 C112.054953,36.1262729 94.28658,42.4389448 83.8684044,48.9380157 C73.4502288,55.4370865 62.8141748,66.8436768 51.9602424,83.1577864 Z" id="Path-16" fill="#D5EDED"></path>
            <path d="M7.78811252,49.5250865 L49.8562767,83.5444573 C51.3727221,84.7707486 53.5898946,84.5665416 54.8568303,83.083885 C60.8751529,76.0408237 66.2150527,71.1894974 70.8765296,68.529906 C76.1095466,65.5442241 84.3622211,63.1100147 95.6345533,61.2272778 C100.358963,52.9858246 106.213966,46.8722925 113.199563,42.8866813 C118.705671,39.7451881 126.697676,36.90815 137.175578,34.3755671 C139.10816,33.9084588 140.296151,31.96312 139.829033,30.030541 C139.597621,29.0731339 138.984031,28.2523568 138.131245,27.7594712 L91.1218655,0.58940568 C90.455143,0.204047769 89.682418,0.0426479096 88.9171862,0.128902364 C78.3282631,1.32245153 70.4810459,3.34373753 65.3755345,6.19276036 C60.0813929,9.14704432 55.2538188,14.3760925 50.8928121,21.879905 C37.5778142,23.4028906 28.2913935,25.6313977 23.03355,28.5654263 C18.3027967,31.2053233 13.0054166,36.552497 7.14140965,44.6069475 C6.01291489,46.1569728 6.29727249,48.3194851 7.78811252,49.5250865 Z" id="Path-14" fill="#FFFFFF"></path>
            <path d="M64.7684123,19.629795 C75.3376957,9.89109711 68.2352592,14.8591101 88.2292251,8.41720834" id="Path-17" stroke="#979797" stroke-width="1.2"></path>
            <path d="M70.69017,27.0587183 C84.8852644,12.4131653 76.4018662,16.8523091 95.889139,13.2718279" id="Path-3" stroke="#979797" stroke-width="1.2"></path>
            <path d="M75.1897132,34.3807369 C91.8778981,17.0639585 81.7711196,23.1322841 105.86564,16.7815479" id="Path-5" stroke="#979797" stroke-width="1.2"></path>
            <path d="M84.8903617,41.4421753 C93.2497358,31.0511498 102.2834,25.7033274 115.481337,22.9476593" id="Path-6" stroke="#979797" stroke-width="1.2"></path>
            <path d="M46.9452929,30 C44.8969222,38.7260975 40.9084751,47.2156549 40.8,56.1782925 C40.7481811,60.4818709 51.9345524,61.1545181 53.5628858,60.2798065 C68.1502237,52.4437492 64.6296233,31.9112892 45.4486269,30.8523742" id="Path-18" fill="#91FFE2"></path>
            <path d="M44.0907938,39.7185144 C16.6481921,37.7846988 25.5666344,60.2516823 41.0611905,53.5722203" id="Path-19" fill="#FDCBFF"></path>
            <path d="M57.8683765,44.596752 C57.8683765,59.8515707 58.4472294,17.0818241 51.1543785,58.686221 C48.302521,74.9555527 54.049322,67.8787603 59.814615,58.0056579 C68.6809462,42.8220072 71.3349696,24.4611082 55.7398272,45.4672619" id="Path-20" stroke="#FFA2A2" stroke-width="2.4"></path>
        </g>
    </g>
</svg>