<?xml version="1.0" encoding="UTF-8"?>
<svg width="459px" height="394px" viewBox="0 0 459 394" version="1.1" xmlns="http://www.w3.org/2000/svg" xmlns:xlink="http://www.w3.org/1999/xlink">
    <!-- Generator: Sketch 61.2 (89653) - https://sketch.com -->
    <title>the-cloud</title>
    <desc>Created with Sketch.</desc>
    <defs>
        <linearGradient x1="50%" y1="57.063054%" x2="44.5199805%" y2="34.4678302%" id="linearGradient-1">
            <stop stop-color="#FFE2FF" offset="0%"></stop>
            <stop stop-color="#EFB1FF" offset="100%"></stop>
        </linearGradient>
        <linearGradient x1="50%" y1="58.2512625%" x2="44.5199805%" y2="31.8548733%" id="linearGradient-2">
            <stop stop-color="#FFE2FF" offset="0%"></stop>
            <stop stop-color="#EFB1FF" offset="100%"></stop>
        </linearGradient>
    </defs>
    <g id="the-cloud" stroke="none" stroke-width="1" fill="none" fill-rule="evenodd">
        <g transform="translate(5.000000, 0.000000)" stroke="#210D3E">
            <g id="rainbow" transform="translate(91.000000, 151.000000)" stroke-width="6">
                <path d="M151.425906,0.225986504 L158.268417,10.7707132 C129.550082,29.3801846 103.882839,53.5948839 81.2572443,83.4467249 C58.8291533,113.037983 35.9916493,157.20096 12.8434227,215.87305 L12.1418662,217.655433 L0.434552968,213.064602 C24.2077474,152.523822 47.7729389,106.810048 71.2318387,75.8587576 C94.4558717,45.2173469 120.853919,20.2150923 150.416853,0.882843841 L151.425906,0.225986504 Z" id="Path-4"></path>
                <path d="M160.072194,6.11707561 L166.914705,16.6618023 C138.196371,35.2712737 112.529127,59.485973 89.9035325,89.337814 C67.4754415,118.929072 44.6379376,163.092049 21.4897109,221.764139 L20.7881545,223.546523 L9.08084118,218.955691 C32.8540356,158.414911 56.4192271,112.701137 79.8781269,81.7498467 C103.10216,51.108436 129.500207,26.1061814 159.063141,6.77393295 L160.072194,6.11707561 Z" id="Path-4"></path>
                <path d="M167.14643,13.9718611 L173.988941,24.5165878 C145.270606,43.1260592 119.603363,67.3407585 96.9777683,97.1925994 C74.5496773,126.783857 51.7121734,170.946834 28.5639467,229.618925 L27.8623903,231.401308 L16.155077,226.810476 C39.9282714,166.269696 63.4934629,120.555922 86.9523627,89.6046322 C110.176396,58.9632215 136.574443,33.9609669 166.137377,14.6287184 L167.14643,13.9718611 Z" id="Path-4"></path>
                <path d="M172.648614,20.2556895 L179.491124,30.8004161 C150.77279,49.4098876 125.105546,73.6245869 102.479952,103.476428 C80.0518607,133.067686 57.2143568,177.230662 34.0661301,235.902753 L33.3645737,237.685136 L21.6572604,233.094305 C45.4304548,172.553525 68.9956463,126.839751 92.4545461,95.8884606 C115.678579,65.2470498 142.076626,40.2447953 171.63956,20.9125468 L172.648614,20.2556895 Z" id="Path-4"></path>
                <path d="M151.425906,0.225986504 L158.268417,10.7707132 C129.550082,29.3801846 103.882839,53.5948839 81.2572443,83.4467249 C58.8291533,113.037983 35.9916493,157.20096 12.8434227,215.87305 L12.1418662,217.655433 L0.434552968,213.064602 C24.2077474,152.523822 47.7729389,106.810048 71.2318387,75.8587576 C94.4558717,45.2173469 120.853919,20.2150923 150.416853,0.882843841 L151.425906,0.225986504 Z" id="Path-4"></path>
                <path d="M160.072194,6.11707561 L166.914705,16.6618023 C138.196371,35.2712737 112.529127,59.485973 89.9035325,89.337814 C67.4754415,118.929072 44.6379376,163.092049 21.4897109,221.764139 L20.7881545,223.546523 L9.08084118,218.955691 C32.8540356,158.414911 56.4192271,112.701137 79.8781269,81.7498467 C103.10216,51.108436 129.500207,26.1061814 159.063141,6.77393295 L160.072194,6.11707561 Z" id="Path-4"></path>
                <path d="M167.14643,13.9718611 L173.988941,24.5165878 C145.270606,43.1260592 119.603363,67.3407585 96.9777683,97.1925994 C74.5496773,126.783857 51.7121734,170.946834 28.5639467,229.618925 L27.8623903,231.401308 L16.155077,226.810476 C39.9282714,166.269696 63.4934629,120.555922 86.9523627,89.6046322 C110.176396,58.9632215 136.574443,33.9609669 166.137377,14.6287184 L167.14643,13.9718611 Z" id="Path-4"></path>
                <path d="M172.648614,20.2556895 L179.491124,30.8004161 C150.77279,49.4098876 125.105546,73.6245869 102.479952,103.476428 C80.0518607,133.067686 57.2143568,177.230662 34.0661301,235.902753 L33.3645737,237.685136 L21.6572604,233.094305 C45.4304548,172.553525 68.9956463,126.839751 92.4545461,95.8884606 C115.678579,65.2470498 142.076626,40.2447953 171.63956,20.9125468 L172.648614,20.2556895 Z" id="Path-4"></path>
            </g>
            <g id="rainbow" transform="translate(213.586976, 96.033960) scale(-1, 1) rotate(-330.000000) translate(-213.586976, -96.033960) translate(155.086976, 19.033960)" fill-rule="nonzero" stroke-width="6">
                <path d="M97.8611925,0.0326492738 L102.292878,6.85843934 C83.6928903,18.9046829 67.0690015,34.5792906 52.4150956,53.9029209 C37.8891068,73.057871 23.0979537,101.645355 8.10555504,139.624849 L7.65117839,140.778617 L0.0687095226,137.80689 C15.4658807,98.6177606 30.7283348,69.0264174 45.9219469,48.991094 C60.963443,29.1563611 78.0606512,12.9719548 97.2076595,0.45784477 L97.8611925,0.0326492738 Z" id="Path-4" fill="#FF82F7"></path>
                <path d="M103.730512,3.90764778 L108.162197,10.7334378 C89.5622101,22.7796814 72.9383213,38.4542891 58.2844154,57.7779194 C43.7584266,76.9328695 28.9672736,105.520354 13.9748749,143.499847 L13.5204982,144.653616 L5.93802936,141.681888 C21.3352006,102.492759 36.5976546,72.9014159 51.7912668,52.8660925 C66.8327629,33.0313596 83.929971,16.8469533 103.076979,4.33284328 L103.730512,3.90764778 Z" id="Path-4" fill="#FFA2A2"></path>
                <path d="M108.237852,8.56893661 L112.669537,15.3947267 C94.0695495,27.4409702 77.4456608,43.1155779 62.7917549,62.4392082 C48.2657661,81.5941583 33.474613,110.181643 18.4822143,148.161136 L18.0278377,149.314904 L10.4453688,146.343177 C25.84254,107.154048 41.104994,77.5627048 56.2986062,57.5273814 C71.3401023,37.6926484 88.4373105,21.5082421 107.584319,8.99413211 L108.237852,8.56893661 Z" id="Path-4" fill="#FFF6A6"></path>
                <path d="M111.671031,12.9424232 L116.102716,19.7682133 C97.5027289,31.8144568 80.8788401,47.4890645 66.2249342,66.8126948 C51.6989454,85.9676449 36.9077923,114.555129 21.9153936,152.534622 L21.461017,153.688391 L13.8785481,150.716663 C29.2757193,111.527535 44.5381734,81.9361914 59.7317855,61.900868 C74.7732817,42.066135 91.8704898,25.8817287 111.017498,13.3676187 L111.671031,12.9424232 Z" id="Path-4" fill="#91FFE2"></path>
                <path d="M97.8611925,0.0326492738 L102.292878,6.85843934 C83.6928903,18.9046829 67.0690015,34.5792906 52.4150956,53.9029209 C37.8891068,73.057871 23.0979537,101.645355 8.10555504,139.624849 L7.65117839,140.778617 L0.0687095226,137.80689 C15.4658807,98.6177606 30.7283348,69.0264174 45.9219469,48.991094 C60.963443,29.1563611 78.0606512,12.9719548 97.2076595,0.45784477 L97.8611925,0.0326492738 Z" id="Path-4" fill="#FF82F7"></path>
                <path d="M103.730512,3.90764778 L108.162197,10.7334378 C89.5622101,22.7796814 72.9383213,38.4542891 58.2844154,57.7779194 C43.7584266,76.9328695 28.9672736,105.520354 13.9748749,143.499847 L13.5204982,144.653616 L5.93802936,141.681888 C21.3352006,102.492759 36.5976546,72.9014159 51.7912668,52.8660925 C66.8327629,33.0313596 83.929971,16.8469533 103.076979,4.33284328 L103.730512,3.90764778 Z" id="Path-4" fill="#FFA2A2"></path>
                <path d="M108.237852,8.56893661 L112.669537,15.3947267 C94.0695495,27.4409702 77.4456608,43.1155779 62.7917549,62.4392082 C48.2657661,81.5941583 33.474613,110.181643 18.4822143,148.161136 L18.0278377,149.314904 L10.4453688,146.343177 C25.84254,107.154048 41.104994,77.5627048 56.2986062,57.5273814 C71.3401023,37.6926484 88.4373105,21.5082421 107.584319,8.99413211 L108.237852,8.56893661 Z" id="Path-4" fill="#FFF6A6"></path>
                <path d="M111.671031,12.9424232 L116.102716,19.7682133 C97.5027289,31.8144568 80.8788401,47.4890645 66.2249342,66.8126948 C51.6989454,85.9676449 36.9077923,114.555129 21.9153936,152.534622 L21.461017,153.688391 L13.8785481,150.716663 C29.2757193,111.527535 44.5381734,81.9361914 59.7317855,61.900868 C74.7732817,42.066135 91.8704898,25.8817287 111.017498,13.3676187 L111.671031,12.9424232 Z" id="Path-4" fill="#91FFE2"></path>
            </g>
            <path d="M310.491124,69 C327.036286,69 341.28819,78.8297842 347.737925,92.9741638 C354.57756,89.7259112 362.227738,87.9090909 370.301775,87.9090909 C399.422541,87.9090909 423.029586,111.543029 423.029586,140.69697 C423.029586,147.121033 421.883369,153.277078 419.784514,158.971306 C420.720979,158.869937 421.6725,158.818182 422.636095,158.818182 C437.196478,158.818182 449,170.635151 449,185.212121 C449,199.789091 437.196478,211.606061 422.636095,211.606061 C414.849183,211.606061 407.850767,208.22626 403.024624,202.852012 C399.458368,215.628184 387.743989,225 373.843195,225 C359.428873,225 347.365492,214.922959 344.298447,201.421841 C335.293065,215.596222 319.463882,225 301.440828,225 C290.477876,225 280.32665,221.52063 272.028801,215.604728 C267.193608,221.350096 259.953033,225 251.860947,225 C241.273076,225 232.142966,218.751471 227.94915,209.736907 C224.470104,210.948396 220.731886,211.606061 216.840237,211.606061 C198.15079,211.606061 183,196.438011 183,177.727273 C183,161.099687 194.964976,147.269855 210.745505,144.396483 C210.612012,143.181403 210.544379,141.947094 210.544379,140.69697 C210.544379,121.986232 225.695169,106.818182 244.384615,106.818182 C254.978703,106.818182 264.435758,111.69194 270.640767,119.322032 C269.938592,116.318683 269.568047,113.187512 269.568047,109.969697 C269.568047,87.3427581 287.889933,69 310.491124,69 Z" id="Combined-Shape" stroke-width="7" fill="#FFE2FF"></path>
            <path d="M69.5085837,11 C84.5552315,11 97.1000011,21.6896661 99.9330759,35.8740891 C105.526439,33.0003627 111.871693,31.3783784 118.596567,31.3783784 C139.017566,31.3783784 155.938031,46.3349607 158.958198,65.8698657 L159.048124,65.868015 L159.048124,65.868015 L159.437768,65.8648649 C172.45083,65.8648649 183,76.3922235 183,89.3783784 C183,102.364533 172.45083,112.891892 159.437768,112.891892 C152.630218,112.891892 146.496955,110.010899 142.195499,105.404043 C135.531721,110.119498 127.388578,112.891892 118.596567,112.891892 C113.020485,112.891892 107.705401,111.776733 102.863046,109.757707 C97.2617908,117.809459 87.929128,123.081081 77.3626609,123.081081 C67.7374335,123.081081 59.1359908,118.706801 53.4456199,111.841624 C50.0711678,120.703067 41.4806257,127 31.416309,127 C18.4032477,127 7.85407725,116.472641 7.85407725,103.486486 C7.85407725,100.428285 8.43912236,97.5064455 9.50361556,94.8263468 C3.64491715,89.1954167 0,81.2859998 0,72.527027 C0,55.4285897 13.8897411,41.5675676 31.0236052,41.5675676 C33.597636,41.5675676 36.0984494,41.8804002 38.4899505,42.4700453 L38.4849785,41.9594595 C38.4849785,24.8610221 52.3747197,11 69.5085837,11 Z" id="Combined-Shape" stroke-width="7" fill="#FFE2FF"></path>
        </g>
        <g transform="translate(5.000000, 0.000000)">
            <g id="rainbow" transform="translate(91.000000, 151.000000)" fill-rule="nonzero">
                <path d="M151.425906,0.225986504 L158.268417,10.7707132 C129.550082,29.3801846 103.882839,53.5948839 81.2572443,83.4467249 C58.8291533,113.037983 35.9916493,157.20096 12.8434227,215.87305 L12.1418662,217.655433 L0.434552968,213.064602 C24.2077474,152.523822 47.7729389,106.810048 71.2318387,75.8587576 C94.4558717,45.2173469 120.853919,20.2150923 150.416853,0.882843841 L151.425906,0.225986504 Z" id="Path-4" fill="#FF82F7"></path>
                <path d="M160.072194,6.11707561 L166.914705,16.6618023 C138.196371,35.2712737 112.529127,59.485973 89.9035325,89.337814 C67.4754415,118.929072 44.6379376,163.092049 21.4897109,221.764139 L20.7881545,223.546523 L9.08084118,218.955691 C32.8540356,158.414911 56.4192271,112.701137 79.8781269,81.7498467 C103.10216,51.108436 129.500207,26.1061814 159.063141,6.77393295 L160.072194,6.11707561 Z" id="Path-4" fill="#FFA2A2"></path>
                <path d="M167.14643,13.9718611 L173.988941,24.5165878 C145.270606,43.1260592 119.603363,67.3407585 96.9777683,97.1925994 C74.5496773,126.783857 51.7121734,170.946834 28.5639467,229.618925 L27.8623903,231.401308 L16.155077,226.810476 C39.9282714,166.269696 63.4934629,120.555922 86.9523627,89.6046322 C110.176396,58.9632215 136.574443,33.9609669 166.137377,14.6287184 L167.14643,13.9718611 Z" id="Path-4" fill="#FFF6A6"></path>
                <path d="M172.648614,20.2556895 L179.491124,30.8004161 C150.77279,49.4098876 125.105546,73.6245869 102.479952,103.476428 C80.0518607,133.067686 57.2143568,177.230662 34.0661301,235.902753 L33.3645737,237.685136 L21.6572604,233.094305 C45.4304548,172.553525 68.9956463,126.839751 92.4545461,95.8884606 C115.678579,65.2470498 142.076626,40.2447953 171.63956,20.9125468 L172.648614,20.2556895 Z" id="Path-4" fill="#91FFE2"></path>
                <path d="M151.425906,0.225986504 L158.268417,10.7707132 C129.550082,29.3801846 103.882839,53.5948839 81.2572443,83.4467249 C58.8291533,113.037983 35.9916493,157.20096 12.8434227,215.87305 L12.1418662,217.655433 L0.434552968,213.064602 C24.2077474,152.523822 47.7729389,106.810048 71.2318387,75.8587576 C94.4558717,45.2173469 120.853919,20.2150923 150.416853,0.882843841 L151.425906,0.225986504 Z" id="Path-4" fill="#FF82F7"></path>
                <path d="M160.072194,6.11707561 L166.914705,16.6618023 C138.196371,35.2712737 112.529127,59.485973 89.9035325,89.337814 C67.4754415,118.929072 44.6379376,163.092049 21.4897109,221.764139 L20.7881545,223.546523 L9.08084118,218.955691 C32.8540356,158.414911 56.4192271,112.701137 79.8781269,81.7498467 C103.10216,51.108436 129.500207,26.1061814 159.063141,6.77393295 L160.072194,6.11707561 Z" id="Path-4" fill="#FFA2A2"></path>
                <path d="M167.14643,13.9718611 L173.988941,24.5165878 C145.270606,43.1260592 119.603363,67.3407585 96.9777683,97.1925994 C74.5496773,126.783857 51.7121734,170.946834 28.5639467,229.618925 L27.8623903,231.401308 L16.155077,226.810476 C39.9282714,166.269696 63.4934629,120.555922 86.9523627,89.6046322 C110.176396,58.9632215 136.574443,33.9609669 166.137377,14.6287184 L167.14643,13.9718611 Z" id="Path-4" fill="#FFF6A6"></path>
                <path d="M172.648614,20.2556895 L179.491124,30.8004161 C150.77279,49.4098876 125.105546,73.6245869 102.479952,103.476428 C80.0518607,133.067686 57.2143568,177.230662 34.0661301,235.902753 L33.3645737,237.685136 L21.6572604,233.094305 C45.4304548,172.553525 68.9956463,126.839751 92.4545461,95.8884606 C115.678579,65.2470498 142.076626,40.2447953 171.63956,20.9125468 L172.648614,20.2556895 Z" id="Path-4" fill="#91FFE2"></path>
            </g>
            <g id="rainbow" transform="translate(213.586976, 96.033960) scale(-1, 1) rotate(-330.000000) translate(-213.586976, -96.033960) translate(155.086976, 19.033960)" fill-rule="nonzero">
                <path d="M97.8611925,0.0326492738 L102.292878,6.85843934 C83.6928903,18.9046829 67.0690015,34.5792906 52.4150956,53.9029209 C37.8891068,73.057871 23.0979537,101.645355 8.10555504,139.624849 L7.65117839,140.778617 L0.0687095226,137.80689 C15.4658807,98.6177606 30.7283348,69.0264174 45.9219469,48.991094 C60.963443,29.1563611 78.0606512,12.9719548 97.2076595,0.45784477 L97.8611925,0.0326492738 Z" id="Path-4" fill="#FF82F7"></path>
                <path d="M103.730512,3.90764778 L108.162197,10.7334378 C89.5622101,22.7796814 72.9383213,38.4542891 58.2844154,57.7779194 C43.7584266,76.9328695 28.9672736,105.520354 13.9748749,143.499847 L13.5204982,144.653616 L5.93802936,141.681888 C21.3352006,102.492759 36.5976546,72.9014159 51.7912668,52.8660925 C66.8327629,33.0313596 83.929971,16.8469533 103.076979,4.33284328 L103.730512,3.90764778 Z" id="Path-4" fill="#FFA2A2"></path>
                <path d="M108.237852,8.56893661 L112.669537,15.3947267 C94.0695495,27.4409702 77.4456608,43.1155779 62.7917549,62.4392082 C48.2657661,81.5941583 33.474613,110.181643 18.4822143,148.161136 L18.0278377,149.314904 L10.4453688,146.343177 C25.84254,107.154048 41.104994,77.5627048 56.2986062,57.5273814 C71.3401023,37.6926484 88.4373105,21.5082421 107.584319,8.99413211 L108.237852,8.56893661 Z" id="Path-4" fill="#FFF6A6"></path>
                <path d="M111.671031,12.9424232 L116.102716,19.7682133 C97.5027289,31.8144568 80.8788401,47.4890645 66.2249342,66.8126948 C51.6989454,85.9676449 36.9077923,114.555129 21.9153936,152.534622 L21.461017,153.688391 L13.8785481,150.716663 C29.2757193,111.527535 44.5381734,81.9361914 59.7317855,61.900868 C74.7732817,42.066135 91.8704898,25.8817287 111.017498,13.3676187 L111.671031,12.9424232 Z" id="Path-4" fill="#91FFE2"></path>
                <path d="M97.8611925,0.0326492738 L102.292878,6.85843934 C83.6928903,18.9046829 67.0690015,34.5792906 52.4150956,53.9029209 C37.8891068,73.057871 23.0979537,101.645355 8.10555504,139.624849 L7.65117839,140.778617 L0.0687095226,137.80689 C15.4658807,98.6177606 30.7283348,69.0264174 45.9219469,48.991094 C60.963443,29.1563611 78.0606512,12.9719548 97.2076595,0.45784477 L97.8611925,0.0326492738 Z" id="Path-4" fill="#FF82F7"></path>
                <path d="M103.730512,3.90764778 L108.162197,10.7334378 C89.5622101,22.7796814 72.9383213,38.4542891 58.2844154,57.7779194 C43.7584266,76.9328695 28.9672736,105.520354 13.9748749,143.499847 L13.5204982,144.653616 L5.93802936,141.681888 C21.3352006,102.492759 36.5976546,72.9014159 51.7912668,52.8660925 C66.8327629,33.0313596 83.929971,16.8469533 103.076979,4.33284328 L103.730512,3.90764778 Z" id="Path-4" fill="#FFA2A2"></path>
                <path d="M108.237852,8.56893661 L112.669537,15.3947267 C94.0695495,27.4409702 77.4456608,43.1155779 62.7917549,62.4392082 C48.2657661,81.5941583 33.474613,110.181643 18.4822143,148.161136 L18.0278377,149.314904 L10.4453688,146.343177 C25.84254,107.154048 41.104994,77.5627048 56.2986062,57.5273814 C71.3401023,37.6926484 88.4373105,21.5082421 107.584319,8.99413211 L108.237852,8.56893661 Z" id="Path-4" fill="#FFF6A6"></path>
                <path d="M111.671031,12.9424232 L116.102716,19.7682133 C97.5027289,31.8144568 80.8788401,47.4890645 66.2249342,66.8126948 C51.6989454,85.9676449 36.9077923,114.555129 21.9153936,152.534622 L21.461017,153.688391 L13.8785481,150.716663 C29.2757193,111.527535 44.5381734,81.9361914 59.7317855,61.900868 C74.7732817,42.066135 91.8704898,25.8817287 111.017498,13.3676187 L111.671031,12.9424232 Z" id="Path-4" fill="#91FFE2"></path>
            </g>
            <path d="M310.491124,69 C327.036286,69 341.28819,78.8297842 347.737925,92.9741638 C354.57756,89.7259112 362.227738,87.9090909 370.301775,87.9090909 C399.422541,87.9090909 423.029586,111.543029 423.029586,140.69697 C423.029586,147.121033 421.883369,153.277078 419.784514,158.971306 C420.720979,158.869937 421.6725,158.818182 422.636095,158.818182 C437.196478,158.818182 449,170.635151 449,185.212121 C449,199.789091 437.196478,211.606061 422.636095,211.606061 C414.849183,211.606061 407.850767,208.22626 403.024624,202.852012 C399.458368,215.628184 387.743989,225 373.843195,225 C359.428873,225 347.365492,214.922959 344.298447,201.421841 C335.293065,215.596222 319.463882,225 301.440828,225 C290.477876,225 280.32665,221.52063 272.028801,215.604728 C267.193608,221.350096 259.953033,225 251.860947,225 C241.273076,225 232.142966,218.751471 227.94915,209.736907 C224.470104,210.948396 220.731886,211.606061 216.840237,211.606061 C198.15079,211.606061 183,196.438011 183,177.727273 C183,161.099687 194.964976,147.269855 210.745505,144.396483 C210.612012,143.181403 210.544379,141.947094 210.544379,140.69697 C210.544379,121.986232 225.695169,106.818182 244.384615,106.818182 C254.978703,106.818182 264.435758,111.69194 270.640767,119.322032 C269.938592,116.318683 269.568047,113.187512 269.568047,109.969697 C269.568047,87.3427581 287.889933,69 310.491124,69 Z" id="Combined-Shape" fill="url(#linearGradient-1)"></path>
            <path d="M69.5085837,11 C84.5552315,11 97.1000011,21.6896661 99.9330759,35.8740891 C105.526439,33.0003627 111.871693,31.3783784 118.596567,31.3783784 C139.017566,31.3783784 155.938031,46.3349607 158.958198,65.8698657 L159.048124,65.868015 L159.048124,65.868015 L159.437768,65.8648649 C172.45083,65.8648649 183,76.3922235 183,89.3783784 C183,102.364533 172.45083,112.891892 159.437768,112.891892 C152.630218,112.891892 146.496955,110.010899 142.195499,105.404043 C135.531721,110.119498 127.388578,112.891892 118.596567,112.891892 C113.020485,112.891892 107.705401,111.776733 102.863046,109.757707 C97.2617908,117.809459 87.929128,123.081081 77.3626609,123.081081 C67.7374335,123.081081 59.1359908,118.706801 53.4456199,111.841624 C50.0711678,120.703067 41.4806257,127 31.416309,127 C18.4032477,127 7.85407725,116.472641 7.85407725,103.486486 C7.85407725,100.428285 8.43912236,97.5064455 9.50361556,94.8263468 C3.64491715,89.1954167 0,81.2859998 0,72.527027 C0,55.4285897 13.8897411,41.5675676 31.0236052,41.5675676 C33.597636,41.5675676 36.0984494,41.8804002 38.4899505,42.4700453 L38.4849785,41.9594595 C38.4849785,24.8610221 52.3747197,11 69.5085837,11 Z" id="Combined-Shape" fill="url(#linearGradient-2)"></path>
        </g>
    </g>
</svg>