<?xml version="1.0" encoding="UTF-8"?>
<svg width="71px" height="82px" viewBox="0 0 71 82" version="1.1" xmlns="http://www.w3.org/2000/svg" xmlns:xlink="http://www.w3.org/1999/xlink">
    <!-- Generator: Sketch 61.2 (89653) - https://sketch.com -->
    <title>time-teller</title>
    <desc>Created with Sketch.</desc>
    <g id="time-teller" stroke="none" stroke-width="1" fill="none" fill-rule="evenodd">
        <g id="crystal-ball" transform="translate(4.000000, 4.000000)">
            <path d="M31,0 C47.0162577,0 60,12.9837423 60,29 C60,37.0680639 56.7052957,44.3666084 51.387929,49.6235914 C59.129613,54.323555 63,58.4491478 63,62 C63,68.627417 48.8969696,74 31.5,74 C14.1030304,74 0,68.627417 0,62 C0,59.461552 3.67512258,55.4698874 11.0253677,50.0250063 C5.46607675,44.740919 2,37.2752323 2,29 C2,12.9837423 14.9837423,0 31,0 Z" id="Combined-Shape" stroke="#210D3E" stroke-width="8" fill="#FDCBFF"></path>
            <path d="M31.5,74 C48.8969696,74 63,68.627417 63,62 C63,57.581722 57.0076763,52.2736024 45.0230288,46.0756411 L16.6237645,46.0756411 C5.54125484,53.5748831 0,58.8830028 0,62 C0,68.627417 14.1030304,74 31.5,74 Z" id="Oval" fill="#FDCBFF"></path>
            <circle id="Oval" fill="#BDE4F1" cx="31" cy="29" r="29"></circle>
            <ellipse id="Oval" fill="#FAF5FB" cx="38" cy="12.5" rx="10" ry="5.5"></ellipse>
            <path d="M8.41472451,29.7395661 C14.7046799,32.9475638 25.5185802,44.3165028 28.9038676,44.3348557 C37.8551252,44.383384 37.3377702,33.7998023 46.4572315,33.5886458 C47.8439859,33.5565362 49.5543884,33.9757667 50.3222361,35.1309849 C54.8620107,41.9610241 44.9726141,51.0873736 38.7128896,52.5346535 C24.44163,55.8342406 7.61482776,45.4452314 6.86203412,30.6249978 L8.41472451,29.7395661 Z" id="Path-23" fill="#FAF5FB"></path>
        </g>
    </g>
</svg>