<?xml version="1.0" encoding="UTF-8"?>
<svg width="100px" height="100px" viewBox="0 0 100 100" version="1.1" xmlns="http://www.w3.org/2000/svg" xmlns:xlink="http://www.w3.org/1999/xlink">
    <!-- Generator: Sketch 61.2 (89653) - https://sketch.com -->
    <title>writeIcon-selected</title>
    <desc>Created with Sketch.</desc>
    <defs>
        <path d="M23,13 L78,13 C79.6568542,13 81,14.3431458 81,16 L81,28.0105597 C81,29.667414 79.6568542,31.0105597 78,31.0105597 C77.4288148,31.0105597 76.8695,30.8474986 76.3878034,30.5405443 L64.9844916,23.2739468 C62.6557051,21.7899609 59.5648423,22.4748071 58.0808563,24.8035936 C57.5692659,25.6064212 57.2974974,26.5386126 57.2974974,27.4905879 L57.2974974,71.2676523 C57.2974974,75.3339685 60.593898,78.6303692 64.6602143,78.6303692 L67.8381158,78.6303692 C70.1493255,78.6303692 72.0229312,80.5039749 72.0229312,82.8151846 C72.0229312,85.1263943 70.1493255,87 67.8381158,87 L33.1618842,87 C30.8506745,87 28.9770688,85.1263943 28.9770688,82.8151846 C28.9770688,80.5039749 30.8506745,78.6303692 33.1618842,78.6303692 L36.1955671,78.6303692 C40.1822336,78.6303692 43.4140653,75.3985374 43.4140653,71.4118709 L43.4140653,27.5510236 C43.4140653,24.7895998 41.1754891,22.5510236 38.4140653,22.5510236 C37.4526272,22.5510236 36.511576,22.8282174 35.7036549,23.3493958 L24.6262462,30.4952749 C23.2339493,31.3934259 21.3771744,30.9928415 20.4790234,29.6005445 C20.1663163,29.1157919 20,28.5511612 20,27.9742983 L20,16 C20,14.3431458 21.3431458,13 23,13 Z" id="path-1"></path>
        <path d="M3,0 L58,0 C59.6568542,-3.83092734e-15 61,1.34314575 61,3 L61,15.0105597 C61,16.667414 59.6568542,18.0105597 58,18.0105597 C57.4288148,18.0105597 56.8695,17.8474986 56.3878034,17.5405443 L44.9844916,10.2739468 C42.6557051,8.78996087 39.5648423,9.47480706 38.0808563,11.8035936 C37.5692659,12.6064212 37.2974974,13.5386126 37.2974974,14.4905879 L37.2974974,58.2676523 C37.2974974,62.3339685 40.593898,65.6303692 44.6602143,65.6303692 L47.8381158,65.6303692 C50.1493255,65.6303692 52.0229312,67.5039749 52.0229312,69.8151846 C52.0229312,72.1263943 50.1493255,74 47.8381158,74 L13.1618842,74 C10.8506745,74 8.97706882,72.1263943 8.97706882,69.8151846 C8.97706882,67.5039749 10.8506745,65.6303692 13.1618842,65.6303692 L16.1955671,65.6303692 C20.1822336,65.6303692 23.4140653,62.3985374 23.4140653,58.4118709 L23.4140653,14.5510236 C23.4140653,11.7895998 21.1754891,9.55102356 18.4140653,9.55102356 C17.4526272,9.55102356 16.511576,9.82821745 15.7036549,10.3493958 L4.62624624,17.4952749 C3.23394929,18.3934259 1.37717436,17.9928415 0.479023368,16.6005445 C0.166316331,16.1157919 -3.7344388e-16,15.5511612 0,14.9742983 L0,3 C-2.02906125e-16,1.34314575 1.34314575,3.04359188e-16 3,0 Z" id="path-3"></path>
        <linearGradient x1="94.8083033%" y1="53.6201278%" x2="0.840783095%" y2="53.6201278%" id="linearGradient-5">
            <stop stop-color="#FFC183" offset="0%"></stop>
            <stop stop-color="#FFD13D" stop-opacity="0" offset="27.3991765%"></stop>
            <stop stop-color="#FF2800" offset="100%"></stop>
        </linearGradient>
    </defs>
    <g id="writeIcon-selected" stroke="none" stroke-width="1" fill="none" fill-rule="evenodd">
        <mask id="mask-2" fill="white">
            <use xlink:href="#path-1"></use>
        </mask>
        <path stroke="#210D3E" stroke-width="9" d="M23,8.5 L78,8.5 C82.1421356,8.5 85.5,11.8578644 85.5,16 L85.5,28.0105597 C85.5,32.1526953 82.1421356,35.5105597 78,35.5105597 C76.5720371,35.5105597 75.17375,35.1029069 73.9695086,34.3355213 L62.5661968,27.0689238 C62.3333181,26.9205252 62.0242319,26.9890098 61.8758333,27.2218885 C61.8246742,27.3021712 61.7974974,27.3953904 61.7974974,27.4905879 L61.7974974,71.2676523 C61.7974974,72.8486872 63.0791794,74.1303692 64.6602143,74.1303692 L67.8381158,74.1303692 C72.6346069,74.1303692 76.5229312,78.0186935 76.5229312,82.8151846 C76.5229312,87.6116757 72.6346069,91.5 67.8381158,91.5 L33.1618842,91.5 C28.3653931,91.5 24.4770688,87.6116757 24.4770688,82.8151846 C24.4770688,78.0186935 28.3653931,74.1303692 33.1618842,74.1303692 L36.1955671,74.1303692 C37.6969522,74.1303692 38.9140653,72.9132561 38.9140653,71.4118709 L38.9140653,27.5510236 C38.9140653,27.2748812 38.6902077,27.0510236 38.4140653,27.0510236 C38.3179215,27.0510236 38.2238164,27.078743 38.1430243,27.1308608 L27.0656156,34.2767399 C23.5848732,36.5221174 18.9429359,35.5206563 16.6975584,32.0399139 C15.9157908,30.8280323 15.5,29.4164555 15.5,27.9742983 L15.5,16 C15.5,11.8578644 18.8578644,8.5 23,8.5 Z"></path>
        <g id="Rectangle" mask="url(#mask-2)">
            <g transform="translate(20.000000, 13.000000)">
                <mask id="mask-4" fill="white">
                    <use xlink:href="#path-3"></use>
                </mask>
                <use id="Mask" stroke="none" fill="#FF9100" fill-rule="evenodd" xlink:href="#path-3"></use>
                <rect id="Rectangle" stroke="none" fill="url(#linearGradient-5)" fill-rule="evenodd" style="mix-blend-mode: screen;" mask="url(#mask-4)" x="0" y="-14" width="64" height="106"></rect>
            </g>
        </g>
    </g>
</svg>